<!-- Generated by IcoMoon.io -->
<svg version="1.1" xmlns="http://www.w3.org/2000/svg" width="24" height="24" viewBox="0 0 24 24">
<title>ac_unit</title>
<path d="M21.984 11.016v1.969h-4.172l3.234 3.234-1.406 1.453-4.641-4.688h-2.016v2.016l4.688 4.641-1.453 1.406-3.234-3.234v4.172h-1.969v-4.172l-3.234 3.234-1.453-1.406 4.688-4.641v-2.016h-2.016l-4.641 4.688-1.406-1.453 3.234-3.234h-4.172v-1.969h4.172l-3.234-3.234 1.406-1.453 4.641 4.688h2.016v-2.016l-4.688-4.641 1.453-1.406 3.234 3.234v-4.172h1.969v4.172l3.234-3.234 1.453 1.406-4.688 4.641v2.016h2.016l4.641-4.688 1.406 1.453-3.234 3.234h4.172z"></path>
</svg>
