<!-- Generated by IcoMoon.io -->
<svg version="1.1" xmlns="http://www.w3.org/2000/svg" width="24" height="24" viewBox="0 0 24 24">
<title>accessible_forward</title>
<path d="M17.016 13.5q0.797 0 1.383 0.609t0.586 1.406v5.484h-1.969v-5.016h-5.016q-1.078 0-1.688-0.961t-0.141-1.945l1.828-4.078h-2.203l-0.656 1.547-1.922-0.563 0.656-1.781q0.516-1.219 1.875-1.219h5.203q1.125 0 1.734 0.938t0.141 1.922l-1.688 3.656h1.875zM14.016 17.016q0 2.063-1.477 3.516t-3.539 1.453-3.539-1.453-1.477-3.516 1.477-3.539 3.539-1.477v2.016q-1.219 0-2.109 0.891t-0.891 2.109 0.891 2.109 2.109 0.891 2.109-0.891 0.891-2.109h2.016zM15 4.547q0-0.844 0.586-1.43t1.43-0.586 1.406 0.586 0.563 1.43-0.563 1.43-1.406 0.586-1.43-0.586-0.586-1.43z"></path>
</svg>
