<!-- Generated by IcoMoon.io -->
<svg version="1.1" xmlns="http://www.w3.org/2000/svg" width="24" height="24" viewBox="0 0 24 24">
<title>add_call</title>
<path d="M21 6v2.016h-3v3h-2.016v-3h-3v-2.016h3v-3h2.016v3h3zM20.016 15.516q0.422 0 0.703 0.281t0.281 0.703v3.516q0 0.422-0.281 0.703t-0.703 0.281q-7.031 0-12.023-4.992t-4.992-12.023q0-0.422 0.281-0.703t0.703-0.281h3.516q0.422 0 0.703 0.281t0.281 0.703q0 1.875 0.563 3.563 0.188 0.609-0.234 1.031l-2.203 2.203q2.203 4.313 6.609 6.609l2.203-2.203q0.422-0.422 1.031-0.234 1.688 0.563 3.563 0.563z"></path>
</svg>
