<!-- Generated by IcoMoon.io -->
<svg version="1.1" xmlns="http://www.w3.org/2000/svg" width="24" height="24" viewBox="0 0 24 24">
<title>airline_seat_flat_angled</title>
<path d="M7.313 10.219q-0.469 0.281-1.313 0.281-0.797 0-1.594-0.492t-1.125-1.195q-0.281-0.469-0.281-1.313 0-0.797 0.492-1.594t1.195-1.125q0.469-0.281 1.313-0.281 0.797 0 1.594 0.492t1.125 1.195q0.281 0.656 0.281 1.313 0 0.797-0.492 1.594t-1.195 1.125zM1.5 12.141l0.703-1.875 18.984 6.844-0.656 1.875-4.547-1.594v1.594h-7.969v-4.5zM22.266 14.297l-0.703 1.875-12.375-4.453 2.109-5.672 8.531 3.094q1.078 0.375 1.875 1.477t0.797 2.273q0 0.797-0.234 1.406z"></path>
</svg>
