<!-- Generated by IcoMoon.io -->
<svg version="1.1" xmlns="http://www.w3.org/2000/svg" width="24" height="24" viewBox="0 0 24 24">
<title>airline_seat_recline_extra</title>
<path d="M16.219 15l5.766 4.5-1.5 1.5-3.797-3h-6.844q-1.031 0-1.898-0.703t-1.055-1.734l-1.359-5.906q0-0.047-0.023-0.188t-0.023-0.188q0-0.797 0.563-1.453t1.313-0.797h0.047q0.047 0 0.164-0.023t0.164-0.023q0.797 0 1.406 0.469l1.641 1.266q2.25 1.734 4.688 1.266v2.156q-2.25 0.375-5.156-1.219l1.031 4.078h4.875zM15.984 18.984v2.016h-7.031q-1.781 0-3.234-1.219t-1.734-3l-1.969-9.797h1.969l1.969 9.469q0.188 1.078 1.031 1.805t1.969 0.727h7.031zM5.344 5.625q-0.656-0.469-0.797-1.289t0.328-1.477 1.289-0.82 1.477 0.305q0.656 0.516 0.82 1.336t-0.305 1.477-1.313 0.797-1.5-0.328z"></path>
</svg>
