<!-- Generated by IcoMoon.io -->
<svg version="1.1" xmlns="http://www.w3.org/2000/svg" width="24" height="24" viewBox="0 0 24 24">
<title>airport_shuttle</title>
<path d="M15 11.016h5.016l-4.031-4.031h-0.984v4.031zM17.484 17.484q0.609 0 1.055-0.445t0.445-1.055-0.445-1.055-1.055-0.445-1.055 0.445-0.445 1.055 0.445 1.055 1.055 0.445zM12.984 11.016v-4.031h-3.984v4.031h3.984zM6 17.484q0.656 0 1.078-0.445t0.422-1.055-0.422-1.055-1.078-0.445-1.078 0.445-0.422 1.055 0.422 1.055 1.078 0.445zM3 11.016h3.984v-4.031h-3.984v4.031zM17.016 5.016l6 6v4.969h-2.531q0 1.219-0.891 2.109t-2.109 0.891-2.109-0.891-0.891-2.109h-5.484q0 1.219-0.891 2.109t-2.109 0.891-2.109-0.891-0.891-2.109h-2.016v-9q0-0.844 0.586-1.406t1.43-0.563h14.016z"></path>
</svg>
