<!-- Generated by IcoMoon.io -->
<svg version="1.1" xmlns="http://www.w3.org/2000/svg" width="24" height="24" viewBox="0 0 24 24">
<title>attachment</title>
<path d="M2.016 12.516q0-2.297 1.594-3.914t3.891-1.617h10.5q1.641 0 2.813 1.195t1.172 2.836-1.172 2.813-2.813 1.172h-8.484q-1.031 0-1.781-0.727t-0.75-1.758 0.75-1.781 1.781-0.75h7.5v2.016h-7.594q-0.422 0-0.422 0.492t0.422 0.492h8.578q0.797 0 1.406-0.586t0.609-1.383-0.609-1.406-1.406-0.609h-10.5q-1.453 0-2.484 1.031t-1.031 2.484 1.031 2.461 2.484 1.008h9.516v2.016h-9.516q-2.297 0-3.891-1.594t-1.594-3.891z"></path>
</svg>
