<!-- Generated by IcoMoon.io -->
<svg version="1.1" xmlns="http://www.w3.org/2000/svg" width="24" height="24" viewBox="0 0 24 24">
<title>attractions</title>
<path d="M3.844 9.563q-0.609-0.469-0.75-1.195t0.234-1.383 1.102-0.891 1.383 0.047q0.703-0.75 1.945-1.453t2.273-0.938q0.094-0.75 0.656-1.242t1.313-0.492 1.313 0.492 0.656 1.242q2.391 0.563 4.172 2.391 0.281-0.141 0.797-0.141 1.172 0 1.734 0.984 0.375 0.656 0.234 1.383t-0.75 1.195q0.328 1.031 0.328 2.438t-0.328 2.438q0.609 0.469 0.75 1.195t-0.234 1.383-1.125 0.891-1.406-0.047q-0.703 0.703-1.313 1.125l1.313 3h-1.828l-0.984-2.156q-0.609 0.281-1.359 0.422-0.094 0.75-0.656 1.242t-1.313 0.492-1.313-0.492-0.656-1.242q-0.141-0.047-0.445-0.117t-0.539-0.141-0.422-0.164l-0.984 2.156h-1.875l1.359-3q-0.563-0.422-1.266-1.125-0.703 0.281-1.43 0.047t-1.102-0.891-0.234-1.383 0.75-1.195q-0.328-1.031-0.328-2.438t0.328-2.438zM5.156 9.984q-0.234 0.844-0.234 1.875 0 1.172 0.328 2.156 1.078 0.094 1.547 0.984 0.469 0.844 0.094 1.781 0.422 0.375 0.891 0.75l1.5-3.375q-0.75-0.891-0.75-2.156 0-1.406 1.008-2.391t2.461-0.984 2.461 0.984 1.008 2.391q0 1.172-0.797 2.203l1.5 3.328q0.328-0.234 0.891-0.797-0.375-0.938 0.188-1.805t1.453-0.914q0.375-1.125 0.375-2.156 0-0.844-0.281-1.875-1.125-0.094-1.594-0.984-0.563-0.938 0-1.969-1.406-1.547-3.469-2.063-0.563 1.031-1.734 1.031t-1.734-1.031q-1.969 0.516-3.469 2.063 0.563 1.031 0 1.969-0.469 0.891-1.641 0.984zM10.453 18.75q0.609-0.75 1.547-0.75t1.547 0.75q0.375-0.094 1.125-0.375l-1.406-3.188q-0.563 0.234-1.266 0.234-0.75 0-1.313-0.234l-1.406 3.188q0.75 0.281 1.172 0.375z"></path>
</svg>
