<!-- Generated by IcoMoon.io -->
<svg version="1.1" xmlns="http://www.w3.org/2000/svg" width="24" height="24" viewBox="0 0 24 24">
<title>bakery_dining</title>
<path d="M13.781 15h-3.563l-0.75-6.891q-0.047-0.469 0.234-0.797t0.656-0.328h3.281q0.375 0 0.656 0.328t0.234 0.797zM8.625 9.375l0.656 5.625h-1.781l-2.109-4.078q-0.469-0.891 0.375-1.406l1.594-0.891q0.375-0.234 0.797 0t0.469 0.75zM15.375 9.375q0.094-0.516 0.469-0.75t0.797 0l1.594 0.891q0.844 0.516 0.328 1.406l-2.063 4.078h-1.781zM4.734 16.359q-0.234 0.141-0.563 0.141-0.563 0-0.844-0.563l-0.234-0.469q-0.234-0.563 0.047-0.984l0.844-1.266q0.234-0.422 0.797-0.422t0.797 0.422l0.984 1.781zM19.266 16.359l-1.828-1.359q0.328-0.609 0.984-1.781 0.234-0.422 0.797-0.422t0.797 0.422l0.797 1.266q0.328 0.469 0.094 0.984l-0.234 0.469q-0.234 0.563-0.844 0.563-0.328 0-0.563-0.141z"></path>
</svg>
