<!-- Generated by IcoMoon.io -->
<svg version="1.1" xmlns="http://www.w3.org/2000/svg" width="24" height="24" viewBox="0 0 24 24">
<title>bathtub</title>
<path d="M20.016 12.984h1.969v6q0 0.797-0.586 1.406t-1.383 0.609q0 0.422-0.305 0.703t-0.727 0.281h-13.969q-0.422 0-0.727-0.281t-0.305-0.703q-0.797 0-1.383-0.609t-0.586-1.406v-6h3v-0.75q0-0.891 0.68-1.57t1.57-0.68q0.938 0 1.688 0.75l1.359 1.547q0.281 0.328 0.844 0.703h6.844v-8.156q0-0.328-0.234-0.586t-0.609-0.258q-0.328 0-0.563 0.234l-1.266 1.266q0.094 0.375 0.094 0.516 0 0.516-0.328 1.078l-2.766-2.766q0.563-0.328 1.078-0.328 0.234 0 0.516 0.094l1.266-1.266q0.797-0.797 1.969-0.797t2.016 0.82 0.844 1.992v8.156zM5.016 6.984q0-0.844 0.563-1.406t1.406-0.563 1.43 0.563 0.586 1.406-0.586 1.43-1.43 0.586-1.406-0.586-0.563-1.43z"></path>
</svg>
