<!-- Generated by IcoMoon.io -->
<svg version="1.1" xmlns="http://www.w3.org/2000/svg" width="24" height="24" viewBox="0 0 24 24">
<title>battery_unknown</title>
<path d="M14.297 12.703q0.703-0.703 0.703-1.688 0-1.219-0.891-2.109t-2.109-0.891-2.109 0.891-0.891 2.109h1.5q0-0.609 0.422-1.055t1.078-0.445 1.078 0.445 0.422 1.055-0.422 1.031l-0.938 0.938q-0.938 0.938-0.938 2.016h1.594q0-0.75 0.844-1.594zM12.938 17.953v-1.922h-1.875v1.922h1.875zM15.656 3.984q0.563 0 0.961 0.398t0.398 0.961v15.328q0 0.563-0.398 0.938t-0.961 0.375h-7.313q-0.563 0-0.961-0.375t-0.398-0.938v-15.328q0-0.563 0.398-0.961t0.961-0.398h1.641v-1.969h4.031v1.969h1.641z"></path>
</svg>
