<!-- Generated by IcoMoon.io -->
<svg version="1.1" xmlns="http://www.w3.org/2000/svg" width="24" height="24" viewBox="0 0 24 24">
<title>blur_circular</title>
<path d="M14.016 12.984q0.422 0 0.703 0.305t0.281 0.727-0.281 0.703-0.703 0.281-0.727-0.281-0.305-0.703 0.305-0.727 0.727-0.305zM14.016 16.5q0.469 0 0.469 0.516 0 0.469-0.469 0.469-0.516 0-0.516-0.469 0-0.516 0.516-0.516zM12 20.016q3.281 0 5.648-2.367t2.367-5.648-2.367-5.648-5.648-2.367-5.648 2.367-2.367 5.648 2.367 5.648 5.648 2.367zM12 2.016q4.125 0 7.055 2.93t2.93 7.055-2.93 7.055-7.055 2.93-7.055-2.93-2.93-7.055 2.93-7.055 7.055-2.93zM17.016 9.516q0.469 0 0.469 0.469 0 0.516-0.469 0.516-0.516 0-0.516-0.516 0-0.469 0.516-0.469zM17.016 13.5q0.469 0 0.469 0.516 0 0.469-0.469 0.469-0.516 0-0.516-0.469 0-0.516 0.516-0.516zM14.016 7.5q-0.516 0-0.516-0.516 0-0.469 0.516-0.469 0.469 0 0.469 0.469 0 0.516-0.469 0.516zM14.016 9q0.422 0 0.703 0.281t0.281 0.703-0.281 0.727-0.703 0.305-0.727-0.305-0.305-0.727 0.305-0.703 0.727-0.281zM9.984 7.5q-0.469 0-0.469-0.516 0-0.469 0.469-0.469 0.516 0 0.516 0.469 0 0.516-0.516 0.516zM6.984 13.5q0.516 0 0.516 0.516 0 0.469-0.516 0.469-0.469 0-0.469-0.469 0-0.516 0.469-0.516zM9.984 16.5q0.516 0 0.516 0.516 0 0.469-0.516 0.469-0.469 0-0.469-0.469 0-0.516 0.469-0.516zM6.984 9.516q0.516 0 0.516 0.469 0 0.516-0.516 0.516-0.469 0-0.469-0.516 0-0.469 0.469-0.469zM9.984 12.984q0.422 0 0.727 0.305t0.305 0.727-0.305 0.703-0.727 0.281-0.703-0.281-0.281-0.703 0.281-0.727 0.703-0.305zM9.984 9q0.422 0 0.727 0.281t0.305 0.703-0.305 0.727-0.727 0.305-0.703-0.305-0.281-0.727 0.281-0.703 0.703-0.281z"></path>
</svg>
