<!-- Generated by IcoMoon.io -->
<svg version="1.1" xmlns="http://www.w3.org/2000/svg" width="24" height="24" viewBox="0 0 24 24">
<title>blur_on</title>
<path d="M14.016 8.484q0.609 0 1.055 0.445t0.445 1.055-0.445 1.055-1.055 0.445-1.055-0.445-0.445-1.055 0.445-1.055 1.055-0.445zM14.016 12.516q0.609 0 1.055 0.445t0.445 1.055-0.445 1.055-1.055 0.445-1.055-0.445-0.445-1.055 0.445-1.055 1.055-0.445zM9.984 17.016q0.422 0 0.727 0.281t0.305 0.703-0.305 0.703-0.727 0.281-0.703-0.281-0.281-0.703 0.281-0.703 0.703-0.281zM9.984 8.484q0.609 0 1.055 0.445t0.445 1.055-0.445 1.055-1.055 0.445-1.055-0.445-0.445-1.055 0.445-1.055 1.055-0.445zM14.016 20.484q0.469 0 0.469 0.516t-0.469 0.516q-0.516 0-0.516-0.516t0.516-0.516zM14.016 17.016q0.422 0 0.703 0.281t0.281 0.703-0.281 0.703-0.703 0.281-0.727-0.281-0.305-0.703 0.305-0.703 0.727-0.281zM21 13.5q0.516 0 0.516 0.516 0 0.469-0.516 0.469t-0.516-0.469q0-0.516 0.516-0.516zM18 5.016q0.422 0 0.703 0.281t0.281 0.703-0.281 0.703-0.703 0.281-0.703-0.281-0.281-0.703 0.281-0.703 0.703-0.281zM18 9q0.422 0 0.703 0.281t0.281 0.703-0.281 0.727-0.703 0.305-0.703-0.305-0.281-0.727 0.281-0.703 0.703-0.281zM18 17.016q0.422 0 0.703 0.281t0.281 0.703-0.281 0.703-0.703 0.281-0.703-0.281-0.281-0.703 0.281-0.703 0.703-0.281zM18 12.984q0.422 0 0.703 0.305t0.281 0.727-0.281 0.703-0.703 0.281-0.703-0.281-0.281-0.703 0.281-0.727 0.703-0.305zM9.984 12.516q0.609 0 1.055 0.445t0.445 1.055-0.445 1.055-1.055 0.445-1.055-0.445-0.445-1.055 0.445-1.055 1.055-0.445zM9.984 6.984q-0.422 0-0.703-0.281t-0.281-0.703 0.281-0.703 0.703-0.281 0.727 0.281 0.305 0.703-0.305 0.703-0.727 0.281zM9.984 3.516q-0.469 0-0.469-0.516t0.469-0.516q0.516 0 0.516 0.516t-0.516 0.516zM9.984 20.484q0.516 0 0.516 0.516t-0.516 0.516q-0.469 0-0.469-0.516t0.469-0.516zM3 13.5q0.516 0 0.516 0.516 0 0.469-0.516 0.469t-0.516-0.469q0-0.516 0.516-0.516zM14.016 3.516q-0.516 0-0.516-0.516t0.516-0.516q0.469 0 0.469 0.516t-0.469 0.516zM14.016 6.984q-0.422 0-0.727-0.281t-0.305-0.703 0.305-0.703 0.727-0.281 0.703 0.281 0.281 0.703-0.281 0.703-0.703 0.281zM21 10.5q-0.516 0-0.516-0.516 0-0.469 0.516-0.469t0.516 0.469q0 0.516-0.516 0.516zM6 5.016q0.422 0 0.703 0.281t0.281 0.703-0.281 0.703-0.703 0.281-0.703-0.281-0.281-0.703 0.281-0.703 0.703-0.281zM3 9.516q0.516 0 0.516 0.469 0 0.516-0.516 0.516t-0.516-0.516q0-0.469 0.516-0.469zM6 9q0.422 0 0.703 0.281t0.281 0.703-0.281 0.727-0.703 0.305-0.703-0.305-0.281-0.727 0.281-0.703 0.703-0.281zM6 17.016q0.422 0 0.703 0.281t0.281 0.703-0.281 0.703-0.703 0.281-0.703-0.281-0.281-0.703 0.281-0.703 0.703-0.281zM6 12.984q0.422 0 0.703 0.305t0.281 0.727-0.281 0.703-0.703 0.281-0.703-0.281-0.281-0.703 0.281-0.727 0.703-0.305z"></path>
</svg>
