<!-- Generated by IcoMoon.io -->
<svg version="1.1" xmlns="http://www.w3.org/2000/svg" width="24" height="24" viewBox="0 0 24 24">
<title>border_left</title>
<path d="M15 5.016v-2.016h2.016v2.016h-2.016zM15 12.984v-1.969h2.016v1.969h-2.016zM18.984 21v-2.016h2.016v2.016h-2.016zM18.984 12.984v-1.969h2.016v1.969h-2.016zM18.984 3h2.016v2.016h-2.016v-2.016zM18.984 17.016v-2.016h2.016v2.016h-2.016zM15 21v-2.016h2.016v2.016h-2.016zM18.984 9v-2.016h2.016v2.016h-2.016zM3 21v-18h2.016v18h-2.016zM6.984 12.984v-1.969h2.016v1.969h-2.016zM6.984 5.016v-2.016h2.016v2.016h-2.016zM6.984 21v-2.016h2.016v2.016h-2.016zM11.016 12.984v-1.969h1.969v1.969h-1.969zM11.016 9v-2.016h1.969v2.016h-1.969zM11.016 5.016v-2.016h1.969v2.016h-1.969zM11.016 17.016v-2.016h1.969v2.016h-1.969zM11.016 21v-2.016h1.969v2.016h-1.969z"></path>
</svg>
