<!-- Generated by IcoMoon.io -->
<svg version="1.1" xmlns="http://www.w3.org/2000/svg" width="24" height="24" viewBox="0 0 24 24">
<title>brunch_dining</title>
<path d="M6.984 15.984v-1.969h4.031v1.969h4.5q0.469 0 0.469 0.516v0.984q0 0.516-0.469 0.516h-13.031q-0.469 0-0.469-0.516v-0.984q0-0.516 0.469-0.516h4.5zM18 15.891l-0.422-0.422q-0.656-0.703-1.125-1.875t-0.469-2.109v-9.469h6v9.516q0 2.297-1.5 3.938l-0.469 0.516v4.031h1.969v1.969h-3.984v-6.094zM15.516 21.984h-13.031q-0.469 0-0.469-0.469v-1.5h13.969v1.5q0 0.469-0.469 0.469zM18 8.016h2.016v-4.031h-2.016v4.031z"></path>
</svg>
