<!-- Generated by IcoMoon.io -->
<svg version="1.1" xmlns="http://www.w3.org/2000/svg" width="24" height="24" viewBox="0 0 24 24">
<title>cake</title>
<path d="M18 9q1.219 0 2.109 0.891t0.891 2.109v1.547q0 0.797-0.586 1.383t-1.383 0.586-1.359-0.563l-2.156-2.156-2.156 2.156q-0.563 0.563-1.383 0.563t-1.383-0.563l-2.109-2.156-2.156 2.156q-0.563 0.563-1.359 0.563t-1.383-0.586-0.586-1.383v-1.547q0-1.219 0.891-2.109t2.109-0.891h5.016v-2.016h1.969v2.016h5.016zM16.594 15.984q1.031 1.031 2.438 1.031 1.031 0 1.969-0.609v4.594q0 0.422-0.281 0.703t-0.703 0.281h-16.031q-0.422 0-0.703-0.281t-0.281-0.703v-4.594q0.891 0.609 1.969 0.609 1.406 0 2.438-1.031l1.078-1.078 1.078 1.078q0.984 0.984 2.438 0.984t2.438-0.984l1.078-1.078zM12 6q-0.797 0-1.406-0.609t-0.609-1.406q0-0.516 0.328-1.031l1.688-2.953 1.688 2.953q0.328 0.516 0.328 1.031 0 0.844-0.586 1.43t-1.43 0.586z"></path>
</svg>
