<!-- Generated by IcoMoon.io -->
<svg version="1.1" xmlns="http://www.w3.org/2000/svg" width="24" height="24" viewBox="0 0 24 24">
<title>camera_roll</title>
<path d="M20.016 9v-2.016h-2.016v2.016h2.016zM20.016 18v-2.016h-2.016v2.016h2.016zM15.984 9v-2.016h-1.969v2.016h1.969zM15.984 18v-2.016h-1.969v2.016h1.969zM12 9v-2.016h-2.016v2.016h2.016zM12 18v-2.016h-2.016v2.016h2.016zM14.016 5.016h7.969v15h-7.969q0 0.797-0.609 1.383t-1.406 0.586h-8.016q-0.797 0-1.383-0.586t-0.586-1.383v-15q0-0.797 0.586-1.406t1.383-0.609h1.031v-0.984q0-0.422 0.281-0.727t0.703-0.305h3.984q0.422 0 0.727 0.305t0.305 0.727v0.984h0.984q0.797 0 1.406 0.609t0.609 1.406z"></path>
</svg>
