<!-- Generated by IcoMoon.io -->
<svg version="1.1" xmlns="http://www.w3.org/2000/svg" width="24" height="24" viewBox="0 0 24 24">
<title>camera_front</title>
<path d="M6.984 2.016v10.5q0-1.125 1.711-1.828t3.305-0.703 3.305 0.703 1.711 1.828v-10.5h-10.031zM17.016 0q0.797 0 1.383 0.609t0.586 1.406v13.969q0 0.797-0.586 1.406t-1.383 0.609h-7.031l3 3-3 3v-2.016h-4.969v-1.969h4.969v-2.016h-3q-0.797 0-1.383-0.609t-0.586-1.406v-13.969q0-0.797 0.586-1.406t1.383-0.609h10.031zM12 8.016q-0.797 0-1.383-0.609t-0.586-1.406 0.586-1.406 1.383-0.609 1.406 0.609 0.609 1.406-0.609 1.406-1.406 0.609zM14.016 20.016h4.969v1.969h-4.969v-1.969z"></path>
</svg>
