<!-- Generated by IcoMoon.io -->
<svg version="1.1" xmlns="http://www.w3.org/2000/svg" width="24" height="24" viewBox="0 0 24 24">
<title>car_rental</title>
<path d="M8.016 5.016q0.422 0 0.703-0.305t0.281-0.727-0.281-0.703-0.703-0.281-0.727 0.281-0.305 0.703 0.305 0.727 0.727 0.305zM10.828 3h8.156v2.016h-0.984v1.969h-2.016v-1.969h-5.156q-0.703 1.969-2.813 1.969-1.219 0-2.109-0.891t-0.891-2.109 0.891-2.109 2.109-0.891q0.891 0 1.711 0.586t1.102 1.43zM6.281 14.016h11.438l-1.313-4.031h-8.766zM16.219 18q0.516 0 0.867-0.352t0.352-0.867-0.352-0.867-0.867-0.352-0.867 0.352-0.352 0.867 0.352 0.867 0.867 0.352zM7.781 18q0.516 0 0.867-0.352t0.352-0.867-0.352-0.867-0.867-0.352-0.867 0.352-0.352 0.867 0.352 0.867 0.867 0.352zM16.406 9q0.656 0 0.938 0.703l1.641 4.969v6.844q0 0.469-0.469 0.469h-1.031q-0.469 0-0.469-0.469v-1.5h-10.031v1.5q0 0.469-0.469 0.469h-1.031q-0.469 0-0.469-0.516v-6.797l1.641-4.969q0.234-0.703 0.938-0.703h8.813z"></path>
</svg>
