<!-- Generated by IcoMoon.io -->
<svg version="1.1" xmlns="http://www.w3.org/2000/svg" width="24" height="24" viewBox="0 0 24 24">
<title>car_repair</title>
<path d="M3.984 17.016h16.031v1.969h-7.031v3h-1.969v-3h-7.031v-1.969zM17.25 3.609q0.141 0.281 1.734 5.063v6.516q0 0.797-0.75 0.797h-0.469q-0.75 0-0.75-0.797v-1.172h-10.031v1.172q0 0.797-0.75 0.797h-0.469q-0.75 0-0.75-0.797v-6.516q1.359-4.031 1.547-4.688 0-0.047 0.094-0.164t0.094-0.211l0.047-0.047q0.188-0.234 0.422-0.375t0.375-0.188h8.672q0.563 0.047 0.938 0.563 0.047 0 0.047 0.047zM7.594 3.984l-1.313 4.031h11.438l-1.359-4.031h-8.766zM6.563 10.781q0 0.516 0.352 0.867t0.867 0.352 0.867-0.352 0.352-0.867-0.352-0.867-0.867-0.352-0.867 0.352-0.352 0.867zM16.219 12q0.516 0 0.867-0.352t0.352-0.867-0.352-0.867-0.867-0.352-0.867 0.352-0.352 0.867 0.352 0.867 0.867 0.352z"></path>
</svg>
