<!-- Generated by IcoMoon.io -->
<svg version="1.1" xmlns="http://www.w3.org/2000/svg" width="24" height="24" viewBox="0 0 24 24">
<title>cloud_circle</title>
<path d="M16.5 15.984q1.031 0 1.758-0.727t0.727-1.758-0.727-1.758-1.758-0.727h-0.516q0-1.641-1.172-2.836t-2.813-1.195q-1.266 0-2.391 0.891t-1.453 2.156l-0.141-0.047q-1.219 0-2.109 0.891t-0.891 2.109 0.891 2.109 2.109 0.891h8.484zM12 2.016q4.125 0 7.055 2.93t2.93 7.055-2.93 7.055-7.055 2.93-7.055-2.93-2.93-7.055 2.93-7.055 7.055-2.93z"></path>
</svg>
