<!-- Generated by IcoMoon.io -->
<svg version="1.1" xmlns="http://www.w3.org/2000/svg" width="24" height="24" viewBox="0 0 24 24">
<title>commute</title>
<path d="M20.016 15.984q0.422 0 0.703-0.281t0.281-0.703-0.281-0.703-0.703-0.281-0.727 0.281-0.305 0.703 0.305 0.703 0.727 0.281zM12 15.984q0.422 0 0.703-0.281t0.281-0.703-0.281-0.703-0.703-0.281-0.703 0.281-0.281 0.703 0.281 0.703 0.703 0.281zM12.422 9.984l-1.031 3h9.234l-1.031-3h-7.172zM20.578 9.656l1.406 4.125v5.484q0 0.281-0.211 0.516t-0.492 0.234h-0.609q-0.281 0-0.469-0.258t-0.188-0.539v-1.219h-8.016v1.219q0 0.281-0.211 0.539t-0.492 0.258h-0.609q-0.281 0-0.469-0.234t-0.188-0.516l-0.047-5.484 1.453-4.125q0.234-0.656 0.984-0.656h7.172q0.75 0 0.984 0.656zM5.016 14.016q-0.422 0-0.727 0.281t-0.305 0.703 0.305 0.703 0.727 0.281 0.703-0.281 0.281-0.703-0.281-0.703-0.703-0.281zM12 3.984q1.219 0 2.109 0.891t0.891 2.109v1.031h-2.016v-2.016h-9v6.984h5.016v5.016l-2.016-0.047-1.969 2.063h-1.031v-1.031l1.031-0.984q-1.219 0-2.109-0.891t-0.891-2.109v-8.016q0-1.219 0.891-2.109t2.109-0.891h6.984z"></path>
</svg>
