<!-- Generated by IcoMoon.io -->
<svg version="1.1" xmlns="http://www.w3.org/2000/svg" width="24" height="24" viewBox="0 0 24 24">
<title>connected_tv</title>
<path d="M3.984 8.016q3.328 0 5.672 2.344t2.344 5.625h-1.453q0-2.719-1.922-4.617t-4.641-1.898v-1.453zM3.984 11.016q2.063 0 3.539 1.453t1.477 3.516h-1.453q0-1.453-1.055-2.508t-2.508-1.055v-1.406zM3.984 14.016q0.844 0 1.43 0.563t0.586 1.406h-2.016v-1.969zM21 17.016v-12h-18v12h18zM21 3q0.797 0 1.406 0.609t0.609 1.406l-0.047 12q0 0.797-0.586 1.383t-1.383 0.586h-5.016v2.016h-7.969v-2.016h-5.016q-0.797 0-1.406-0.586t-0.609-1.383v-12q0-0.797 0.609-1.406t1.406-0.609h18z"></path>
</svg>
