<!-- Generated by IcoMoon.io -->
<svg version="1.1" xmlns="http://www.w3.org/2000/svg" width="24" height="24" viewBox="0 0 24 24">
<title>contactless</title>
<path d="M14.672 17.344q1.313-2.672 1.313-5.344 0-2.719-1.313-5.344l-1.359 0.703q1.172 2.297 1.172 4.641t-1.172 4.688zM11.531 16.031q0.984-1.734 0.984-3.891 0-2.203-0.984-4.078l-1.313 0.656q0.797 1.688 0.797 3.422 0 1.688-0.797 3.141zM8.438 14.438q0.563-1.219 0.563-2.484 0-1.125-0.563-2.391l-1.359 0.609q0.422 0.844 0.422 1.781 0 0.984-0.422 1.875zM12 2.016q4.125 0 7.055 2.93t2.93 7.055-2.93 7.055-7.055 2.93-7.055-2.93-2.93-7.055 2.93-7.055 7.055-2.93z"></path>
</svg>
