<!-- Generated by IcoMoon.io -->
<svg version="1.1" xmlns="http://www.w3.org/2000/svg" width="24" height="24" viewBox="0 0 24 24">
<title>d_rotation</title>
<path d="M12 0q4.688 0 8.133 3.164t3.82 7.805h-1.5q-0.234-2.766-1.852-5.016t-4.102-3.422l-1.359 1.313-3.797-3.797zM16.547 11.813q0-2.672-2.203-2.672h-0.938v5.766h0.891q1.688 0 2.156-1.594 0.094-0.328 0.094-1.125v-0.375zM14.344 8.016q2.484 0 3.375 2.203 0.234 0.563 0.234 1.594v0.375q0 1.781-0.984 2.766-1.031 1.031-2.672 1.031h-2.297v-7.969h2.344zM9.703 11.906q1.313 0.516 1.313 1.828 0 0.469-0.234 0.938-0.281 0.563-0.516 0.75-0.703 0.563-1.875 0.563-1.125 0-1.828-0.563t-0.703-1.641h1.266q0 0.516 0.352 0.844t0.914 0.328q1.313 0 1.313-1.266t-1.453-1.266h-0.75v-1.031h0.75q1.359 0 1.359-1.172t-1.219-1.172q-1.172 0-1.172 1.078h-1.313q0-0.797 0.703-1.5 0.75-0.609 1.781-0.609 1.125 0 1.805 0.563t0.68 1.641q0 1.172-1.172 1.688zM7.5 21.469l1.359-1.313 3.797 3.797-0.656 0.047q-4.688 0-8.133-3.188t-3.82-7.828h1.5q0.234 2.484 1.969 4.969t3.984 3.516z"></path>
</svg>
