<!-- Generated by IcoMoon.io -->
<svg version="1.1" xmlns="http://www.w3.org/2000/svg" width="24" height="24" viewBox="0 0 24 24">
<title>desktop_access_disabled</title>
<path d="M3 15.984h9.891l-9.891-9.891v9.891zM14.906 18h-0.891v2.016h1.969v1.969h-7.969v-1.969h1.969v-2.016h-6.984q-0.797 0-1.406-0.609t-0.609-1.406v-11.906l-0.984-0.984 1.219-1.313q1.125 1.125 7.125 7.078t9.141 9.141l4.734 4.688-1.313 1.313zM23.016 15.984q0 0.797-0.609 1.406t-1.406 0.609h-0.984l-2.016-2.016h3v-12h-15l-2.016-1.969h17.016q0.797 0 1.406 0.586t0.609 1.383v12z"></path>
</svg>
