<!-- Generated by IcoMoon.io -->
<svg version="1.1" xmlns="http://www.w3.org/2000/svg" width="24" height="24" viewBox="0 0 24 24">
<title>device_unknown</title>
<path d="M11.109 15.516h1.781v1.781h-1.781v-1.781zM12 6.703q1.5 0 2.508 1.008t1.008 2.461q0 1.172-1.313 2.344t-1.313 2.109h-1.781q0-0.984 0.398-1.664t0.914-0.984 0.914-0.773 0.398-1.031q0-0.703-0.516-1.219t-1.219-0.516-1.219 0.516-0.516 1.219h-1.781q0-1.453 1.008-2.461t2.508-1.008zM17.016 18.984v-13.969h-10.031v13.969h10.031zM17.016 0.984q0.797 0 1.383 0.609t0.586 1.406v18q0 0.797-0.586 1.406t-1.383 0.609h-10.031q-0.797 0-1.383-0.609t-0.586-1.406v-18q0-0.797 0.586-1.406t1.383-0.609h10.031z"></path>
</svg>
