<!-- Generated by IcoMoon.io -->
<svg version="1.1" xmlns="http://www.w3.org/2000/svg" width="24" height="24" viewBox="0 0 24 24">
<title>directions_walk</title>
<path d="M9.797 8.906l-2.813 14.109h2.109l1.828-8.016 2.063 2.016v6h2.016v-7.5l-2.109-2.016 0.609-3q2.156 2.484 5.484 2.484v-1.969q-2.906 0-4.266-2.438l-1.031-1.594q-0.703-0.984-1.688-0.984-0.141 0-0.398 0.047t-0.398 0.047l-5.203 2.203v4.688h2.016v-3.375l1.781-0.703zM13.5 5.484q-0.797 0-1.406-0.586t-0.609-1.383 0.609-1.406 1.406-0.609 1.406 0.609 0.609 1.406-0.609 1.383-1.406 0.586z"></path>
</svg>
