<!-- Generated by IcoMoon.io -->
<svg version="1.1" xmlns="http://www.w3.org/2000/svg" width="24" height="24" viewBox="0 0 24 24">
<title>domain_disabled</title>
<path d="M12 18.984h3.984l-1.969-1.969h-2.016v1.969zM9.984 15v-2.016h-1.969v2.016h1.969zM9.984 18.984v-1.969h-1.969v1.969h1.969zM6 11.016v-2.016h-2.016v2.016h2.016zM6 15v-2.016h-2.016v2.016h2.016zM6 18.984v-1.969h-2.016v1.969h2.016zM1.313 1.781l21 20.906-1.313 1.313-3-3h-15.984v-15.984l-1.922-1.922zM15.984 11.016h2.016v1.969h-2.016v-1.969zM8.016 5.016v0.891l-2.906-2.906h6.891v3.984h9.984v12.938l-1.969-2.016v-8.906h-8.016v0.891l-2.906-2.906h0.891v-1.969h-1.969z"></path>
</svg>
