<!-- Generated by IcoMoon.io -->
<svg version="1.1" xmlns="http://www.w3.org/2000/svg" width="24" height="24" viewBox="0 0 24 24">
<title>dynamic_feed</title>
<path d="M3.984 12v6.984h9v2.016h-9q-0.797 0-1.383-0.609t-0.586-1.406v-6.984h1.969zM20.016 11.016v-4.031h-8.016v4.031h8.016zM20.016 3q0.797 0 1.383 0.609t0.586 1.406v6q0 0.797-0.586 1.383t-1.383 0.586h-8.016q-0.797 0-1.406-0.586t-0.609-1.383v-6q0-0.797 0.609-1.406t1.406-0.609h8.016zM8.016 8.016v6.984h9v2.016h-9q-0.797 0-1.406-0.609t-0.609-1.406v-6.984h2.016z"></path>
</svg>
