<!-- Generated by IcoMoon.io -->
<svg version="1.1" xmlns="http://www.w3.org/2000/svg" width="24" height="24" viewBox="0 0 24 24">
<title>emoji_objects</title>
<path d="M12.516 11.391l1.828-1.781-0.703-0.75-1.641 1.641-1.641-1.641-0.703 0.75 1.828 1.781v2.625h1.031v-2.625zM14.016 17.016v-1.031h-4.031v1.031h4.031zM14.016 18.984v-0.984h-4.031v0.984h4.031zM12 3q2.906 0 4.945 2.039t2.039 4.945v0.047q0 1.313-0.68 2.836t-1.664 2.367q-0.656 0.563-0.656 1.453v2.297q0 0.797-0.586 1.406t-1.383 0.609h-0.281q-0.563 0.984-1.734 0.984t-1.734-0.984h-0.281q-0.797 0-1.383-0.609t-0.586-1.406v-2.297q0-0.891-0.656-1.453-2.953-2.625-2.25-6.563 0.375-2.063 1.898-3.609t3.586-1.922q0.703-0.141 1.406-0.141z"></path>
</svg>
