<!-- Generated by IcoMoon.io -->
<svg version="1.1" xmlns="http://www.w3.org/2000/svg" width="24" height="24" viewBox="0 0 24 24">
<title>explore_off</title>
<path d="M21.984 12q0 0.656-0.047 0.938v0.281q0 0.234-0.094 0.609 0 0.141-0.094 0.328l-0.141 0.563q-0.047 0.047-0.047 0.164t-0.047 0.164q-0.047 0.141-0.141 0.398t-0.141 0.352q-0.094 0.281-0.328 0.75l-0.164 0.328t-0.211 0.328q-0.047 0.047-0.164 0.234t-0.164 0.234l-5.203-5.203 3-6.469-6.469 3-5.203-5.203q0.047-0.047 0.234-0.164t0.234-0.164q0.047 0 0.141-0.094 0.094 0 0.094-0.047l0.188-0.094t0.164-0.094 0.188-0.094 0.211-0.094 0.234-0.141 0.234-0.094q0.094-0.047 0.328-0.117t0.375-0.117l0.328-0.094 0.563-0.141q0.141 0 0.328-0.094 0.375-0.094 0.609-0.094h0.328q0.141 0 0.422-0.023t0.469-0.023q4.125 0 7.055 2.93t2.93 7.055zM6 18l6.469-3-3.469-3.469zM2.25 2.25l19.5 19.5-1.313 1.266-2.766-2.813q-0.047 0.047-0.234 0.164t-0.234 0.164q-0.047 0-0.141 0.094-0.094 0-0.094 0.047-0.469 0.328-1.219 0.563l-0.703 0.281q-0.047 0.047-0.164 0.047t-0.164 0.047l-0.563 0.141q-0.188 0.094-0.328 0.094-0.375 0.094-0.609 0.094h-0.281q-0.281 0.047-0.938 0.047-4.125 0-7.055-2.93t-2.93-7.055q0-0.609 0.047-0.891v-0.328q0-0.234 0.094-0.609 0.094-0.188 0.094-0.328l0.141-0.563 0.094-0.328q0.047-0.141 0.117-0.375t0.117-0.328q0-0.047 0.094-0.211t0.141-0.258l0.375-0.75q0.047 0 0.094-0.094t0.047-0.141q0.047-0.047 0.164-0.234t0.164-0.234l-2.813-2.766z"></path>
</svg>
