<!-- Generated by IcoMoon.io -->
<svg version="1.1" xmlns="http://www.w3.org/2000/svg" width="24" height="24" viewBox="0 0 24 24">
<title>exposure_minus_2</title>
<path d="M2.016 11.016h7.969v1.969h-7.969v-1.969zM15.047 16.313h5.953v1.688h-8.625v-1.5l4.172-4.547q0.844-0.844 1.453-1.875 0.328-0.563 0.328-1.313 0-0.609-0.094-0.844-0.469-1.219-1.781-1.219-2.156 0-2.156 2.297h-2.156q0-1.688 1.125-2.813 1.172-1.172 3.188-1.172h0.094q2.766 0 3.703 2.063 0.234 0.516 0.234 1.453 0 0.656-0.188 1.172-0.328 0.891-0.516 1.172-0.797 1.266-1.875 2.344z"></path>
</svg>
