<!-- Generated by IcoMoon.io -->
<svg version="1.1" xmlns="http://www.w3.org/2000/svg" width="24" height="24" viewBox="0 0 24 24">
<title>exposure_zero</title>
<path d="M14.016 10.125q0-1.875-0.516-2.672-0.188-0.281-0.656-0.563-0.328-0.188-0.844-0.188t-0.844 0.188q-0.469 0.281-0.656 0.563-0.516 0.797-0.516 2.672v2.672q0 2.625 1.172 3.328 0.328 0.188 0.844 0.188 0.984 0 1.5-0.797 0.563-0.844 0.563-2.719v-2.672h-0.047zM7.875 10.453q0-5.438 4.125-5.438 3.047 0 3.844 2.906 0.328 1.219 0.328 2.531v2.063h-0.047q0 2.766-1.125 4.219-0.656 0.75-1.313 0.984-0.75 0.281-1.688 0.281t-1.688-0.281q-0.656-0.234-1.313-0.984-1.125-1.266-1.125-4.219v-2.063z"></path>
</svg>
