<!-- Generated by IcoMoon.io -->
<svg version="1.1" xmlns="http://www.w3.org/2000/svg" width="24" height="24" viewBox="0 0 24 24">
<title>exposure_plus_2</title>
<path d="M8.016 6.984v4.031h3.984v1.969h-3.984v4.031h-2.016v-4.031h-3.984v-1.969h3.984v-4.031h2.016zM16.031 16.313h5.953v1.688h-8.625v-1.5l4.172-4.547q0.844-0.844 1.453-1.875 0.375-0.609 0.375-1.313 0-0.75-0.516-1.453-0.469-0.609-1.406-0.609-0.984 0-1.641 0.656-0.516 0.516-0.516 1.641h-2.156q0-1.688 1.125-2.813 0.656-0.656 1.359-0.891 0.844-0.281 1.875-0.281h0.047q2.766 0 3.703 2.063 0.281 0.609 0.281 1.453 0 1.125-0.75 2.344-0.563 0.938-0.797 1.172-0.656 0.75-1.078 1.172z"></path>
</svg>
