<!-- Generated by IcoMoon.io -->
<svg version="1.1" xmlns="http://www.w3.org/2000/svg" width="24" height="24" viewBox="0 0 24 24">
<title>filter_vintage</title>
<path d="M12 15.984q1.641 0 2.813-1.172t1.172-2.813-1.172-2.813-2.813-1.172-2.813 1.172-1.172 2.813 1.172 2.813 2.813 1.172zM14.906 6.938q1.641-1.313 3.797-1.313 1.594 0 3 0.797 0 1.453-0.891 2.953t-2.109 2.203q-0.094 0.047-0.258 0.141t-0.305 0.164-0.281 0.117q0.422 0.188 0.844 0.422 1.219 0.703 2.109 2.203t0.891 2.953q-1.406 0.797-3 0.797-2.156 0-3.797-1.313 0.094 0.656 0.094 0.938 0 1.641-0.82 3.023t-2.18 2.18q-1.359-0.797-2.18-2.18t-0.82-3.023q0-0.281 0.094-0.938-1.641 1.313-3.797 1.313-1.594 0-3-0.797 0-1.734 1.125-3.398t2.719-2.18l-0.844-0.422q-1.219-0.703-2.109-2.203t-0.891-2.953q1.5-0.844 3-0.844 2.109 0 3.797 1.359-0.094-0.656-0.094-0.938 0-1.641 0.82-3.023t2.18-2.18q1.359 0.797 2.18 2.18t0.82 3.023q0 0.281-0.094 0.938z"></path>
</svg>
