<!-- Generated by IcoMoon.io -->
<svg version="1.1" xmlns="http://www.w3.org/2000/svg" width="24" height="24" viewBox="0 0 24 24">
<title>filter_9_plus</title>
<path d="M21 9v-6h-14.016v14.016h14.016v-6h-2.016v1.969h-1.969v-1.969h-2.016v-2.016h2.016v-2.016h1.969v2.016h2.016zM21 0.984q0.797 0 1.406 0.609t0.609 1.406v14.016q0 0.797-0.609 1.383t-1.406 0.586h-14.016q-0.797 0-1.383-0.586t-0.586-1.383v-14.016q0-0.797 0.586-1.406t1.383-0.609h14.016zM11.016 9h0.984v-0.984h-0.984v0.984zM14.016 12q0 0.844-0.586 1.43t-1.43 0.586h-3v-2.016h3v-0.984h-0.984q-0.844 0-1.43-0.586t-0.586-1.43v-0.984q0-0.844 0.586-1.43t1.43-0.586h0.984q0.844 0 1.43 0.586t0.586 1.43v3.984zM3 5.016v15.984h15.984v2.016h-15.984q-0.797 0-1.406-0.609t-0.609-1.406v-15.984h2.016z"></path>
</svg>
