<!-- Generated by IcoMoon.io -->
<svg version="1.1" xmlns="http://www.w3.org/2000/svg" width="24" height="24" viewBox="0 0 24 24">
<title>filter_drama</title>
<path d="M18.984 18q1.219 0 2.109-0.891t0.891-2.109-0.891-2.109-2.109-0.891h-1.5v-0.516q0-2.297-1.594-3.891t-3.891-1.594q-2.719 0-4.406 2.203 1.922 0.516 3.164 2.133t1.242 3.68h-2.016q0-1.641-1.172-2.836t-2.813-1.195-2.813 1.195-1.172 2.836 1.172 2.813 2.813 1.172h12.984zM19.359 10.031q1.922 0.141 3.281 1.57t1.359 3.398q0 2.063-1.477 3.539t-3.539 1.477h-12.984q-2.484 0-4.242-1.758t-1.758-4.242q0-2.203 1.57-3.961t3.773-1.992q0.891-1.688 2.836-2.883t3.82-1.195q2.531 0 4.711 1.781t2.648 4.266z"></path>
</svg>
