<!-- Generated by IcoMoon.io -->
<svg version="1.1" xmlns="http://www.w3.org/2000/svg" width="24" height="24" viewBox="0 0 24 24">
<title>filter_1</title>
<path d="M21 17.016v-14.016h-14.016v14.016h14.016zM21 0.984q0.797 0 1.406 0.609t0.609 1.406v14.016q0 0.797-0.609 1.383t-1.406 0.586h-14.016q-0.797 0-1.383-0.586t-0.586-1.383v-14.016q0-0.797 0.586-1.406t1.383-0.609h14.016zM14.016 15v-8.016h-2.016v-1.969h3.984v9.984h-1.969zM3 5.016v15.984h15.984v2.016h-15.984q-0.797 0-1.406-0.609t-0.609-1.406v-15.984h2.016z"></path>
</svg>
