<!-- Generated by IcoMoon.io -->
<svg version="1.1" xmlns="http://www.w3.org/2000/svg" width="24" height="24" viewBox="0 0 24 24">
<title>fit_screen</title>
<path d="M18 8.016v7.969h-12v-7.969h12zM6.984 18v2.016h-3q-0.797 0-1.383-0.609t-0.586-1.406v-2.016h1.969v2.016h3zM20.016 15.984h1.969v2.016q0 0.797-0.586 1.406t-1.383 0.609h-3v-2.016h3v-2.016zM3.984 8.016h-1.969v-2.016q0-0.797 0.586-1.406t1.383-0.609h3v2.016h-3v2.016zM17.016 3.984h3q0.797 0 1.383 0.609t0.586 1.406v2.016h-1.969v-2.016h-3v-2.016z"></path>
</svg>
