<!-- Generated by IcoMoon.io -->
<svg version="1.1" xmlns="http://www.w3.org/2000/svg" width="24" height="24" viewBox="0 0 24 24">
<title>flare</title>
<path d="M11.016 23.016v-6h1.969v6h-1.969zM5.625 16.969l2.156-2.156 1.406 1.406-2.156 2.156zM14.813 16.219l1.406-1.406 2.156 2.156-1.406 1.406zM12 9q1.219 0 2.109 0.891t0.891 2.109-0.891 2.109-2.109 0.891-2.109-0.891-0.891-2.109 0.891-2.109 2.109-0.891zM17.016 11.016h6v1.969h-6v-1.969zM18.375 7.031l-2.156 2.156-1.406-1.406 2.156-2.156zM12.984 0.984v6h-1.969v-6h1.969zM9.188 7.781l-1.406 1.406-2.156-2.156 1.406-1.406zM6.984 11.016v1.969h-6v-1.969h6z"></path>
</svg>
