<!-- Generated by IcoMoon.io -->
<svg version="1.1" xmlns="http://www.w3.org/2000/svg" width="24" height="24" viewBox="0 0 24 24">
<title>gps_offlocation_disabled</title>
<path d="M16.266 17.531l-9.797-9.797q-0.609 0.797-1.031 2.039t-0.422 2.227q0 2.906 2.039 4.945t4.945 2.039q0.984 0 2.227-0.422t2.039-1.031zM3 4.266l1.266-1.266 16.734 16.734-1.266 1.266-2.063-2.063q-2.109 1.734-4.688 2.016v2.063h-1.969v-2.063q-2.953-0.328-5.297-2.672t-2.672-5.297h-2.063v-1.969h2.063q0.094-1.078 0.703-2.461t1.313-2.227zM20.953 11.016h2.063v1.969h-2.063q-0.234 1.828-0.984 3.188l-1.5-1.5q0.516-1.266 0.516-2.672 0-2.906-2.039-4.945t-4.945-2.039q-1.406 0-2.672 0.516l-1.5-1.5q1.453-0.75 3.188-0.984v-2.063h1.969v2.063q2.953 0.328 5.297 2.672t2.672 5.297z"></path>
</svg>
