<!-- Generated by IcoMoon.io -->
<svg version="1.1" xmlns="http://www.w3.org/2000/svg" width="24" height="24" viewBox="0 0 24 24">
<title>gradient</title>
<path d="M18.984 11.016v-6h-13.969v6h1.969v1.969h2.016v2.016h2.016v-2.016h1.969v2.016h2.016v-2.016h2.016v-1.969h1.969zM17.016 18v-2.016h-2.016v2.016h2.016zM12.984 18v-2.016h-1.969v2.016h1.969zM9 18v-2.016h-2.016v2.016h2.016zM18.984 3q0.797 0 1.406 0.609t0.609 1.406v13.969q0 0.797-0.609 1.406t-1.406 0.609h-13.969q-0.797 0-1.406-0.609t-0.609-1.406v-13.969q0-0.797 0.609-1.406t1.406-0.609h13.969zM6.984 9h2.016v2.016h-2.016v-2.016zM15 9h2.016v2.016h-2.016v-2.016zM11.016 9h1.969v2.016h2.016v1.969h-2.016v-1.969h-1.969v1.969h-2.016v-1.969h2.016v-2.016zM17.016 12.984v2.016h1.969v-2.016h-1.969zM6.984 12.984h-1.969v2.016h1.969v-2.016z"></path>
</svg>
