<!-- Generated by IcoMoon.io -->
<svg version="1.1" xmlns="http://www.w3.org/2000/svg" width="24" height="24" viewBox="0 0 24 24">
<title>grain</title>
<path d="M9.984 3.984q0.797 0 1.406 0.609t0.609 1.406-0.609 1.406-1.406 0.609-1.383-0.609-0.586-1.406 0.586-1.406 1.383-0.609zM14.016 8.016q0.797 0 1.383 0.586t0.586 1.383-0.586 1.406-1.383 0.609-1.406-0.609-0.609-1.406 0.609-1.383 1.406-0.586zM18 12q0.797 0 1.406 0.609t0.609 1.406-0.609 1.383-1.406 0.586-1.406-0.586-0.609-1.383 0.609-1.406 1.406-0.609zM14.016 15.984q0.797 0 1.383 0.609t0.586 1.406-0.586 1.406-1.383 0.609-1.406-0.609-0.609-1.406 0.609-1.406 1.406-0.609zM18 8.016q-0.797 0-1.406-0.609t-0.609-1.406 0.609-1.406 1.406-0.609 1.406 0.609 0.609 1.406-0.609 1.406-1.406 0.609zM6 15.984q0.797 0 1.406 0.609t0.609 1.406-0.609 1.406-1.406 0.609-1.406-0.609-0.609-1.406 0.609-1.406 1.406-0.609zM6 8.016q0.797 0 1.406 0.586t0.609 1.383-0.609 1.406-1.406 0.609-1.406-0.609-0.609-1.406 0.609-1.383 1.406-0.586zM9.984 12q0.797 0 1.406 0.609t0.609 1.406-0.609 1.383-1.406 0.586-1.383-0.586-0.586-1.383 0.586-1.406 1.383-0.609z"></path>
</svg>
