<!-- Generated by IcoMoon.io -->
<svg version="1.1" xmlns="http://www.w3.org/2000/svg" width="24" height="24" viewBox="0 0 24 24">
<title>grid_on</title>
<path d="M20.016 8.016v-4.031h-4.031v4.031h4.031zM20.016 14.016v-4.031h-4.031v4.031h4.031zM20.016 20.016v-4.031h-4.031v4.031h4.031zM14.016 8.016v-4.031h-4.031v4.031h4.031zM14.016 14.016v-4.031h-4.031v4.031h4.031zM14.016 20.016v-4.031h-4.031v4.031h4.031zM8.016 8.016v-4.031h-4.031v4.031h4.031zM8.016 14.016v-4.031h-4.031v4.031h4.031zM8.016 20.016v-4.031h-4.031v4.031h4.031zM20.016 2.016q0.797 0 1.383 0.586t0.586 1.383v16.031q0 0.797-0.586 1.383t-1.383 0.586h-16.031q-0.797 0-1.383-0.586t-0.586-1.383v-16.031q0-0.797 0.586-1.383t1.383-0.586h16.031z"></path>
</svg>
