<!-- Generated by IcoMoon.io -->
<svg version="1.1" xmlns="http://www.w3.org/2000/svg" width="24" height="24" viewBox="0 0 24 24">
<title>hot_tub</title>
<path d="M14.672 5.859q1.547 1.5 1.266 3.703l-0.047 0.422h-1.922l0.141-0.563q0.234-1.266-0.75-2.25-1.594-1.594-1.313-3.75l0.047-0.422h1.922l-0.094 0.609q-0.234 1.266 0.656 2.203zM18.656 5.859q1.594 1.547 1.313 3.703l-0.094 0.422h-1.875l0.094-0.563q0.234-1.266-0.656-2.203l-0.094-0.047q-1.594-1.594-1.313-3.75l0.094-0.422h1.875l-0.094 0.609q-0.234 1.266 0.656 2.203zM18.984 20.016v-6h-1.969v6h1.969zM15 20.016v-6h-2.016v6h2.016zM11.016 20.016v-6h-2.016v6h2.016zM6.984 20.016v-6h-1.969v6h1.969zM11.156 12h10.828v8.016q0 0.797-0.586 1.383t-1.383 0.586h-16.031q-0.797 0-1.383-0.586t-0.586-1.383v-8.016h3v-0.75q0-0.938 0.68-1.594t1.57-0.656q0.938 0 1.688 0.75l1.359 1.547q0.188 0.234 0.844 0.703zM5.016 6q0-0.844 0.563-1.43t1.406-0.586 1.43 0.586 0.586 1.43-0.586 1.43-1.43 0.586-1.406-0.586-0.563-1.43z"></path>
</svg>
