<!-- Generated by IcoMoon.io -->
<svg version="1.1" xmlns="http://www.w3.org/2000/svg" width="24" height="24" viewBox="0 0 24 24">
<title>image_aspect_ratio</title>
<path d="M20.016 18v-12h-16.031v12h16.031zM20.016 3.984q0.797 0 1.383 0.609t0.586 1.406v12q0 0.797-0.586 1.406t-1.383 0.609h-16.031q-0.797 0-1.383-0.609t-0.586-1.406v-12q0-0.797 0.586-1.406t1.383-0.609h16.031zM12 9.984v2.016h-2.016v-2.016h2.016zM8.016 9.984v2.016h-2.016v-2.016h2.016zM15.984 14.016v1.969h-1.969v-1.969h1.969zM15.984 9.984v2.016h-1.969v-2.016h1.969z"></path>
</svg>
