<!-- Generated by IcoMoon.io -->
<svg version="1.1" xmlns="http://www.w3.org/2000/svg" width="24" height="24" viewBox="0 0 24 24">
<title>important_devices</title>
<path d="M11.953 9h3.047l-2.484 1.781 0.938 2.906-2.438-1.828-2.484 1.828 0.938-2.906-2.484-1.781h3.047l0.984-3zM20.016 2.016q0.844 0 1.406 0.563t0.563 1.406v5.016h-1.969v-5.016h-18v12h12.984v2.016h-2.016v2.016h2.016v1.969h-8.016v-1.969h2.016v-2.016h-6.984q-0.844 0-1.43-0.586t-0.586-1.43v-12q0-0.844 0.586-1.406t1.43-0.563h18zM23.016 20.016v-7.031h-5.016v7.031h5.016zM23.016 11.016q0.422 0 0.703 0.281t0.281 0.703v9q0 0.422-0.281 0.703t-0.703 0.281h-5.016q-0.422 0-0.703-0.281t-0.281-0.703v-9q0-0.422 0.281-0.703t0.703-0.281h5.016z"></path>
</svg>
