<!-- Generated by IcoMoon.io -->
<svg version="1.1" xmlns="http://www.w3.org/2000/svg" width="24" height="24" viewBox="0 0 24 24">
<title>invert_colors_off</title>
<path d="M12 5.109l-2.297 2.25-1.406-1.406 3.703-3.703 5.672 5.672q1.781 1.781 2.203 4.289t-0.609 4.711l-7.266-7.219v-4.594zM12 19.594v-4.828l-4.781-4.781q-1.219 1.594-1.219 3.609 0 1.031 0.516 2.25t1.266 1.969q1.781 1.781 4.219 1.781zM20.672 20.859l0.328 0.375-1.266 1.266-2.719-2.719q-2.203 1.781-5.016 1.781-1.359 0-3.023-0.68t-2.648-1.664-1.664-2.625-0.68-3q0-1.172 0.516-2.672t1.266-2.391l-2.766-2.766 1.266-1.266q14.016 14.016 16.406 16.359z"></path>
</svg>
