<!-- Generated by IcoMoon.io -->
<svg version="1.1" xmlns="http://www.w3.org/2000/svg" width="24" height="24" viewBox="0 0 24 24">
<title>k_plus3</title>
<path d="M20.016 12.516v-1.031h-1.5v-1.5h-1.031v1.5h-1.5v1.031h1.5v1.5h1.031v-1.5h1.5zM15.984 15l-2.25-3 2.25-3h-1.734l-1.734 2.25v-2.25h-1.5v6h1.5v-2.25l1.734 2.25h1.734zM10.5 13.5v-1.5h-0.984v-3h-1.5v3h-1.5v-3h-1.5v4.5h3v1.5h1.5v-1.5h0.984zM18.984 3q0.797 0 1.406 0.609t0.609 1.406v13.969q0 0.797-0.609 1.406t-1.406 0.609h-13.969q-0.797 0-1.406-0.609t-0.609-1.406v-13.969q0-0.797 0.609-1.406t1.406-0.609h13.969z"></path>
</svg>
