<!-- Generated by IcoMoon.io -->
<svg version="1.1" xmlns="http://www.w3.org/2000/svg" width="24" height="24" viewBox="0 0 24 24">
<title>laptop_mac</title>
<path d="M12 18.984q0.422 0 0.703-0.281t0.281-0.703-0.281-0.703-0.703-0.281-0.703 0.281-0.281 0.703 0.281 0.703 0.703 0.281zM3.984 5.016v10.969h16.031v-10.969h-16.031zM20.016 18h3.984q0 0.797-0.609 1.406t-1.406 0.609h-19.969q-0.797 0-1.406-0.609t-0.609-1.406h3.984q-0.797 0-1.383-0.609t-0.586-1.406v-10.969q0-0.797 0.586-1.406t1.383-0.609h16.031q0.797 0 1.383 0.609t0.586 1.406v10.969q0 0.797-0.586 1.406t-1.383 0.609z"></path>
</svg>
