<!-- Generated by IcoMoon.io -->
<svg version="1.1" xmlns="http://www.w3.org/2000/svg" width="24" height="24" viewBox="0 0 24 24">
<title>liquor</title>
<path d="M20.016 20.016v-2.016h-7.031v2.016h7.031zM12.984 10.453v1.547h7.031v-1.547l-0.984-0.328q-0.844-0.281-1.43-1.125t-0.586-1.734v-0.281h-1.031v0.281q0 2.156-2.016 2.859zM15.984 3.984v1.031h1.031v-1.031h-1.031zM20.625 8.531q1.359 0.469 1.359 1.922v9.563q0 0.797-0.586 1.383t-1.383 0.586h-7.031q-0.797 0-1.383-0.586t-0.586-1.383v-9.563q0-1.453 1.359-1.922l0.938-0.281q0.703-0.234 0.703-0.984v-4.266q0-0.422 0.281-0.703t0.703-0.281h3q0.422 0 0.703 0.281t0.281 0.703v4.266q0 0.656 0.703 0.938zM5.016 8.016v3h1.969v-3h-1.969zM3 14.016v-8.016h6v8.016q0 0.984-0.563 1.734t-1.453 1.078v3.188h2.016v1.969h-6v-1.969h2.016v-3.188q-0.891-0.328-1.453-1.078t-0.563-1.734z"></path>
</svg>
