<!-- Generated by IcoMoon.io -->
<svg version="1.1" xmlns="http://www.w3.org/2000/svg" width="24" height="24" viewBox="0 0 24 24">
<title>location_history</title>
<path d="M12 18.281q1.641 0 3.375-0.938t2.625-2.25q-0.047-1.313-2.109-2.203t-3.891-0.891-3.891 0.867-2.109 2.227q0.891 1.313 2.625 2.25t3.375 0.938zM12 3.984q-1.219 0-2.109 0.891t-0.891 2.109 0.891 2.109 2.109 0.891 2.109-0.891 0.891-2.109-0.891-2.109-2.109-0.891zM12 2.016q3.75 0 6.375 2.648t2.625 6.352q0 3.094-1.898 5.484t-4.805 3.188l-2.297 2.297-2.297-2.297q-2.906-0.797-4.805-3.188t-1.898-5.484q0-3.703 2.625-6.352t6.375-2.648z"></path>
</svg>
