<!-- Generated by IcoMoon.io -->
<svg version="1.1" xmlns="http://www.w3.org/2000/svg" width="24" height="24" viewBox="0 0 24 24">
<title>location_city</title>
<path d="M18.984 15v-2.016h-1.969v2.016h1.969zM18.984 18.984v-1.969h-1.969v1.969h1.969zM12.984 6.984v-1.969h-1.969v1.969h1.969zM12.984 11.016v-2.016h-1.969v2.016h1.969zM12.984 15v-2.016h-1.969v2.016h1.969zM12.984 18.984v-1.969h-1.969v1.969h1.969zM6.984 11.016v-2.016h-1.969v2.016h1.969zM6.984 15v-2.016h-1.969v2.016h1.969zM6.984 18.984v-1.969h-1.969v1.969h1.969zM15 11.016h6v9.984h-18v-14.016h6v-1.969l3-3 3 3v6z"></path>
</svg>
