<!-- Generated by IcoMoon.io -->
<svg version="1.1" xmlns="http://www.w3.org/2000/svg" width="24" height="24" viewBox="0 0 24 24">
<title>local_mall</title>
<path d="M12 12.984q2.063 0 3.539-1.453t1.477-3.516h-2.016q0 1.219-0.891 2.109t-2.109 0.891-2.109-0.891-0.891-2.109h-2.016q0 2.063 1.477 3.516t3.539 1.453zM12 3q-1.219 0-2.109 0.891t-0.891 2.109h6q0-1.219-0.891-2.109t-2.109-0.891zM18.984 6q0.797 0 1.406 0.609t0.609 1.406v12q0 0.797-0.609 1.383t-1.406 0.586h-13.969q-0.797 0-1.406-0.586t-0.609-1.383v-12q0-0.797 0.609-1.406t1.406-0.609h1.969q0-2.063 1.477-3.539t3.539-1.477 3.539 1.477 1.477 3.539h1.969z"></path>
</svg>
