<!-- Generated by IcoMoon.io -->
<svg version="1.1" xmlns="http://www.w3.org/2000/svg" width="24" height="24" viewBox="0 0 24 24">
<title>local_car_wash</title>
<path d="M5.016 12.984h13.969l-1.5-4.5h-10.969zM17.484 18q0.609 0 1.055-0.422t0.445-1.078-0.445-1.078-1.055-0.422-1.055 0.422-0.445 1.078 0.445 1.078 1.055 0.422zM6.516 18q0.609 0 1.055-0.422t0.445-1.078-0.445-1.078-1.055-0.422-1.055 0.422-0.445 1.078 0.445 1.078 1.055 0.422zM18.938 8.016l2.063 6v7.969q0 0.422-0.281 0.727t-0.703 0.305h-1.031q-0.422 0-0.703-0.305t-0.281-0.727v-0.984h-12v0.984q0 0.422-0.281 0.727t-0.703 0.305h-1.031q-0.422 0-0.703-0.305t-0.281-0.727v-7.969l2.063-6q0.328-1.031 1.453-1.031h10.969q1.125 0 1.453 1.031zM6.984 5.016q-0.609 0-1.055-0.445t-0.445-1.055q0-0.422 0.375-1.102t0.75-1.148l0.375-0.469q1.5 1.734 1.5 2.719 0 0.609-0.445 1.055t-1.055 0.445zM12 5.016q-0.656 0-1.078-0.445t-0.422-1.055q0-0.422 0.375-1.102t0.75-1.148l0.375-0.469q1.5 1.734 1.5 2.719 0 0.609-0.422 1.055t-1.078 0.445zM17.016 5.016q-0.609 0-1.055-0.445t-0.445-1.055q0-0.422 0.375-1.102t0.75-1.148l0.375-0.469q1.5 1.734 1.5 2.719 0 0.609-0.445 1.055t-1.055 0.445z"></path>
</svg>
