<!-- Generated by IcoMoon.io -->
<svg version="1.1" xmlns="http://www.w3.org/2000/svg" width="24" height="24" viewBox="0 0 24 24">
<title>location_off</title>
<path d="M11.719 11.484q5.109 5.063 8.297 8.25l-1.266 1.266-3.375-3.328q-0.75 1.125-1.594 2.203t-1.313 1.594l-0.469 0.516q-0.281-0.328-0.75-0.867t-1.688-2.156-2.133-3.141-1.664-3.445-0.75-3.375q0-0.516 0.188-1.547l-3.188-3.188 1.266-1.266 8.344 8.344zM12 6.516q-1.078 0-1.828 0.844l-3.234-3.188q0.844-0.891 2.344-1.523t2.719-0.633q2.906 0 4.945 2.039t2.039 4.945q0 2.25-1.688 5.484l-3.609-3.656q0.797-0.703 0.797-1.828 0-1.031-0.727-1.758t-1.758-0.727z"></path>
</svg>
