<!-- Generated by IcoMoon.io -->
<svg version="1.1" xmlns="http://www.w3.org/2000/svg" width="24" height="24" viewBox="0 0 24 24">
<title>loyalty</title>
<path d="M17.25 15.281q0.75-0.75 0.75-1.781t-0.727-1.758-1.758-0.727q-1.078 0-1.781 0.703l-0.75 0.75-0.703-0.75q-0.703-0.703-1.781-0.703-1.031 0-1.758 0.727t-0.727 1.758q0 1.078 0.703 1.781l4.266 4.266zM5.484 6.984q0.609 0 1.055-0.445t0.445-1.055-0.445-1.055-1.055-0.445-1.055 0.445-0.445 1.055 0.445 1.055 1.055 0.445zM21.422 11.578q0.563 0.563 0.563 1.406t-0.563 1.406l-7.031 7.031q-0.563 0.563-1.406 0.563t-1.406-0.563l-9-9q-0.563-0.563-0.563-1.406v-7.031q0-0.797 0.586-1.383t1.383-0.586h7.031q0.844 0 1.406 0.563z"></path>
</svg>
