<!-- Generated by IcoMoon.io -->
<svg version="1.1" xmlns="http://www.w3.org/2000/svg" width="24" height="24" viewBox="0 0 24 24">
<title>money_off</title>
<path d="M5.344 4.078l14.578 14.625-1.266 1.266-2.203-2.25q-0.891 0.797-2.438 1.125v2.156h-3v-2.156q-1.547-0.328-2.578-1.313t-1.125-2.531h2.203q0.188 2.109 3 2.109 1.734 0 2.391-0.938l-3.516-3.469q-3.891-1.172-3.891-3.938l-3.422-3.422zM12.516 6.891q-0.891 0-1.547 0.281l-1.453-1.453q0.656-0.328 1.5-0.563v-2.156h3v2.203q1.5 0.375 2.32 1.406t0.867 2.391h-2.203q-0.094-2.109-2.484-2.109z"></path>
</svg>
