<!-- Generated by IcoMoon.io -->
<svg version="1.1" xmlns="http://www.w3.org/2000/svg" width="24" height="24" viewBox="0 0 24 24">
<title>money</title>
<path d="M3.984 18h16.031v-12h-16.031v12zM2.016 3.984h19.969v16.031h-19.969v-16.031zM17.016 14.016v-4.031h-1.031v4.031h1.031zM18 8.016q0.422 0 0.703 0.281t0.281 0.703v6q0 0.422-0.281 0.703t-0.703 0.281h-3q-0.422 0-0.703-0.281t-0.281-0.703v-6q0-0.422 0.281-0.703t0.703-0.281h3zM11.016 14.016v-4.031h-1.031v4.031h1.031zM12 8.016q0.422 0 0.703 0.281t0.281 0.703v6q0 0.422-0.281 0.703t-0.703 0.281h-3q-0.422 0-0.703-0.281t-0.281-0.703v-6q0-0.422 0.281-0.703t0.703-0.281h3zM5.016 8.016h1.969v7.969h-1.969v-7.969z"></path>
</svg>
