<!-- Generated by IcoMoon.io -->
<svg version="1.1" xmlns="http://www.w3.org/2000/svg" width="24" height="24" viewBox="0 0 24 24">
<title>mp18</title>
<path d="M15.516 14.016h1.5v1.5h-1.5v-1.5zM14.484 6.984v-1.5h-4.5v3.516h3v0.984h-3v1.5h3.516q0.422 0 0.703-0.281t0.281-0.703v-1.5q0-0.422-0.281-0.703t-0.703-0.281h-2.016v-1.031h3zM15.516 18.516v-1.5h1.969q0.422 0 0.727-0.305t0.305-0.727v-2.484q0-0.422-0.305-0.703t-0.727-0.281h-3.469v6h1.5zM12 18.516v-5.016q0-0.422-0.281-0.703t-0.703-0.281h-4.5q-0.422 0-0.727 0.281t-0.305 0.703v5.016h1.5v-4.5h1.031v3h1.5v-3h0.984v4.5h1.5zM18.984 3q0.797 0 1.406 0.609t0.609 1.406v13.969q0 0.797-0.609 1.406t-1.406 0.609h-13.969q-0.797 0-1.406-0.609t-0.609-1.406v-13.969q0-0.797 0.609-1.406t1.406-0.609h13.969z"></path>
</svg>
