<!-- Generated by IcoMoon.io -->
<svg version="1.1" xmlns="http://www.w3.org/2000/svg" width="24" height="24" viewBox="0 0 24 24">
<title>nights_stay</title>
<path d="M6.984 15.984q0.797 0 1.406 0.609t0.609 1.406-0.609 1.406-1.406 0.609h-3q-1.219 0-2.109-0.891t-0.891-2.109 0.891-2.109 2.109-0.891q2.109 0 2.813 1.969h0.188zM11.109 12.094q1.547 3 4.289 4.313t4.945 1.078q-1.359 2.109-3.563 3.328t-4.781 1.219q-1.594 0-3.141-0.516 2.156-1.219 2.156-3.516 0-1.266-0.844-2.367t-2.063-1.477q-1.547-2.156-4.125-2.156-1.078 0-1.969 0.422 0-0.047-0.023-0.188t-0.023-0.234q0-4.031 2.813-6.938t6.844-3.047q-0.703 1.078-1.172 2.344t-0.445 3.469 1.102 4.266z"></path>
</svg>
