<!-- Generated by IcoMoon.io -->
<svg version="1.1" xmlns="http://www.w3.org/2000/svg" width="24" height="24" viewBox="0 0 24 24">
<title>now_wallpaper</title>
<path d="M3.984 12.984v7.031h7.031v1.969h-7.031q-0.797 0-1.383-0.586t-0.586-1.383v-7.031h1.969zM20.016 20.016v-7.031h1.969v7.031q0 0.797-0.586 1.383t-1.383 0.586h-7.031v-1.969h7.031zM20.016 2.016q0.797 0 1.383 0.586t0.586 1.383v7.031h-1.969v-7.031h-7.031v-1.969h7.031zM17.016 8.484q0 0.609-0.445 1.055t-1.055 0.445-1.055-0.445-0.445-1.055 0.445-1.055 1.055-0.445 1.055 0.445 0.445 1.055zM9.984 12.984l3 3.703 2.016-2.672 3 3.984h-12zM3.984 3.984v7.031h-1.969v-7.031q0-0.797 0.586-1.383t1.383-0.586h7.031v1.969h-7.031z"></path>
</svg>
