<!-- Generated by IcoMoon.io -->
<svg version="1.1" xmlns="http://www.w3.org/2000/svg" width="24" height="24" viewBox="0 0 24 24">
<title>offline_share</title>
<path d="M18 15.984v-12h-8.016v12h8.016zM18 0.984q0.797 0 1.406 0.609t0.609 1.406v14.016q0 0.797-0.609 1.383t-1.406 0.586h-8.016q-0.797 0-1.383-0.586t-0.586-1.383v-14.016q0-0.797 0.586-1.406t1.383-0.609h8.016zM15.984 23.016h-9.984q-0.797 0-1.406-0.609t-0.609-1.406v-15.984h2.016v15.984h9.984v2.016zM14.578 10.266q-2.344 0-3.563 1.641 0.656-3.094 3.563-3.516v-1.313l2.438 2.25-2.438 2.25v-1.313z"></path>
</svg>
