<!-- Generated by IcoMoon.io -->
<svg version="1.1" xmlns="http://www.w3.org/2000/svg" width="24" height="24" viewBox="0 0 24 24">
<title>outdoor_grill</title>
<path d="M14.391 6.984q0.328-1.266-0.422-2.016-1.172-1.219-0.891-2.953h0.984q-0.234 1.172 0.469 2.016 0.797 0.891 0.938 1.523t-0.047 1.43h-1.031zM11.906 6.984q0.281-1.266-0.469-2.016-1.172-1.219-0.891-2.953h0.984q-0.234 1.172 0.469 2.016 0.797 0.891 0.938 1.523t-0.047 1.43h-0.984zM9.422 6.984q0.281-1.266-0.469-2.016-1.172-1.219-0.891-2.953h0.984q-0.234 1.172 0.469 2.016 0.797 0.891 0.938 1.523t-0.047 1.43h-0.984zM17.016 18q-0.422 0-0.727 0.281t-0.305 0.703 0.305 0.727 0.727 0.305 0.703-0.305 0.281-0.727-0.281-0.703-0.703-0.281zM17.016 21.984q-0.984 0-1.734-0.563t-1.078-1.453h-6.375l-0.984 1.594q-0.234 0.422-0.844 0.422-0.375 0-0.563-0.141-0.422-0.234-0.422-0.844 0-0.375 0.141-0.563l3.984-6.047q-1.875-0.844-3-2.555t-1.125-3.82h13.969q0 1.875-1.195 3.75t-2.883 2.625l0.563 0.891q-0.938 0.375-1.594 1.219l-0.984-1.547q-0.234 0.047-0.891 0.047t-0.891-0.047l-1.969 3.047h5.063q0.328-0.891 1.078-1.453t1.734-0.563q1.219 0 2.109 0.891t0.891 2.109-0.891 2.109-2.109 0.891z"></path>
</svg>
