<!-- Generated by IcoMoon.io -->
<svg version="1.1" xmlns="http://www.w3.org/2000/svg" width="24" height="24" viewBox="0 0 24 24">
<title>pages</title>
<path d="M18.984 3q0.797 0 1.406 0.609t0.609 1.406v6h-5.016l1.031-4.031-4.031 1.031v-5.016h6zM17.016 17.016l-1.031-4.031h5.016v6q0 0.797-0.609 1.406t-1.406 0.609h-6v-5.016zM8.016 12.984l-1.031 4.031 4.031-1.031v5.016h-6q-0.797 0-1.406-0.609t-0.609-1.406v-6h5.016zM3 5.016q0-0.797 0.609-1.406t1.406-0.609h6v5.016l-4.031-1.031 1.031 4.031h-5.016v-6z"></path>
</svg>
