<!-- Generated by IcoMoon.io -->
<svg version="1.1" xmlns="http://www.w3.org/2000/svg" width="24" height="24" viewBox="0 0 24 24">
<title>panorama_wide_angle</title>
<path d="M12 3.984q3.609 0 7.969 0.75l0.891 0.141 0.281 0.891q0.844 3.094 0.844 6.234t-0.844 6.234l-0.281 0.891-0.891 0.141q-4.359 0.75-7.969 0.75t-7.969-0.75l-0.891-0.141-0.281-0.891q-0.844-3.094-0.844-6.234t0.844-6.234l0.281-0.891 0.891-0.141q4.359-0.75 7.969-0.75zM12 6q-3.281 0-7.313 0.656-0.703 2.719-0.703 5.344t0.703 5.344q4.031 0.656 7.313 0.656t7.313-0.656q0.703-2.719 0.703-5.344t-0.703-5.344q-4.031-0.656-7.313-0.656z"></path>
</svg>
