<!-- Generated by IcoMoon.io -->
<svg version="1.1" xmlns="http://www.w3.org/2000/svg" width="24" height="24" viewBox="0 0 24 24">
<title>panorama_photosphere</title>
<path d="M22.5 8.531q0.516 0.281 0.516 0.797v5.344q0 0.563-0.516 0.844-0.469 0.234-1.406 0.609-1.031 2.297-2.906 3.773t-4.031 1.875-4.313 0-4.031-1.875-2.906-3.773q-0.469-0.188-1.406-0.656-0.516-0.234-0.516-0.797v-5.344q0-0.563 0.516-0.797 0.938-0.469 1.406-0.656 1.172-2.625 3.633-4.242t5.461-1.617 5.461 1.617 3.633 4.242q0.469 0.188 1.406 0.656zM12 3.797q-3.984 0-6.422 3.141 6.375-1.875 12.844 0-2.531-3.141-6.422-3.141zM12 20.203q1.641 0 3.516-0.914t2.906-2.227q-6.516 1.875-12.844 0 2.484 3.141 6.422 3.141zM21.422 14.25v-4.5q-9.469-4.453-18.844 0v4.5q0.047 0 0.141 0.047t0.141 0.047q3.656 1.828 9.141 1.828 3.563 0 6.047-0.75 2.344-0.656 3.375-1.172z"></path>
</svg>
