<!-- Generated by IcoMoon.io -->
<svg version="1.1" xmlns="http://www.w3.org/2000/svg" width="24" height="24" viewBox="0 0 24 24">
<title>panorama_photosphere_select</title>
<path d="M5.578 17.063q1.031 1.313 2.906 2.227t3.516 0.914 3.516-0.914 2.906-2.227q-6.516 1.875-12.844 0zM12 3.797q-3.984 0-6.422 3.141 6.375-1.875 12.844 0-2.531-3.141-6.422-3.141zM22.5 8.531q0.516 0.281 0.516 0.797v5.344q0 0.563-0.516 0.844-0.469 0.234-1.406 0.609-1.031 2.297-2.906 3.773t-4.031 1.875-4.313 0-4.031-1.875-2.906-3.773q-0.469-0.188-1.406-0.656-0.516-0.234-0.516-0.797v-5.344q0-0.563 0.516-0.797 0.938-0.469 1.406-0.656 1.172-2.625 3.633-4.242t5.461-1.617 5.461 1.617 3.633 4.242q0.469 0.188 1.406 0.656z"></path>
</svg>
