<!-- Generated by IcoMoon.io -->
<svg version="1.1" xmlns="http://www.w3.org/2000/svg" width="24" height="24" viewBox="0 0 24 24">
<title>panorama_horizontal</title>
<path d="M21.422 3.984q0.563 0 0.563 0.656v14.719q0 0.656-0.563 0.656-0.094 0-0.281-0.094-4.5-1.641-9.141-1.641t-9.141 1.641q-0.188 0.094-0.281 0.094-0.563 0-0.563-0.656v-14.719q0-0.656 0.563-0.656 0.094 0 0.281 0.094 4.5 1.641 9.141 1.641t9.141-1.641q0.188-0.094 0.281-0.094zM20.016 6.563q-3.656 1.125-8.016 1.125-4.125 0-8.016-1.125v10.875q3.844-1.125 8.016-1.125 4.125 0 8.016 1.125v-10.875z"></path>
</svg>
