<!-- Generated by IcoMoon.io -->
<svg version="1.1" xmlns="http://www.w3.org/2000/svg" width="24" height="24" viewBox="0 0 24 24">
<title>party_mode</title>
<path d="M12 17.016q2.063 0 3.539-1.477t1.477-3.539q0-0.422-0.094-0.984h-2.109q0.188 0.656 0.188 0.984 0 1.219-0.891 2.109t-2.109 0.891h-3.984q1.547 2.016 3.984 2.016zM12 6.984q-2.063 0-3.539 1.477t-1.477 3.539q0 0.422 0.094 0.984h2.109q-0.188-0.656-0.188-0.984 0-1.219 0.891-2.109t2.109-0.891h3.984q-1.547-2.016-3.984-2.016zM20.016 3.984q0.797 0 1.383 0.609t0.586 1.406v12q0 0.797-0.586 1.406t-1.383 0.609h-16.031q-0.797 0-1.383-0.609t-0.586-1.406v-12q0-0.797 0.586-1.406t1.383-0.609h3.188l1.828-1.969h6l1.828 1.969h3.188z"></path>
</svg>
