<!-- Generated by IcoMoon.io -->
<svg version="1.1" xmlns="http://www.w3.org/2000/svg" width="24" height="24" viewBox="0 0 24 24">
<title>people_alt</title>
<path d="M9 12.984q1.5 0 3.281 0.422t3.258 1.406 1.477 2.203v3h-16.031v-3q0-1.219 1.477-2.203t3.258-1.406 3.281-0.422zM15 12q-0.609 0-1.313-0.234 1.313-1.547 1.313-3.75 0-0.891-0.375-2.016t-0.938-1.781q0.703-0.234 1.313-0.234 1.641 0 2.813 1.195t1.172 2.836-1.172 2.813-2.813 1.172zM5.016 8.016q0-1.641 1.172-2.836t2.813-1.195 2.813 1.195 1.172 2.836-1.172 2.813-2.813 1.172-2.813-1.172-1.172-2.813zM16.688 13.125q2.484 0.375 4.406 1.383t1.922 2.508v3h-4.031v-3q0-2.297-2.297-3.891z"></path>
</svg>
