<!-- Generated by IcoMoon.io -->
<svg version="1.1" xmlns="http://www.w3.org/2000/svg" width="24" height="24" viewBox="0 0 24 24">
<title>perm_camera_mic</title>
<path d="M14.016 12.984v-3.984q0-0.797-0.609-1.406t-1.406-0.609-1.406 0.609-0.609 1.406v3.984q0 0.797 0.609 1.406t1.406 0.609 1.406-0.609 0.609-1.406zM20.016 5.016q0.797 0 1.383 0.586t0.586 1.383v12q0 0.797-0.586 1.406t-1.383 0.609h-7.031v-2.109q2.109-0.375 3.563-2.039t1.453-3.867h-2.016q0 1.641-1.172 2.836t-2.813 1.195-2.813-1.195-1.172-2.836h-2.016q0 2.203 1.453 3.867t3.563 2.039v2.109h-7.031q-0.797 0-1.383-0.609t-0.586-1.406v-12q0-0.797 0.586-1.383t1.383-0.586h3.188l1.828-2.016h6l1.828 2.016h3.188z"></path>
</svg>
