<!-- Generated by IcoMoon.io -->
<svg version="1.1" xmlns="http://www.w3.org/2000/svg" width="24" height="24" viewBox="0 0 24 24">
<title>person_add_disabled</title>
<path d="M6 9.984h0.891l-0.891-0.891v0.891zM11.391 14.484l-2.484-2.484h-2.906v3h-2.016v-3h-3v-2.016h3v-2.906l-3.984-3.984 1.219-1.313 21 20.906-1.313 1.313-3.984-3.984h-9.938v-2.016q0-1.172 1.266-2.086t3.141-1.43zM23.016 20.016h-0.938l-6-5.906q2.438 0.141 4.688 1.219t2.25 2.672v2.016zM11.016 8.016q0-1.641 1.172-2.836t2.813-1.195 2.813 1.195 1.172 2.836-1.172 2.813-2.813 1.172-2.813-1.172-1.172-2.813z"></path>
</svg>
