<!-- Generated by IcoMoon.io -->
<svg version="1.1" xmlns="http://www.w3.org/2000/svg" width="24" height="24" viewBox="0 0 24 24">
<title>person_pin_circle</title>
<path d="M12 14.016q1.031 0 2.203-0.633t1.781-1.523q0-0.891-1.383-1.477t-2.602-0.586-2.602 0.586-1.383 1.477q1.406 2.156 3.984 2.156zM12 3.984q-0.844 0-1.43 0.586t-0.586 1.43 0.586 1.43 1.43 0.586 1.43-0.586 0.586-1.43-0.586-1.43-1.43-0.586zM12 2.016q2.906 0 4.945 2.039t2.039 4.945q0 1.453-0.727 3.328t-1.758 3.516-2.039 3.070-1.711 2.273l-0.75 0.797q-0.281-0.328-0.75-0.867t-1.688-2.156-2.133-3.141-1.664-3.445-0.75-3.375q0-2.906 2.039-4.945t4.945-2.039z"></path>
</svg>
