<!-- Generated by IcoMoon.io -->
<svg version="1.1" xmlns="http://www.w3.org/2000/svg" width="24" height="24" viewBox="0 0 24 24">
<title>pets</title>
<path d="M17.344 14.859l0.797 0.797t0.398 0.422 0.375 0.445 0.352 0.445 0.305 0.469 0.234 0.516 0.141 0.539 0.047 0.563-0.023 0.586q-0.516 1.969-2.344 2.344-0.328 0.047-2.273-0.188t-3.258-0.234h-0.188q-1.313 0-3.258 0.234t-2.273 0.188q-1.828-0.375-2.344-2.344-0.141-0.938 0.328-1.922t0.867-1.406 1.43-1.453q0.469-0.516 1.242-1.453t1.242-1.453q0.844-1.031 1.734-1.313 0.188-0.094 0.328-0.094 0.281-0.047 0.797-0.047 0.563 0 0.797 0.047 0.141 0 0.328 0.094 0.891 0.281 1.734 1.313 0.422 0.516 1.219 1.453t1.266 1.453zM17.016 9.516q0-1.031 0.727-1.781t1.758-0.75 1.758 0.75 0.727 1.781-0.727 1.758-1.758 0.727-1.758-0.727-0.727-1.758zM12.516 5.484q0-1.031 0.727-1.758t1.758-0.727 1.758 0.727 0.727 1.758-0.727 1.781-1.758 0.75-1.758-0.75-0.727-1.781zM6.516 5.484q0-1.031 0.727-1.758t1.758-0.727 1.758 0.727 0.727 1.758-0.727 1.781-1.758 0.75-1.758-0.75-0.727-1.781zM2.016 9.516q0-1.031 0.727-1.781t1.758-0.75 1.758 0.75 0.727 1.781-0.727 1.758-1.758 0.727-1.758-0.727-0.727-1.758z"></path>
</svg>
