<!-- Generated by IcoMoon.io -->
<svg version="1.1" xmlns="http://www.w3.org/2000/svg" width="24" height="24" viewBox="0 0 24 24">
<title>phone_enabled</title>
<path d="M17.391 10.781l-2.203-2.203q-0.422-0.422-0.234-1.031 0.563-1.688 0.563-3.563 0-0.422 0.281-0.703t0.703-0.281h3.516q0.422 0 0.703 0.281t0.281 0.703q0 7.031-4.992 12.023t-12.023 4.992q-0.422 0-0.703-0.281t-0.281-0.703v-3.516q0-0.422 0.281-0.703t0.703-0.281q1.875 0 3.563-0.563 0.563-0.234 1.031 0.234l2.203 2.203q4.359-2.25 6.609-6.609z"></path>
</svg>
