<!-- Generated by IcoMoon.io -->
<svg version="1.1" xmlns="http://www.w3.org/2000/svg" width="24" height="24" viewBox="0 0 24 24">
<title>phonelink_erase</title>
<path d="M18.984 0.984q0.797 0 1.406 0.609t0.609 1.406v18q0 0.797-0.609 1.406t-1.406 0.609h-9.984q-0.797 0-1.406-0.609t-0.609-1.406v-3h2.016v2.016h9.984v-16.031h-9.984v2.016h-2.016v-3q0-0.797 0.609-1.406t1.406-0.609h9.984zM12.984 8.203l-3.984 3.984 3.984 4.031-0.984 0.984-3.984-3.984-4.031 3.984-0.984-0.984 3.984-4.031-3.984-3.984 0.984-0.984 4.031 3.984 3.984-3.984z"></path>
</svg>
