<!-- Generated by IcoMoon.io -->
<svg version="1.1" xmlns="http://www.w3.org/2000/svg" width="24" height="24" viewBox="0 0 24 24">
<title>phonelink_lock</title>
<path d="M9.516 11.016v-1.5q0-0.563-0.445-0.938t-1.055-0.375-1.055 0.375-0.445 0.938v1.5h3zM10.781 11.016q0.469 0 0.844 0.375t0.375 0.891v3.516q0 0.469-0.398 0.844t-0.914 0.375h-5.484q-0.469 0-0.844-0.398t-0.375-0.914v-3.516q0-0.469 0.375-0.82t0.844-0.352v-1.5q0-1.031 0.867-1.781t1.945-0.75 1.922 0.75 0.844 1.781v1.5zM18.984 0.984q0.797 0 1.406 0.609t0.609 1.406v18q0 0.797-0.609 1.406t-1.406 0.609h-9.984q-0.797 0-1.406-0.609t-0.609-1.406v-3h2.016v2.016h9.984v-16.031h-9.984v2.016h-2.016v-3q0-0.797 0.609-1.406t1.406-0.609h9.984z"></path>
</svg>
