<!-- Generated by IcoMoon.io -->
<svg version="1.1" xmlns="http://www.w3.org/2000/svg" width="24" height="24" viewBox="0 0 24 24">
<title>phonelink_ring</title>
<path d="M14.016 20.016v-16.031h-10.031v16.031h10.031zM14.016 0.984q0.797 0 1.383 0.609t0.586 1.406v18q0 0.797-0.586 1.406t-1.383 0.609h-10.031q-0.797 0-1.383-0.609t-0.586-1.406v-18q0-0.797 0.586-1.406t1.383-0.609h10.031zM18 9.797q0.938 0.984 0.938 2.203t-0.938 2.109l-0.984-1.031q0.844-1.172 0-2.297zM20.109 7.688q1.875 1.781 1.875 4.289t-1.875 4.242l-1.031-1.031q1.359-1.453 1.359-3.305t-1.359-3.164z"></path>
</svg>
