<!-- Generated by IcoMoon.io -->
<svg version="1.1" xmlns="http://www.w3.org/2000/svg" width="24" height="24" viewBox="0 0 24 24">
<title>pivot_table_chart</title>
<path d="M14.016 12.984l3.984-3.984 3.984 3.984h-3v1.594q0 1.828-1.289 3.117t-3.117 1.289h-1.594v3l-3.984-3.984 3.984-3.984v3h1.594q0.984 0 1.711-0.703t0.727-1.734v-1.594h-3zM5.016 21q-0.797 0-1.406-0.609t-0.609-1.406v-9h5.016v11.016h-3zM3 8.016v-3q0-0.797 0.609-1.406t1.406-0.609h3v5.016h-5.016zM9.984 8.016v-5.016h9q0.797 0 1.406 0.609t0.609 1.406v3h-11.016z"></path>
</svg>
