<!-- Generated by IcoMoon.io -->
<svg version="1.1" xmlns="http://www.w3.org/2000/svg" width="24" height="24" viewBox="0 0 24 24">
<title>policy</title>
<path d="M9 12q0-1.219 0.891-2.109t2.109-0.891 2.109 0.891 0.891 2.109-0.891 2.109-2.109 0.891-2.109-0.891-0.891-2.109zM21 5.016v6q0 3.563-1.922 6.656l-2.906-2.906q0.844-1.266 0.844-2.766 0-0.844-0.422-1.898t-1.031-1.664-1.664-1.031-1.898-0.422-1.875 0.422-1.641 1.031-1.055 1.664-0.445 1.898 0.445 1.875 1.055 1.641 1.641 1.055 1.875 0.445q1.5 0 2.766-0.844l3.094 3.141q-2.438 2.859-5.859 3.703-3.844-0.938-6.422-4.383t-2.578-7.617v-6l9-4.031z"></path>
</svg>
