<!-- Generated by IcoMoon.io -->
<svg version="1.1" xmlns="http://www.w3.org/2000/svg" width="24" height="24" viewBox="0 0 24 24">
<title>portrait</title>
<path d="M18.984 18.984v-13.969h-13.969v13.969h13.969zM18.984 3q0.797 0 1.406 0.609t0.609 1.406v13.969q0 0.797-0.609 1.406t-1.406 0.609h-13.969q-0.797 0-1.406-0.609t-0.609-1.406v-13.969q0-0.797 0.609-1.406t1.406-0.609h13.969zM16.5 16.266v0.75h-9v-0.75q0-1.031 1.547-1.641t2.953-0.609 2.953 0.609 1.547 1.641zM12 12.234q-0.938 0-1.594-0.68t-0.656-1.57 0.656-1.57 1.594-0.68 1.594 0.68 0.656 1.57-0.656 1.57-1.594 0.68z"></path>
</svg>
