<!-- Generated by IcoMoon.io -->
<svg version="1.1" xmlns="http://www.w3.org/2000/svg" width="24" height="24" viewBox="0 0 24 24">
<title>portable_wifi_off</title>
<path d="M3.281 2.484l0.984 1.031 16.734 16.734-1.266 1.266-7.5-7.547h-0.047l-0.188 0.047q-0.797 0-1.406-0.609t-0.609-1.406l0.047-0.188-1.594-1.594q-0.422 0.844-0.422 1.781 0 2.297 1.969 3.469l-0.984 1.734q-1.359-0.797-2.18-2.18t-0.82-3.023q0-1.781 0.938-3.234l-1.406-1.453q-1.547 2.156-1.547 4.688 0 2.156 1.078 4.008t2.906 2.93l-0.984 1.734q-2.297-1.313-3.633-3.633t-1.336-5.039q0-3.469 2.063-6.141l-2.063-2.109zM12 3.984q-2.016 0-3.75 0.938l-1.453-1.453q2.344-1.453 5.203-1.453 4.125 0 7.055 2.93t2.93 7.055q0 2.813-1.453 5.203l-1.5-1.453q0.984-1.828 0.984-3.75 0-3.281-2.367-5.648t-5.648-2.367zM17.578 14.25l-1.641-1.641q0.047-0.188 0.047-0.609 0-1.641-1.172-2.813t-2.813-1.172q-0.422 0-0.609 0.047l-1.641-1.641q1.031-0.422 2.25-0.422 2.484 0 4.242 1.758t1.758 4.242q0 1.219-0.422 2.25z"></path>
</svg>
