<!-- Generated by IcoMoon.io -->
<svg version="1.1" xmlns="http://www.w3.org/2000/svg" width="24" height="24" viewBox="0 0 24 24">
<title>recent_actors</title>
<path d="M12.516 17.016v-0.75q0-1.031-1.547-1.641t-2.953-0.609-2.953 0.609-1.547 1.641v0.75h9zM8.016 7.734q-0.891 0-1.57 0.68t-0.68 1.57 0.68 1.57 1.57 0.68 1.57-0.68 0.68-1.57-0.68-1.57-1.57-0.68zM14.016 5.016q0.422 0 0.703 0.281t0.281 0.703v12q0 0.422-0.281 0.703t-0.703 0.281h-12q-0.422 0-0.727-0.281t-0.305-0.703v-12q0-0.422 0.305-0.703t0.727-0.281h12zM17.016 18.984v-13.969h1.969v13.969h-1.969zM21 5.016h2.016v13.969h-2.016v-13.969z"></path>
</svg>
