<!-- Generated by IcoMoon.io -->
<svg version="1.1" xmlns="http://www.w3.org/2000/svg" width="24" height="24" viewBox="0 0 24 24">
<title>recommend</title>
<path d="M18 11.859v-0.844q0-0.422-0.281-0.727t-0.703-0.305h-4.594l0.563-3.375v-0.234q0-0.422-0.281-0.703l-0.703-0.656-4.594 4.969q-0.422 0.328-0.422 0.938v5.063q0 0.844 0.586 1.43t1.43 0.586h5.578q0.844 0 1.219-0.797l2.109-4.922q0.094-0.188 0.094-0.422zM12 2.016q4.125 0 7.055 2.93t2.93 7.055-2.93 7.055-7.055 2.93-7.055-2.93-2.93-7.055 2.93-7.055 7.055-2.93z"></path>
</svg>
