<!-- Generated by IcoMoon.io -->
<svg version="1.1" xmlns="http://www.w3.org/2000/svg" width="24" height="24" viewBox="0 0 24 24">
<title>record_voice_over</title>
<path d="M20.063 2.016q2.906 3.047 2.906 7.055t-2.906 6.914l-1.641-1.594q2.063-2.391 2.063-5.461t-2.063-5.32zM16.781 5.344q1.5 1.641 1.5 3.703t-1.5 3.563l-1.688-1.688q0.656-0.891 0.656-1.945t-0.656-1.945zM9 15q2.531 0 5.273 1.102t2.742 2.883v2.016h-16.031v-2.016q0-1.781 2.742-2.883t5.273-1.102zM5.016 9q0-1.641 1.172-2.813t2.813-1.172 2.813 1.172 1.172 2.813-1.172 2.813-2.813 1.172-2.813-1.172-1.172-2.813z"></path>
</svg>
