<!-- Generated by IcoMoon.io -->
<svg version="1.1" xmlns="http://www.w3.org/2000/svg" width="24" height="24" viewBox="0 0 24 24">
<title>replay_30</title>
<path d="M13.406 15.188q0 0.328 0.516 0.328 0.188 0 0.281-0.094l0.188-0.234q0.094-0.188 0.094-0.281v-2.016q0-0.047-0.047-0.141t-0.047-0.141q0-0.094-0.188-0.211t-0.281-0.117q-0.188 0-0.328 0.141l-0.188 0.188q-0.094 0.188-0.094 0.281v2.016q0.094 0.188 0.094 0.281zM15.281 14.203q0 0.609-0.094 0.797l-0.281 0.609q-0.328 0.281-0.516 0.281-0.094 0-0.305 0.047t-0.305 0.047q-0.328 0-1.078-0.375-0.094-0.047-0.281-0.609-0.141-0.422-0.141-0.797v-0.703q0-0.516 0.141-0.797l0.281-0.609q0.328-0.281 0.516-0.281 0.094 0 0.281-0.047t0.281-0.047q0.422 0 0.609 0.094 0.094 0.047 0.258 0.141t0.258 0.141 0.281 0.609q0.094 0.281 0.094 0.797v0.703zM9.984 13.5q0.703 0 0.703-0.609v-0.188q-0.094-0.094-0.094-0.188t-0.188-0.094h-0.516q-0.094 0.094-0.188 0.094t-0.094 0.188v0.188h-1.031q0-0.375 0.258-0.727t0.586-0.352q0.047 0 0.234-0.047t0.234-0.047q0.563 0 1.125 0.281 0.375 0.188 0.375 0.891v0.328q-0.094 0.188-0.094 0.281 0 0.188-0.188 0.188-0.094 0-0.328 0.234 0.422 0.234 0.516 0.375 0.188 0.375 0.188 0.609 0 0.422-0.094 0.516-0.047 0.047-0.141 0.188t-0.141 0.188q-0.188 0.188-0.516 0.188-0.094 0-0.305 0.047t-0.305 0.047q-0.375 0-0.469-0.094-0.047-0.047-0.234-0.094t-0.281-0.094q-0.422-0.234-0.422-0.984h0.844v0.188q0.094 0.094 0.094 0.188t0.188 0.094h0.516q0.094-0.094 0.188-0.094t0.094-0.188v-0.516q-0.094-0.094-0.094-0.188t-0.188-0.094h-0.609v-0.703h0.375zM12 5.016q3.328 0 5.672 2.344t2.344 5.625q0 3.328-2.367 5.672t-5.648 2.344-5.648-2.344-2.367-5.672h2.016q0 2.484 1.781 4.242t4.219 1.758 4.219-1.758 1.781-4.242-1.781-4.242-4.219-1.758v4.031l-5.016-5.016 5.016-5.016v4.031z"></path>
</svg>
