<!-- Generated by IcoMoon.io -->
<svg version="1.1" xmlns="http://www.w3.org/2000/svg" width="24" height="24" viewBox="0 0 24 24">
<title>restore_page</title>
<path d="M12 18q2.063 0 3.539-1.477t1.477-3.539-1.477-3.516-3.539-1.453q-2.719 0-4.219 2.297l-1.266-1.313v3.984h3.984l-1.594-1.594q0.375-0.75 1.289-1.313t1.805-0.563q1.453 0 2.484 1.008t1.031 2.461-1.031 2.484-2.484 1.031q-1.828 0-2.859-1.5h-1.734q0.563 1.359 1.805 2.18t2.789 0.82zM14.016 2.016l6 6v12q0 0.797-0.609 1.383t-1.406 0.586h-12q-0.797 0-1.406-0.586t-0.609-1.383l0.047-16.031q0-0.797 0.586-1.383t1.383-0.586h8.016z"></path>
</svg>
