<!-- Generated by IcoMoon.io -->
<svg version="1.1" xmlns="http://www.w3.org/2000/svg" width="24" height="24" viewBox="0 0 24 24">
<title>rotate_90_degrees_ccw</title>
<path d="M19.359 6.656q1.078 1.078 1.852 2.93t0.773 3.398-0.773 3.422-1.852 2.953q-2.578 2.625-6.375 2.625-2.297 0-4.313-1.125l1.5-1.453q1.406 0.609 2.859 0.609 1.172 0 2.625-0.609t2.297-1.453 1.453-2.32 0.609-2.648-0.609-2.625-1.453-2.297q-2.063-2.063-4.969-2.063v3.234l-4.219-4.219 4.219-4.266v3.234h0.047q1.547 0 3.398 0.797t2.93 1.875zM3.703 12.891l3.656 3.656 3.656-3.656-3.656-3.656zM7.359 6.422l6.469 6.469-6.469 6.469-6.516-6.469z"></path>
</svg>
