<!-- Generated by IcoMoon.io -->
<svg version="1.1" xmlns="http://www.w3.org/2000/svg" width="24" height="24" viewBox="0 0 24 24">
<title>rounded_corner</title>
<path d="M21 8.016v4.969h-2.016v-4.969q0-1.219-0.891-2.109t-2.109-0.891h-4.969v-2.016h4.969q2.063 0 3.539 1.477t1.477 3.539zM3 21v-2.016h2.016v2.016h-2.016zM6.984 21v-2.016h2.016v2.016h-2.016zM11.016 21v-2.016h1.969v2.016h-1.969zM6.984 5.016v-2.016h2.016v2.016h-2.016zM3 5.016v-2.016h2.016v2.016h-2.016zM3 9v-2.016h2.016v2.016h-2.016zM3 17.016v-2.016h2.016v2.016h-2.016zM3 12.984v-1.969h2.016v1.969h-2.016zM18.984 17.016v-2.016h2.016v2.016h-2.016zM18.984 18.984h2.016v2.016h-2.016v-2.016z"></path>
</svg>
