<!-- Generated by IcoMoon.io -->
<svg version="1.1" xmlns="http://www.w3.org/2000/svg" width="24" height="24" viewBox="0 0 24 24">
<title>sd</title>
<path d="M14.484 13.5v-3h2.016v3h-2.016zM9.516 13.5h-2.016v-0.516h-1.5v1.031q0 0.422 0.281 0.703t0.703 0.281h3q0.422 0 0.727-0.281t0.305-0.703v-1.5q0-0.422-0.305-0.727t-0.727-0.305h-2.484v-0.984h2.016v0.516h1.5v-1.031q0-0.422-0.305-0.703t-0.727-0.281h-3q-0.422 0-0.703 0.281t-0.281 0.703v1.5q0 0.422 0.281 0.727t0.703 0.305h2.531v0.984zM12.984 9v6h4.031q0.422 0 0.703-0.281t0.281-0.703v-4.031q0-0.422-0.281-0.703t-0.703-0.281h-4.031zM18.984 3q0.797 0 1.406 0.609t0.609 1.406v13.969q0 0.797-0.609 1.406t-1.406 0.609h-13.969q-0.844 0-1.43-0.586t-0.586-1.43v-13.969q0-0.844 0.586-1.43t1.43-0.586h13.969z"></path>
</svg>
