<!-- Generated by IcoMoon.io -->
<svg version="1.1" xmlns="http://www.w3.org/2000/svg" width="24" height="24" viewBox="0 0 24 24">
<title>settings_applications</title>
<path d="M17.25 12q0-0.469-0.047-0.703l1.5-1.125q0.234-0.188 0.047-0.469l-1.406-2.438q-0.141-0.234-0.422-0.141l-1.734 0.703q-0.609-0.469-1.172-0.703l-0.281-1.828q-0.094-0.281-0.328-0.281h-2.813q-0.281 0-0.328 0.281l-0.281 1.875q-0.75 0.328-1.172 0.656l-1.734-0.703q-0.234-0.094-0.422 0.188l-1.406 2.391q-0.047 0.047-0.047 0.188 0 0.234 0.094 0.281l1.5 1.125q-0.047 0.234-0.047 0.703t0.047 0.703l-1.5 1.125q-0.094 0.047-0.094 0.281 0 0.141 0.047 0.188l1.406 2.438q0.141 0.234 0.422 0.141l1.734-0.703q0.609 0.469 1.172 0.703l0.281 1.828q0.094 0.281 0.328 0.281h2.813q0.281 0 0.328-0.281l0.281-1.875q0.75-0.328 1.172-0.656l1.734 0.703q0.234 0.094 0.422-0.188l1.406-2.391q0.188-0.281-0.047-0.469l-1.5-1.125q0.047-0.234 0.047-0.703zM18.984 3q0.844 0 1.43 0.586t0.586 1.43v13.969q0 0.844-0.586 1.43t-1.43 0.586h-13.969q-0.844 0-1.43-0.586t-0.586-1.43v-13.969q0-0.844 0.586-1.43t1.43-0.586h13.969zM12 9.984q0.797 0 1.406 0.609t0.609 1.406-0.609 1.406-1.406 0.609-1.406-0.609-0.609-1.406 0.609-1.406 1.406-0.609z"></path>
</svg>
