<!-- Generated by IcoMoon.io -->
<svg version="1.1" xmlns="http://www.w3.org/2000/svg" width="24" height="24" viewBox="0 0 24 24">
<title>settings_power</title>
<path d="M15 24v-2.016h2.016v2.016h-2.016zM16.547 4.453q3.469 2.438 3.469 6.563 0 3.281-2.344 5.625t-5.672 2.344-5.672-2.344-2.344-5.625q0-1.734 1.008-3.656t2.461-2.906l1.406 1.406q-2.859 1.781-2.859 5.156 0 2.484 1.758 4.242t4.242 1.758 4.242-1.758 1.758-4.242q0-1.406-0.844-2.906t-2.063-2.203zM12.984 2.016v9.984h-1.969v-9.984h1.969zM11.016 24v-2.016h1.969v2.016h-1.969zM6.984 24v-2.016h2.016v2.016h-2.016z"></path>
</svg>
