<!-- Generated by IcoMoon.io -->
<svg version="1.1" xmlns="http://www.w3.org/2000/svg" width="24" height="24" viewBox="0 0 24 24">
<title>settings_system_daydream</title>
<path d="M21 19.031v-14.063h-18v14.063h18zM21 3q0.797 0 1.406 0.609t0.609 1.406v13.969q0 0.797-0.609 1.406t-1.406 0.609h-18q-0.797 0-1.406-0.609t-0.609-1.406v-13.969q0-0.797 0.609-1.406t1.406-0.609h18zM9 15.984q-1.219 0-2.109-0.891t-0.891-2.109q0-1.125 0.773-1.992t1.898-0.961h0.188q0.984-2.016 3.141-2.016 1.313 0 2.297 0.867t1.172 2.133h0.047q1.031 0 1.758 0.727t0.727 1.758-0.727 1.758-1.758 0.727h-6.516z"></path>
</svg>
