<!-- Generated by IcoMoon.io -->
<svg version="1.1" xmlns="http://www.w3.org/2000/svg" width="24" height="24" viewBox="0 0 24 24">
<title>settings_backup_restore</title>
<path d="M12 3q3.75 0 6.375 2.625t2.625 6.375-2.625 6.375-6.375 2.625q-1.266 0-2.859-0.539t-2.625-1.336l1.406-1.406q1.781 1.266 4.078 1.266 2.906 0 4.945-2.039t2.039-4.945-2.039-4.945-4.945-2.039-4.945 2.039-2.039 4.945h3l-4.031 3.984-3.984-3.984h3q0-3.75 2.625-6.375t6.375-2.625zM14.016 12q0 0.797-0.609 1.406t-1.406 0.609-1.406-0.609-0.609-1.406 0.609-1.406 1.406-0.609 1.406 0.609 0.609 1.406z"></path>
</svg>
