<!-- Generated by IcoMoon.io -->
<svg version="1.1" xmlns="http://www.w3.org/2000/svg" width="24" height="24" viewBox="0 0 24 24">
<title>shuffle_on</title>
<path d="M14.813 13.406l-1.406 1.406 3.141 3.141-2.063 2.063h5.531v-5.531l-2.063 2.063zM14.484 3.984l2.063 2.063-12.563 12.563 1.406 1.406 12.563-12.563 2.063 2.063v-5.531h-5.531zM10.594 9.188l-5.203-5.203-1.406 1.406 5.203 5.203zM21 0.984q0.797 0 1.406 0.609t0.609 1.406v18q0 0.797-0.609 1.406t-1.406 0.609h-18q-0.797 0-1.406-0.609t-0.609-1.406v-18q0-0.797 0.609-1.406t1.406-0.609h18z"></path>
</svg>
