<!-- Generated by IcoMoon.io -->
<svg version="1.1" xmlns="http://www.w3.org/2000/svg" width="24" height="24" viewBox="0 0 24 24">
<title>smoking_rooms</title>
<path d="M16.031 10.219q1.453 0 2.461 0.891t1.008 2.25v1.641h-1.5v-1.313q0-0.938-0.586-1.477t-1.383-0.539h-1.547q-1.359 0-2.344-1.008t-0.984-2.367 0.984-2.344 2.344-0.984v1.5q-0.797 0-1.313 0.492t-0.516 1.242q0 0.797 0.539 1.406t1.289 0.609h1.547zM18.844 7.734q1.406 0.656 2.273 2.016t0.867 3v2.25h-1.5v-2.25q0-1.688-1.148-2.859t-2.836-1.172v-1.5q0.75 0 1.289-0.539t0.539-1.336q0-0.75-0.539-1.289t-1.289-0.539v-1.5q1.359 0 2.344 0.984t0.984 2.344q0 1.406-0.984 2.391zM18 15.984h1.5v3h-1.5v-3zM20.484 15.984h1.5v3h-1.5v-3zM2.016 15.984h15v3h-15v-3z"></path>
</svg>
