<!-- Generated by IcoMoon.io -->
<svg version="1.1" xmlns="http://www.w3.org/2000/svg" width="24" height="24" viewBox="0 0 24 24">
<title>sports_mma</title>
<path d="M15 9.984v-3h-8.016v3h8.016zM18 6.984q0.422 0 0.703 0.305t0.281 0.727v2.766q0 0.281-0.047 0.422l-0.797 3.984q-0.188 0.797-0.938 0.797h-10.406q-0.797 0-0.938-0.797l-0.797-3.984q-0.047-0.141-0.047-0.422v-5.766q0-0.797 0.586-1.406t1.383-0.609h8.016q0.797 0 1.406 0.609t0.609 1.406v3q0-0.422 0.281-0.727t0.703-0.305zM6.984 20.016v-3h10.031v3q0 0.422-0.305 0.703t-0.727 0.281h-7.969q-0.422 0-0.727-0.281t-0.305-0.703z"></path>
</svg>
