<!-- Generated by IcoMoon.io -->
<svg version="1.1" xmlns="http://www.w3.org/2000/svg" width="24" height="24" viewBox="0 0 24 24">
<title>sports_soccer</title>
<path d="M18.047 17.203q1.969-2.25 1.969-5.203 0-0.094-0.023-0.188t-0.023-0.141l-0.984-0.75-1.406 0.469-1.453 4.359 0.797 1.359zM14.25 15l1.359-4.031-3.609-2.531-3.609 2.531 1.359 4.031h4.5zM14.484 19.594l0.703-1.5-0.609-1.078h-5.109l-0.656 1.078 0.703 1.5q1.172 0.422 2.484 0.422t2.484-0.422zM7.078 17.109l0.797-1.359-1.453-4.359-1.406-0.469-0.984 0.75q0 0.047-0.023 0.141t-0.023 0.188q0 1.219 0.586 2.742t1.383 2.461zM9.656 4.359q-1.172 0.328-2.461 1.313t-1.945 2.016l0.422 1.359 1.359 0.422 3.984-2.766v-1.406zM12.984 5.297v1.406l3.984 2.766 1.359-0.422 0.422-1.359q-0.656-1.031-1.945-2.016t-2.461-1.313zM12 2.016q4.125 0 7.055 2.93t2.93 7.055-2.93 7.055-7.055 2.93-7.055-2.93-2.93-7.055 2.93-7.055 7.055-2.93z"></path>
</svg>
