<!-- Generated by IcoMoon.io -->
<svg version="1.1" xmlns="http://www.w3.org/2000/svg" width="24" height="24" viewBox="0 0 24 24">
<title>sports_hockey</title>
<path d="M13.594 12.844l1.406 3.141h3.984v4.031l-4.688-0.047q-0.609 0-0.891-0.516l-1.406-3.094q-0.328-0.656-0.891-1.922t-0.703-1.594l-4.078-8.859h3.375l2.297 5.203q0.094-0.234 0.305-0.68t0.258-0.539l1.734-3.984h3.375zM21 15.984q0.422 0 0.703 0.305t0.281 0.727v3h-1.969v-4.031h0.984zM9 15.984l0.844-1.922 1.594 3.469-0.844 1.922q-0.281 0.516-0.891 0.516l-4.688 0.047v-4.031h3.984zM2.016 17.016q0-0.422 0.281-0.727t0.703-0.305h0.984v4.031h-1.969v-3z"></path>
</svg>
