<!-- Generated by IcoMoon.io -->
<svg version="1.1" xmlns="http://www.w3.org/2000/svg" width="24" height="24" viewBox="0 0 24 24">
<title>sports_motorsports</title>
<path d="M21.938 11.203q0.328 3.563-2.039 6.188t-5.883 2.625h-10.031q-0.797 0-1.383-0.609t-0.586-1.406v-0.797q0-0.891 0.188-2.203h8.156q1.453 0 2.531-1.078t1.078-2.531q0-2.391-2.156-3.328l-4.781-2.016q2.531-1.828 5.953-2.016 3.375-0.234 6 1.852t2.953 5.32zM12 11.391q0 0.656-0.469 1.125t-1.125 0.469h-7.781q0.891-3.281 2.813-5.438l5.578 2.344q0.984 0.375 0.984 1.5z"></path>
</svg>
