<!-- Generated by IcoMoon.io -->
<svg version="1.1" xmlns="http://www.w3.org/2000/svg" width="24" height="24" viewBox="0 0 24 24">
<title>sports_kabaddi</title>
<path d="M11.25 10.547q1.547 1.547 3.609 1.547l0.141 2.063q-2.906 0-5.063-2.063l-0.703-0.703-2.344 2.391 2.109 2.109v6h-2.016v-5.156l-1.266-1.172v2.203l-4.266 4.219-1.406-1.406 3.656-3.609-1.078-2.953q0-0.047-0.047-0.164t-0.070-0.211-0.023-0.188q-0.094-0.844 0.609-1.547l3.328-3.328q0.609-0.609 1.406-0.609 0.703 0 1.125 0.328 0.281 0.281 2.297 2.25zM11.016 8.391q-0.75-0.141-1.266-0.844t-0.328-1.5q0.141-1.078 1.219-1.5 0.281-0.094 0.422-0.094 0.094 0 0.188-0.047h0.141q0.094 0 0.211 0.023t0.164 0.023q0.469 0 1.031 0.563t0.586 1.359-0.586 1.453q-0.281 0.281-0.656 0.422-0.047 0-0.164 0.070t-0.211 0.070q-0.141 0.047-0.375 0.047-0.047 0-0.188-0.023t-0.188-0.023zM24 11.859h-2.016v-3.375l-1.781-0.703 0.891 4.453t1.031 5.203 0.891 4.453h-2.109l-1.828-8.016-2.063 2.016v6h-2.016v-7.5q0.844-0.797 2.109-2.016l-0.609-3q-0.844 0.938-2.109 1.641-1.406-0.141-2.484-1.219 2.344-0.422 3.375-2.297l1.031-1.641q0.938-1.5 2.625-0.797l5.063 2.109v4.688zM14.484 2.391q0-0.844 0.586-1.43t1.43-0.586 1.43 0.586 0.586 1.43-0.586 1.406-1.43 0.563-1.43-0.563-0.586-1.406z"></path>
</svg>
