<!-- Generated by IcoMoon.io -->
<svg version="1.1" xmlns="http://www.w3.org/2000/svg" width="24" height="24" viewBox="0 0 24 24">
<title>sports_handball</title>
<path d="M12.75 3.797q-0.75-0.422-0.75-1.266 0-0.656 0.422-1.078t1.078-0.422q0.891 0 1.313 0.75t0 1.453q-0.328 0.516-0.938 0.703t-1.125-0.141zM15.844 10.406q2.156 1.781 2.555 4.43t-0.867 4.664l-1.734-1.031q0.656-1.172 0.656-2.484 0-1.5-0.984-2.953l-6.281 10.875-1.734-0.984 3-5.203-1.734-0.984-1.5 2.578-1.688-0.984 5.109-8.906q-1.547-1.688-1.828-3.984t0.891-4.359l1.734 1.031q-1.031 1.781-0.516 3.773t2.297 3.023zM14.25 6q0.422-0.703 1.242-0.938t1.523 0.188 0.914 1.242-0.211 1.523-1.219 0.914-1.5-0.211-0.938-1.219 0.188-1.5z"></path>
</svg>
