<!-- Generated by IcoMoon.io -->
<svg version="1.1" xmlns="http://www.w3.org/2000/svg" width="24" height="24" viewBox="0 0 24 24">
<title>theater_comedy</title>
<path d="M18.984 8.063q0.422 0 0.727-0.281t0.305-0.703-0.305-0.703-0.727-0.281-0.703 0.281-0.281 0.703 0.281 0.703 0.703 0.281zM14.016 8.063q0.422 0 0.703-0.281t0.281-0.703-0.281-0.703-0.703-0.281-0.727 0.281-0.305 0.703 0.305 0.703 0.727 0.281zM11.016 3h10.969v6.516q0 2.297-1.594 3.891t-3.891 1.594q-1.266 0-2.484-0.609v-2.906h4.969q0-0.609-0.727-1.055t-1.758-0.445-1.758 0.445-0.727 1.055v-2.484h-3v-6zM5.016 12.984q-0.422 0-0.727 0.305t-0.305 0.727 0.305 0.703 0.727 0.281 0.703-0.281 0.281-0.703-0.281-0.727-0.703-0.305zM9.984 12.984q-0.422 0-0.703 0.305t-0.281 0.727 0.281 0.703 0.703 0.281 0.727-0.281 0.305-0.703-0.305-0.727-0.727-0.305zM7.5 18.516q1.031 0 1.758-0.445t0.727-1.055h-4.969q0 0.609 0.727 1.055t1.758 0.445zM2.016 16.5v-6.516h10.969v6.516q0 2.297-1.594 3.891t-3.891 1.594-3.891-1.594-1.594-3.891z"></path>
</svg>
