<!-- Generated by IcoMoon.io -->
<svg version="1.1" xmlns="http://www.w3.org/2000/svg" width="24" height="24" viewBox="0 0 24 24">
<title>thumb_down_off_alt</title>
<path d="M20.016 15q-0.422 0-0.727-0.281t-0.305-0.703v-9q0-0.422 0.305-0.727t0.727-0.305h1.969v11.016h-1.969zM9.984 21.984l-0.422-0.469q-0.563-0.563-0.891-1.219-0.141-0.328-0.094-0.656l0.938-4.641h-5.531q-0.797 0-1.383-0.609t-0.586-1.406v-1.078q0-0.469 0.141-0.797l2.672-6.141q0.609-0.984 1.734-0.984h8.109q0.984 0 1.664 0.68t0.68 1.664v7.828q0 0.844-0.609 1.453zM10.875 18.281l4.125-4.078v-7.875q0-0.328-0.328-0.328h-8.109l-2.578 5.906v1.078h5.531q0.891 0 1.523 0.727t0.398 1.664z"></path>
</svg>
