<!-- Generated by IcoMoon.io -->
<svg version="1.1" xmlns="http://www.w3.org/2000/svg" width="24" height="24" viewBox="0 0 24 24">
<title>thumb_up_alt</title>
<path d="M21.844 12.891l-2.672 6.141q-0.609 0.984-1.734 0.984h-8.109q-0.938 0-1.641-0.703t-0.703-1.641v-7.828q0-0.844 0.609-1.453l6.422-6.375 0.422 0.469q0.563 0.563 0.891 1.219 0.141 0.328 0.094 0.656l-0.938 4.641h5.531q0.797 0 1.383 0.609t0.586 1.406v1.078q0 0.422-0.141 0.797zM2.016 20.016v-11.016h1.969q0.422 0 0.727 0.281t0.305 0.703v9q0 0.422-0.305 0.727t-0.727 0.305h-1.969z"></path>
</svg>
