<!-- Generated by IcoMoon.io -->
<svg version="1.1" xmlns="http://www.w3.org/2000/svg" width="24" height="24" viewBox="0 0 24 24">
<title>thumbs_up_down</title>
<path d="M22.5 9.984q0.656 0 1.078 0.445t0.422 1.055v6.516q0 0.656-0.422 1.078l-4.969 4.922-0.797-0.797q-0.328-0.328-0.328-0.797 0.141-0.656 0.398-1.875t0.305-1.547h-5.203q-0.422 0-0.703-0.281t-0.281-0.703v-1.266q0-0.141 0.094-0.516l2.297-5.297q0.422-0.938 1.359-0.938h6.75zM12 6v1.266q0 0.141-0.094 0.516l-2.297 5.297q-0.422 0.938-1.359 0.938h-6.75q-0.656 0-1.078-0.445t-0.422-1.055v-6.516q0-0.656 0.422-1.078l4.969-4.922 0.797 0.797q0.328 0.328 0.328 0.797-0.141 0.656-0.398 1.875t-0.305 1.547h5.203q0.422 0 0.703 0.281t0.281 0.703z"></path>
</svg>
