<!-- Generated by IcoMoon.io -->
<svg version="1.1" xmlns="http://www.w3.org/2000/svg" width="24" height="24" viewBox="0 0 24 24">
<title>timer_3</title>
<path d="M17.531 10.453q-0.609 0-1.031 0.281t-0.422 0.797v0.047q0 0.563 0.938 0.891 0.328 0.141 0.844 0.234t1.359 0.375q0.375 0.141 1.031 0.563 0.328 0.234 0.609 0.75 0.234 0.469 0.234 0.984 0 1.734-2.063 2.438-0.563 0.188-1.453 0.188-2.625 0-3.422-1.828-0.234-0.563-0.234-1.031h1.875q0 0.609 0.539 1.008t1.289 0.398q1.547 0 1.547-1.078 0-0.281-0.141-0.492t-0.281-0.281-0.469-0.211q-0.234-0.094-0.984-0.281-1.313-0.281-2.25-0.891-0.844-0.563-0.844-1.688 0-1.781 1.969-2.438 0.563-0.188 1.359-0.188 1.641 0 2.578 0.797 0.938 0.75 0.938 1.969h-1.969q0-0.938-0.891-1.172-0.563-0.141-0.656-0.141zM10.078 11.859q1.969 0.656 1.969 2.719 0 1.734-1.125 2.578-1.078 0.938-2.813 0.938t-2.836-0.891-1.102-2.484h2.016q0 0.938 0.516 1.313 0.609 0.469 1.406 0.469 1.969 0 1.969-1.922t-2.156-1.922h-1.219v-1.547h1.172q1.5 0 1.922-1.078 0.094-0.234 0.094-0.75 0-1.781-1.781-1.781-1.219 0-1.688 0.938-0.141 0.281-0.141 0.703h-1.969q0-2.109 2.25-3 0.797-0.234 1.547-0.234 1.781 0 2.766 0.844t0.984 2.531-1.781 2.578z"></path>
</svg>
