<!-- Generated by IcoMoon.io -->
<svg version="1.1" xmlns="http://www.w3.org/2000/svg" width="24" height="24" viewBox="0 0 24 24">
<title>tonality</title>
<path d="M19.734 14.016q0.094-0.281 0.188-1.031h-6.938v1.031h6.75zM18.234 17.016q0.563-0.797 0.703-1.031h-5.953v1.031h5.25zM12.984 19.922q1.5-0.188 2.906-0.938h-2.906v0.938zM12.984 9.984v1.031h6.938q-0.094-0.75-0.188-1.031h-6.75zM12.984 6.984v1.031h5.953q-0.141-0.234-0.703-1.031h-5.25zM12.984 4.078v0.938h2.906q-1.406-0.75-2.906-0.938zM11.016 19.922v-15.844q-2.953 0.375-4.992 2.625t-2.039 5.297 2.039 5.297 4.992 2.625zM12 2.016q4.125 0 7.055 2.93t2.93 7.055-2.93 7.055-7.055 2.93-7.055-2.93-2.93-7.055 2.93-7.055 7.055-2.93z"></path>
</svg>
