<!-- Generated by IcoMoon.io -->
<svg version="1.1" xmlns="http://www.w3.org/2000/svg" width="24" height="24" viewBox="0 0 24 24">
<title>track_changes</title>
<path d="M19.078 4.922q2.906 2.906 2.906 7.078 0 4.125-2.93 7.055t-7.055 2.93-7.055-2.93-2.93-7.055 2.93-7.055 7.055-2.93h0.984v8.25q1.031 0.563 1.031 1.734 0 0.797-0.609 1.406t-1.406 0.609-1.406-0.609-0.609-1.406q0-1.172 1.031-1.734v-2.109q-1.313 0.375-2.156 1.406t-0.844 2.438q0 1.641 1.172 2.813t2.813 1.172 2.813-1.172 1.172-2.813q0-1.547-1.172-2.813l1.406-1.406q1.781 1.781 1.781 4.219 0 2.484-1.758 4.242t-4.242 1.758-4.242-1.758-1.758-4.242q0-2.203 1.43-3.867t3.586-2.039v-2.016q-2.953 0.375-4.992 2.625t-2.039 5.297q0 3.281 2.367 5.648t5.648 2.367 5.648-2.367 2.367-5.648q0-1.359-0.68-3.023t-1.664-2.648z"></path>
</svg>
