<!-- Generated by IcoMoon.io -->
<svg version="1.1" xmlns="http://www.w3.org/2000/svg" width="24" height="24" viewBox="0 0 24 24">
<title>traffic</title>
<path d="M12 9q0.844 0 1.43-0.586t0.586-1.43-0.586-1.406-1.43-0.563-1.43 0.563-0.586 1.406 0.586 1.43 1.43 0.586zM12 14.016q0.797-0.047 1.383-0.633t0.586-1.383-0.586-1.383-1.383-0.633h-0.047q-0.844 0-1.43 0.586t-0.586 1.43 0.586 1.43 1.43 0.586h0.047zM12 18.984q0.797-0.047 1.383-0.609t0.586-1.359-0.586-1.383-1.383-0.633h-0.047q-0.844 0-1.43 0.586t-0.586 1.43 0.586 1.406 1.43 0.563h0.047zM20.016 9.984q0 1.406-0.844 2.461t-2.156 1.43v1.125h3q0 1.406-0.844 2.438t-2.156 1.406v1.172q0 0.422-0.305 0.703t-0.727 0.281h-7.969q-0.422 0-0.727-0.281t-0.305-0.703v-1.172q-1.313-0.375-2.156-1.406t-0.844-2.438h3v-1.125q-1.313-0.375-2.156-1.43t-0.844-2.461h3v-1.125q-1.313-0.375-2.156-1.406t-0.844-2.438h3v-1.031q0-0.422 0.305-0.703t0.727-0.281h7.969q0.422 0 0.727 0.281t0.305 0.703v1.031h3q0 1.406-0.844 2.438t-2.156 1.406v1.125h3z"></path>
</svg>
