<!-- Generated by IcoMoon.io -->
<svg version="1.1" xmlns="http://www.w3.org/2000/svg" width="24" height="24" viewBox="0 0 24 24">
<title>transfer_within_a_station</title>
<path d="M5.766 8.906l-2.766 14.109h2.109l1.734-8.016 2.156 2.016v6h2.016v-7.547l-2.063-2.063 0.609-3q2.109 2.578 5.438 2.578v-1.969q-1.359 0-2.508-0.68t-1.852-1.805l-0.938-1.594q-0.516-0.938-1.688-0.938-0.422 0-0.75 0.141l-5.25 2.156v4.688h1.969v-3.328l1.781-0.75zM9.516 5.484q-0.797 0-1.406-0.586t-0.609-1.383 0.609-1.406 1.406-0.609 1.383 0.609 0.586 1.406-0.586 1.383-1.383 0.586zM19.5 19.734v-1.734l2.484 2.484-2.484 2.531v-1.781h-5.484v-1.5h5.484zM16.5 15.516h5.484v1.5h-5.484v1.734l-2.484-2.484 2.484-2.531v1.781z"></path>
</svg>
