<!-- Generated by IcoMoon.io -->
<svg version="1.1" xmlns="http://www.w3.org/2000/svg" width="24" height="24" viewBox="0 0 24 24">
<title>two_wheeler</title>
<path d="M5.484 12.516q-0.797 0-1.383 0.586t-0.586 1.383 0.586 1.406 1.383 0.609 1.406-0.609 0.609-1.406-0.609-1.383-1.406-0.586zM18.516 11.016q1.453 0 2.461 1.008t1.008 2.461-1.008 2.484-2.461 1.031-2.484-1.031-1.031-2.484q0-1.547 1.172-2.578l-0.422-0.516-2.766 4.594h-3l-1.031-0.938q-0.234 1.266-1.219 2.109t-2.25 0.844q-1.453 0-2.461-1.031t-1.008-2.484q0-0.563 0.188-1.102t0.492-0.961 0.773-0.75 0.984-0.516l-0.938-0.797h-1.5v-0.844h3.656l2.109 1.313 3.375-1.313h3.047l-1.219-1.5h-1.969v-1.031h2.859l1.219 1.547 2.906-1.125v2.109h-2.109l1.313 1.734q0.234-0.047 0.445-0.117t0.422-0.094 0.445-0.023zM18.516 12.516q-0.797 0-1.406 0.586t-0.609 1.383 0.609 1.406 1.406 0.609 1.383-0.609 0.586-1.406-0.586-1.383-1.383-0.586z"></path>
</svg>
