<!-- Generated by IcoMoon.io -->
<svg version="1.1" xmlns="http://www.w3.org/2000/svg" width="24" height="24" viewBox="0 0 24 24">
<title>unsubscribe</title>
<path d="M12 10.5l6.984-3.516v-1.969l-6.984 3.469-6.984-3.469v1.969zM13.547 17.016h-8.531q-0.797 0-1.406-0.609t-0.609-1.406v-9.984q0-0.797 0.609-1.406t1.406-0.609h13.969q0.797 0 1.406 0.609t0.609 1.406v7.172q-1.266-0.703-2.484-0.703-2.063 0-3.539 1.477t-1.477 3.539q0 0.094 0.023 0.258t0.023 0.258zM20.484 17.016v-1.031h-3.984v1.031h3.984zM18.516 12.984q1.453 0 2.461 1.031t1.008 2.484-1.008 2.484-2.461 1.031-2.484-1.031-1.031-2.484 1.031-2.484 2.484-1.031z"></path>
</svg>
