<!-- Generated by IcoMoon.io -->
<svg version="1.1" xmlns="http://www.w3.org/2000/svg" width="24" height="24" viewBox="0 0 24 24">
<title>view_comfortable</title>
<path d="M18 5.016h3.984v3.984h-3.984v-3.984zM18 18.984v-3.984h3.984v3.984h-3.984zM12.984 18.984v-3.984h4.031v3.984h-4.031zM8.016 18.984v-3.984h3.984v3.984h-3.984zM3 18.984v-3.984h3.984v3.984h-3.984zM18 14.016v-4.031h3.984v4.031h-3.984zM12.984 5.016h4.031v3.984h-4.031v-3.984zM8.016 9v-3.984h3.984v3.984h-3.984zM12.984 14.016v-4.031h4.031v4.031h-4.031zM8.016 14.016v-4.031h3.984v4.031h-3.984zM3 14.016v-4.031h3.984v4.031h-3.984zM3 9v-3.984h3.984v3.984h-3.984z"></path>
</svg>
