<!-- Generated by IcoMoon.io -->
<svg version="1.1" xmlns="http://www.w3.org/2000/svg" width="24" height="24" viewBox="0 0 24 24">
<title>view_in_ar</title>
<path d="M17.016 21.984v-1.969h3v-3h1.969v3.469q0 0.609-0.445 1.055t-1.055 0.445h-3.469zM6.984 21.984h-3.469q-0.609 0-1.055-0.445t-0.445-1.055v-3.469h1.969v3h3v1.969zM17.016 2.016h3.469q0.609 0 1.055 0.445t0.445 1.055v3.469h-1.969v-3h-3v-1.969zM6.984 2.016v1.969h-3v3h-1.969v-3.469q0-0.609 0.445-1.055t1.055-0.445h3.469zM12.984 17.25l4.031-2.297v-4.594l-4.031 2.297v4.594zM12 10.922l3.984-2.297-3.984-2.344-3.984 2.344zM6.984 14.953l4.031 2.297v-4.594l-4.031-2.297v4.594zM18.234 7.594q0.75 0.469 0.75 1.313v6.328q0 0.844-0.75 1.313l-5.484 3.188q-0.75 0.469-1.5 0l-5.484-3.188q-0.75-0.469-0.75-1.313v-6.328q0-0.844 0.75-1.313l5.484-3.188q0.375-0.188 0.75-0.188t0.75 0.188z"></path>
</svg>
