<!-- Generated by IcoMoon.io -->
<svg version="1.1" xmlns="http://www.w3.org/2000/svg" width="24" height="24" viewBox="0 0 24 24">
<title>wb_incandescent</title>
<path d="M17.25 18.141l1.406-1.359 1.781 1.781-1.406 1.406zM20.016 10.5h3v2.016h-3v-2.016zM15 6.328q1.359 0.797 2.18 2.156t0.82 3q0 2.484-1.758 4.242t-4.242 1.758-4.242-1.758-1.758-4.242q0-1.641 0.82-3t2.18-2.156v-4.828h6v4.828zM3.984 10.5v2.016h-3v-2.016h3zM11.016 22.453v-2.953h1.969v2.953h-1.969zM3.563 18.563l1.781-1.828 1.406 1.406-1.781 1.828z"></path>
</svg>
