<!-- Generated by IcoMoon.io -->
<svg version="1.1" xmlns="http://www.w3.org/2000/svg" width="24" height="24" viewBox="0 0 24 24">
<title>access_alarmalarm</title>
<path d="M12 20.016q2.906 0 4.945-2.063t2.039-4.969-2.039-4.945-4.945-2.039-4.945 2.039-2.039 4.945 2.039 4.969 4.945 2.063zM12 3.984q3.75 0 6.375 2.648t2.625 6.352-2.625 6.352-6.375 2.648-6.375-2.648-2.625-6.352 2.625-6.352 6.375-2.648zM12.516 8.016v5.25l3.984 2.344-0.75 1.219-4.734-2.813v-6h1.5zM7.875 3.375l-4.594 3.844-1.266-1.5 4.594-3.844zM21.984 5.719l-1.266 1.547-4.594-3.891 1.266-1.5z"></path>
</svg>
