<!-- Generated by IcoMoon.io -->
<svg version="1.1" xmlns="http://www.w3.org/2000/svg" width="24" height="24" viewBox="0 0 24 24">
<title>accessible</title>
<path d="M12.844 18h2.063q-0.328 1.641-1.781 2.813t-3.141 1.172q-2.063 0-3.516-1.453t-1.453-3.516q0-1.688 1.172-3.141t2.813-1.781v2.063q-0.891 0.328-1.453 1.102t-0.563 1.758q0 1.219 0.891 2.109t2.109 0.891q0.984 0 1.758-0.563t1.102-1.453zM9.984 9.094q0-1.125 0.984-1.781t2.016-0.047h0.047v0.047q0.328 0.141 0.609 0.422l1.313 1.453q1.688 1.828 4.031 1.828v1.969q-2.625 0-4.969-1.922v3.422h3q0.797 0 1.383 0.609t0.586 1.406v5.484h-1.969v-4.969h-5.016q-0.797 0-1.406-0.609t-0.609-1.406v-5.906zM9.984 3.984q0-0.844 0.586-1.406t1.43-0.563 1.43 0.563 0.586 1.406-0.586 1.43-1.43 0.586-1.43-0.586-0.586-1.43z"></path>
</svg>
