<!-- Generated by IcoMoon.io -->
<svg version="1.1" xmlns="http://www.w3.org/2000/svg" width="24" height="24" viewBox="0 0 24 24">
<title>add_a_photo</title>
<path d="M9.797 14.016q0-1.359 0.938-2.297t2.25-0.938q1.359 0 2.297 0.938t0.938 2.297q0 1.313-0.938 2.25t-2.297 0.938-2.273-0.914-0.914-2.273zM12.984 18.984q2.063 0 3.539-1.453t1.477-3.516-1.477-3.539-3.539-1.477-3.516 1.477-1.453 3.539 1.453 3.516 3.516 1.453zM6 9.984v-3h3v-3h6.984l1.828 2.016h3.188q0.797 0 1.406 0.609t0.609 1.406v12q0 0.797-0.609 1.383t-1.406 0.586h-15.984q-0.797 0-1.406-0.586t-0.609-1.383v-10.031h3zM3 3.984v-3h2.016v3h3v2.016h-3v3h-2.016v-3h-3v-2.016h3z"></path>
</svg>
