<!-- Generated by IcoMoon.io -->
<svg version="1.1" xmlns="http://www.w3.org/2000/svg" width="24" height="24" viewBox="0 0 24 24">
<title>airline_seat_legroom_extra</title>
<path d="M22.828 17.25q0.328 0.563 0.094 1.172t-0.797 0.891l-3.703 1.688-3.422-6.984h-6.984q-1.219 0-2.109-0.891t-0.891-2.109v-8.016h6v6h3.516q0.516 0 1.031 0.328t0.75 0.797l3.375 6.984 1.125-0.516q0.563-0.234 1.148-0.047t0.867 0.703zM3.984 12q0 1.219 0.891 2.109t2.109 0.891h6v2.016h-6q-2.063 0-3.516-1.477t-1.453-3.539v-9h1.969v9z"></path>
</svg>
