<!-- Generated by IcoMoon.io -->
<svg version="1.1" xmlns="http://www.w3.org/2000/svg" width="24" height="24" viewBox="0 0 24 24">
<title>all_inclusive</title>
<path d="M18.609 6.609q2.25 0 3.82 1.594t1.57 3.797-1.57 3.797-3.82 1.594h-0.047q-0.891 0-1.992-0.469t-1.805-1.125l-1.266-1.125 1.5-1.313 1.172 0.984q1.031 1.031 2.438 1.031t2.391-0.984 0.984-2.391-0.984-2.391-2.391-0.984-2.391 0.984q-3.328 2.906-4.219 3.75l-2.813 2.484q-1.547 1.547-3.797 1.547t-3.82-1.594-1.57-3.797 1.57-3.797 3.82-1.594h0.047q0.938 0 2.039 0.469t1.758 1.125l1.266 1.125-1.547 1.313-1.125-0.984q-1.031-1.031-2.438-1.031t-2.391 0.984-0.984 2.391 0.984 2.391 2.391 0.984 2.391-0.984q3.328-2.906 4.219-3.75l2.813-2.484q1.547-1.547 3.797-1.547z"></path>
</svg>
