<!-- Generated by IcoMoon.io -->
<svg version="1.1" xmlns="http://www.w3.org/2000/svg" width="24" height="24" viewBox="0 0 24 24">
<title>assistant_direction</title>
<path d="M19.734 12.563q0.656-0.656 0-1.125l-7.172-7.219q-0.609-0.469-1.172 0l-7.172 7.219q-0.234 0.375-0.234 0.563t0.234 0.563l7.172 7.219q0.609 0.469 1.172 0zM12 0.984q4.594 0 7.805 3.211t3.211 7.805-3.211 7.805-7.805 3.211-7.805-3.211-3.211-7.805 3.211-7.805 7.805-3.211zM14.016 9.984v-2.484l3.469 3.516-3.469 3.469v-2.484h-4.031v3h-1.969v-3.984q0-1.031 0.984-1.031h5.016z"></path>
</svg>
