<!-- Generated by IcoMoon.io -->
<svg version="1.1" xmlns="http://www.w3.org/2000/svg" width="24" height="24" viewBox="0 0 24 24">
<title>assignment</title>
<path d="M17.016 9v-2.016h-10.031v2.016h10.031zM17.016 12.984v-1.969h-10.031v1.969h10.031zM14.016 17.016v-2.016h-7.031v2.016h7.031zM12 3q-0.422 0-0.703 0.281t-0.281 0.703 0.281 0.727 0.703 0.305 0.703-0.305 0.281-0.727-0.281-0.703-0.703-0.281zM18.984 3q0.797 0 1.406 0.609t0.609 1.406v13.969q0 0.797-0.609 1.406t-1.406 0.609h-13.969q-0.797 0-1.406-0.609t-0.609-1.406v-13.969q0-0.797 0.609-1.406t1.406-0.609h4.172q0.328-0.891 1.078-1.453t1.734-0.563 1.734 0.563 1.078 1.453h4.172z"></path>
</svg>
