<!-- Generated by IcoMoon.io -->
<svg version="1.1" xmlns="http://www.w3.org/2000/svg" width="24" height="24" viewBox="0 0 24 24">
<title>blur_off</title>
<path d="M3 13.5q0.516 0 0.516 0.516 0 0.469-0.516 0.469t-0.516-0.469q0-0.516 0.516-0.516zM6 17.016q0.422 0 0.703 0.281t0.281 0.703-0.281 0.703-0.703 0.281-0.703-0.281-0.281-0.703 0.281-0.703 0.703-0.281zM9.984 20.484q0.516 0 0.516 0.516t-0.516 0.516q-0.469 0-0.469-0.516t0.469-0.516zM3 9.516q0.516 0 0.516 0.469 0 0.516-0.516 0.516t-0.516-0.516q0-0.469 0.516-0.469zM6 12.984q0.422 0 0.703 0.305t0.281 0.727-0.281 0.703-0.703 0.281-0.703-0.281-0.281-0.703 0.281-0.727 0.703-0.305zM21 13.5q0.516 0 0.516 0.516 0 0.469-0.516 0.469t-0.516-0.469q0-0.516 0.516-0.516zM9.984 17.016q0.422 0 0.727 0.281t0.305 0.703-0.305 0.703-0.727 0.281-0.703-0.281-0.281-0.703 0.281-0.703 0.703-0.281zM2.484 5.25l1.266-1.266 16.266 16.266-1.313 1.266-3.75-3.797q0.047 0.094 0.047 0.281 0 0.422-0.281 0.703t-0.703 0.281-0.727-0.281-0.305-0.703 0.305-0.703 0.727-0.281q0.188 0 0.281 0.047l-2.813-2.813q-0.094 0.516-0.516 0.891t-0.984 0.375q-0.609 0-1.055-0.445t-0.445-1.055q0-0.563 0.375-0.984t0.891-0.516l-2.813-2.813q0.047 0.094 0.047 0.281 0 0.422-0.281 0.727t-0.703 0.305-0.703-0.305-0.281-0.727 0.281-0.703 0.703-0.281l0.281 0.047zM14.016 20.484q0.469 0 0.469 0.516t-0.469 0.516q-0.516 0-0.516-0.516t0.516-0.516zM18 6.984q-0.422 0-0.703-0.281t-0.281-0.703 0.281-0.703 0.703-0.281 0.703 0.281 0.281 0.703-0.281 0.703-0.703 0.281zM18 11.016q-0.422 0-0.703-0.305t-0.281-0.727 0.281-0.703 0.703-0.281 0.703 0.281 0.281 0.703-0.281 0.727-0.703 0.305zM18 15q-0.422 0-0.703-0.281t-0.281-0.703 0.281-0.727 0.703-0.305 0.703 0.305 0.281 0.727-0.281 0.703-0.703 0.281zM9.984 6.984q-0.422 0-0.703-0.281t-0.281-0.703 0.281-0.703 0.703-0.281 0.727 0.281 0.305 0.703-0.305 0.703-0.727 0.281zM21 10.5q-0.516 0-0.516-0.516 0-0.469 0.516-0.469t0.516 0.469q0 0.516-0.516 0.516zM9.984 3.516q-0.469 0-0.469-0.516t0.469-0.516q0.516 0 0.516 0.516t-0.516 0.516zM14.016 3.516q-0.516 0-0.516-0.516t0.516-0.516q0.469 0 0.469 0.516t-0.469 0.516zM13.781 11.484q-0.469-0.047-0.844-0.422t-0.422-0.844v-0.234q0-0.609 0.445-1.055t1.055-0.445 1.055 0.445 0.445 1.055-0.445 1.055-1.055 0.445h-0.234zM14.016 6.984q-0.422 0-0.727-0.281t-0.305-0.703 0.305-0.703 0.727-0.281 0.703 0.281 0.281 0.703-0.281 0.703-0.703 0.281z"></path>
</svg>
