<!-- Generated by IcoMoon.io -->
<svg version="1.1" xmlns="http://www.w3.org/2000/svg" width="24" height="24" viewBox="0 0 24 24">
<title>blur_linear</title>
<path d="M12.984 17.016q-0.422 0-0.703-0.305t-0.281-0.727 0.281-0.703 0.703-0.281 0.727 0.281 0.305 0.703-0.305 0.727-0.727 0.305zM12.984 12.984q-0.422 0-0.703-0.281t-0.281-0.703 0.281-0.703 0.703-0.281 0.727 0.281 0.305 0.703-0.305 0.703-0.727 0.281zM12.984 9q-0.422 0-0.703-0.281t-0.281-0.703 0.281-0.727 0.703-0.305 0.727 0.305 0.305 0.727-0.305 0.703-0.727 0.281zM17.016 12.516q-0.516 0-0.516-0.516t0.516-0.516q0.469 0 0.469 0.516t-0.469 0.516zM17.016 8.484q-0.516 0-0.516-0.469 0-0.516 0.516-0.516 0.469 0 0.469 0.516 0 0.469-0.469 0.469zM3 3h18v2.016h-18v-2.016zM17.016 16.5q-0.516 0-0.516-0.516 0-0.469 0.516-0.469 0.469 0 0.469 0.469 0 0.516-0.469 0.516zM9 17.016q-0.422 0-0.703-0.305t-0.281-0.727 0.281-0.703 0.703-0.281 0.703 0.281 0.281 0.703-0.281 0.727-0.703 0.305zM5.016 13.5q-0.609 0-1.055-0.422t-0.445-1.078 0.445-1.078 1.055-0.422 1.055 0.422 0.445 1.078-0.445 1.078-1.055 0.422zM5.016 9.516q-0.609 0-1.055-0.445t-0.445-1.055 0.445-1.055 1.055-0.445 1.055 0.445 0.445 1.055-0.445 1.055-1.055 0.445zM3 21v-2.016h18v2.016h-18zM9 9q-0.422 0-0.703-0.281t-0.281-0.703 0.281-0.727 0.703-0.305 0.703 0.305 0.281 0.727-0.281 0.703-0.703 0.281zM9 12.984q-0.422 0-0.703-0.281t-0.281-0.703 0.281-0.703 0.703-0.281 0.703 0.281 0.281 0.703-0.281 0.703-0.703 0.281zM5.016 17.484q-0.609 0-1.055-0.445t-0.445-1.055 0.445-1.055 1.055-0.445 1.055 0.445 0.445 1.055-0.445 1.055-1.055 0.445z"></path>
</svg>
