<!-- Generated by IcoMoon.io -->
<svg version="1.1" xmlns="http://www.w3.org/2000/svg" width="24" height="24" viewBox="0 0 24 24">
<title>camera_enhance</title>
<path d="M12 17.016l-1.266-2.766-2.719-1.266 2.719-1.219 1.266-2.766 1.266 2.766 2.719 1.219-2.719 1.266zM12 18q2.063 0 3.539-1.477t1.477-3.539-1.477-3.516-3.539-1.453-3.539 1.453-1.477 3.516 1.477 3.539 3.539 1.477zM9 3h6l1.828 2.016h3.188q0.797 0 1.383 0.586t0.586 1.383v12q0 0.797-0.586 1.406t-1.383 0.609h-16.031q-0.797 0-1.383-0.609t-0.586-1.406v-12q0-0.797 0.586-1.383t1.383-0.586h3.188z"></path>
</svg>
