<!-- Generated by IcoMoon.io -->
<svg version="1.1" xmlns="http://www.w3.org/2000/svg" width="24" height="24" viewBox="0 0 24 24">
<title>cancel_schedule_send</title>
<path d="M18.281 14.016l0.703 0.703-1.781 1.781 1.781 1.781-0.703 0.703-1.781-1.781-1.781 1.781-0.703-0.703 1.781-1.781-1.781-1.781 0.703-0.703 1.781 1.781zM16.5 21.984q2.297 0 3.891-1.594t1.594-3.891-1.594-3.891-3.891-1.594-3.891 1.594-1.594 3.891 1.594 3.891 3.891 1.594zM16.5 9q3.094 0 5.297 2.203t2.203 5.297-2.203 5.297-5.297 2.203q-2.813 0-4.922-1.852t-2.484-4.617l-8.063 3.469-0.047-6.984 9-2.016-9-2.016 0.047-6.984 14.25 6.094q0.844-0.094 1.219-0.094z"></path>
</svg>
