<!-- Generated by IcoMoon.io -->
<svg version="1.1" xmlns="http://www.w3.org/2000/svg" width="24" height="24" viewBox="0 0 24 24">
<title>cases</title>
<path d="M3.984 9v11.016h16.031q0 0.844-0.586 1.406t-1.43 0.563h-14.016q-0.844 0-1.406-0.563t-0.563-1.406v-11.016h1.969zM15.984 6v-0.984q0-0.375-0.328-0.703t-0.656-0.328h-3q-0.375 0-0.68 0.305t-0.305 0.727v0.984h4.969zM9 6v-2.016l2.016-1.969h4.969l2.016 1.969v2.016h3.984v11.016q0 0.797-0.586 1.383t-1.383 0.586h-13.031q-0.797 0-1.383-0.586t-0.586-1.383v-11.016h3.984z"></path>
</svg>
