<!-- Generated by IcoMoon.io -->
<svg version="1.1" xmlns="http://www.w3.org/2000/svg" width="24" height="24" viewBox="0 0 24 24">
<title>celebration</title>
<path d="M15.047 5.859q0.328-0.328 0.328-0.844t-0.328-0.891l-1.594-1.594 1.078-1.078 1.594 1.594q0.797 0.891 0.797 1.969 0 1.031-0.797 1.922l-3.609 3.609-1.031-1.078zM17.063 11.859q0.891-0.797 1.922-0.797 1.078 0 1.969 0.797l1.594 1.641-1.031 1.031-1.641-1.594q-0.375-0.375-0.891-0.375-0.469 0-0.844 0.375l-1.594 1.594-1.078-1.078zM10.078 6.891q0.328-0.328 0.328-0.891t-0.328-0.891l-0.609-0.563 1.078-1.078 0.563 0.563q0.797 0.891 0.797 1.969 0 1.031-0.797 1.922l-0.563 0.609-1.078-1.078zM14.531 12.516l-1.078-1.031 5.625-5.625q0.891-0.797 1.922-0.797 1.078 0 1.969 0.797l0.563 0.609-1.031 1.078-0.609-0.609q-0.375-0.375-0.891-0.375t-0.891 0.375zM2.016 21.984l4.969-13.969 9 9z"></path>
</svg>
