<!-- Generated by IcoMoon.io -->
<svg version="1.1" xmlns="http://www.w3.org/2000/svg" width="24" height="24" viewBox="0 0 24 24">
<title>child_care</title>
<path d="M7.5 14.016h9q-0.563 1.359-1.781 2.18t-2.719 0.82-2.719-0.82-1.781-2.18zM12 18.984q2.391 0 4.242-1.406t2.461-3.609q0.047 0 0.141 0.023t0.141 0.023q0.797 0 1.406-0.609t0.609-1.406-0.609-1.406-1.406-0.609q-0.047 0-0.141 0.023t-0.141 0.023q-0.609-2.203-2.461-3.609t-4.242-1.406-4.242 1.406-2.461 3.609q-0.047 0-0.141-0.023t-0.141-0.023q-0.797 0-1.406 0.609t-0.609 1.406 0.609 1.406 1.406 0.609q0.047 0 0.141-0.023t0.141-0.023q0.609 2.203 2.461 3.609t4.242 1.406zM22.922 12.656q-0.188 1.031-0.984 1.969t-1.781 1.219q-1.031 2.203-3.258 3.68t-4.898 1.477q-3.328 0-5.953-2.297-1.453-1.266-2.156-2.859-0.984-0.281-1.805-1.219t-1.008-1.969q-0.094-0.375-0.094-0.656t0.094-0.656q0.188-1.031 1.008-1.969t1.805-1.219q0.797-1.781 2.156-2.906 2.531-2.25 5.953-2.25t5.953 2.25q1.453 1.359 2.156 2.906 0.984 0.281 1.805 1.219t1.008 1.969q0.094 0.375 0.094 0.656t-0.094 0.656zM8.25 10.5q0-0.516 0.375-0.891t0.891-0.375 0.867 0.375 0.352 0.891-0.352 0.891-0.867 0.375-0.891-0.375-0.375-0.891zM13.266 10.5q0-0.516 0.352-0.891t0.867-0.375 0.891 0.375 0.375 0.891-0.375 0.891-0.891 0.375-0.867-0.375-0.352-0.891z"></path>
</svg>
