<!-- Generated by IcoMoon.io -->
<svg version="1.1" xmlns="http://www.w3.org/2000/svg" width="24" height="24" viewBox="0 0 24 24">
<title>circle_notifications</title>
<path d="M17.016 15.984v-0.984l-1.031-0.984v-2.625q0-1.641-0.773-2.859t-2.227-1.547v-0.469q0-0.422-0.281-0.727t-0.703-0.305-0.703 0.305-0.281 0.727v0.469q-1.453 0.328-2.227 1.547t-0.773 2.859v2.625l-1.031 0.984v0.984h10.031zM12 18.516q0.656 0 1.078-0.445t0.422-1.055h-3q0 0.609 0.422 1.055t1.078 0.445zM12 2.016q4.125 0 7.055 2.93t2.93 7.055-2.93 7.055-7.055 2.93-7.055-2.93-2.93-7.055 2.93-7.055 7.055-2.93z"></path>
</svg>
