<!-- Generated by IcoMoon.io -->
<svg version="1.1" xmlns="http://www.w3.org/2000/svg" width="24" height="24" viewBox="0 0 24 24">
<title>contact_support</title>
<path d="M12.516 12.984q0-1.078 1.5-2.391t1.5-2.578q0-1.641-1.195-2.836t-2.836-1.195-2.813 1.195-1.172 2.836h2.016q0-0.797 0.586-1.406t1.383-0.609 1.406 0.609 0.609 1.406q0 0.656-0.469 1.172t-1.031 0.844-1.031 1.102-0.469 1.852h2.016zM12.516 16.5v-2.016h-2.016v2.016h2.016zM11.484 2.016q3.516 0 6.023 2.484t2.508 6q0 3.422-2.203 6.586t-5.813 4.898v-3h-0.516q-3.516 0-6-2.484t-2.484-6 2.484-6 6-2.484z"></path>
</svg>
