<!-- Generated by IcoMoon.io -->
<svg version="1.1" xmlns="http://www.w3.org/2000/svg" width="24" height="24" viewBox="0 0 24 24">
<title>directions_ferry</title>
<path d="M6 6v3.984l6-1.969 6 1.969v-3.984h-12zM3.938 18.984l-1.875-6.656q-0.047-0.094-0.047-0.328 0-0.656 0.703-0.938l1.266-0.422v-4.641q0-0.797 0.609-1.406t1.406-0.609h3v-3h6v3h3q0.797 0 1.406 0.609t0.609 1.406v4.641l1.266 0.422q0.984 0.328 0.656 1.266l-1.875 6.656h-0.047q-2.297 0-4.031-1.969-1.734 1.969-3.984 1.969t-3.984-1.969q-1.734 1.969-4.031 1.969h-0.047zM20.016 21h1.969v2.016h-1.969q-2.109 0-4.031-0.984-1.875 0.938-3.984 0.938t-3.984-0.938q-1.922 0.984-4.031 0.984h-1.969v-2.016h1.969q2.156 0 4.031-1.313 1.828 1.266 3.984 1.266t3.984-1.266q1.875 1.313 4.031 1.313z"></path>
</svg>
