<!-- Generated by IcoMoon.io -->
<svg version="1.1" xmlns="http://www.w3.org/2000/svg" width="24" height="24" viewBox="0 0 24 24">
<title>directions_bike</title>
<path d="M18.984 20.484q1.453 0 2.484-1.008t1.031-2.461-1.031-2.484-2.484-1.031-2.461 1.031-1.008 2.484 1.008 2.461 2.461 1.008zM18.984 12q2.109 0 3.563 1.453t1.453 3.563-1.453 3.539-3.563 1.43-3.539-1.43-1.43-3.539 1.43-3.563 3.539-1.453zM10.781 10.5l2.203 2.297v6.188h-1.969v-4.969l-3.234-2.813q-0.563-0.375-0.563-1.406 0-0.844 0.563-1.406l2.813-2.813q0.375-0.563 1.406-0.563 0.891 0 1.594 0.563l1.922 1.922q1.5 1.5 3.563 1.5v2.016q-2.953 0-5.063-2.109l-0.797-0.797zM5.016 20.484q1.453 0 2.461-1.008t1.008-2.461-1.008-2.484-2.461-1.031-2.484 1.031-1.031 2.484 1.031 2.461 2.484 1.008zM5.016 12q2.109 0 3.539 1.453t1.43 3.563-1.43 3.539-3.539 1.43-3.563-1.43-1.453-3.539 1.453-3.563 3.563-1.453zM15.516 5.484q-0.797 0-1.406-0.586t-0.609-1.383 0.609-1.406 1.406-0.609 1.383 0.609 0.586 1.406-0.586 1.383-1.383 0.586z"></path>
</svg>
