<!-- Generated by IcoMoon.io -->
<svg version="1.1" xmlns="http://www.w3.org/2000/svg" width="24" height="24" viewBox="0 0 24 24">
<title>do_not_disturb_off</title>
<path d="M6.984 12.984h3.469l-2.016-1.969h-1.453v1.969zM2.25 2.25l19.5 19.5-1.313 1.266-2.766-2.813q-2.531 1.781-5.672 1.781-4.125 0-7.055-2.93t-2.93-7.055q0-1.313 0.516-2.953t1.266-2.719l-2.813-2.766zM17.016 11.016h-3.469l-7.219-7.219q2.531-1.781 5.672-1.781 4.125 0 7.055 2.93t2.93 7.055q0 1.313-0.516 2.953t-1.266 2.719l-4.641-4.688h1.453v-1.969z"></path>
</svg>
