<!-- Generated by IcoMoon.io -->
<svg version="1.1" xmlns="http://www.w3.org/2000/svg" width="24" height="24" viewBox="0 0 24 24">
<title>dry_cleaning</title>
<path d="M18.563 14.016q0.422 0 0.422-0.422 0-0.328-0.234-0.422l-6.75-3-6.75 3q-0.234 0.094-0.234 0.375 0 0.469 0.422 0.469h1.547v-1.031h10.031v1.031h1.547zM19.547 11.344q1.453 0.609 1.453 2.203v0.047q0 1.031-0.703 1.711t-1.734 0.68h-1.547v6h-10.031v-6h-1.547q-1.031 0-1.734-0.68t-0.703-1.711v-0.047q0-1.547 1.453-2.156l6.563-2.953v-0.609q-1.031-0.375-1.594-1.336t-0.375-2.086q0.188-0.891 0.844-1.523t1.547-0.82q1.406-0.234 2.484 0.656t1.078 2.297h-2.016q0-0.422-0.281-0.727t-0.703-0.305-0.703 0.305-0.281 0.727 0.281 0.703 0.703 0.281 0.703 0.281 0.281 0.703v1.453z"></path>
</svg>
