<!-- Generated by IcoMoon.io -->
<svg version="1.1" xmlns="http://www.w3.org/2000/svg" width="24" height="24" viewBox="0 0 24 24">
<title>edit_location</title>
<path d="M14.906 7.547q0.281-0.234 0-0.516l-0.938-0.938q-0.094-0.094-0.234-0.094-0.188 0-0.281 0.094l-0.703 0.703 1.453 1.453zM10.453 12l3.328-3.328-1.453-1.453-3.328 3.328v1.453h1.453zM12 2.016q2.906 0 4.945 2.039t2.039 4.945q0 1.453-0.727 3.328t-1.758 3.516-2.039 3.070-1.711 2.273l-0.75 0.797q-0.281-0.328-0.75-0.867t-1.688-2.156-2.133-3.141-1.664-3.445-0.75-3.375q0-2.906 2.039-4.945t4.945-2.039z"></path>
</svg>
