<!-- Generated by IcoMoon.io -->
<svg version="1.1" xmlns="http://www.w3.org/2000/svg" width="24" height="24" viewBox="0 0 24 24">
<title>emoji_nature</title>
<path d="M12.188 14.578q0.516-0.609 0.469-1.336t-0.609-1.289q-0.609-0.609-1.359-0.609-0.703 0-1.266 0.469l1.594 0.609q0.047 0 0.141 0.047l0.375 0.375 0.047 0.094v0.047zM10.969 19.922q0.938-0.328 0.609-1.266l-1.172-3.141q-1.219 2.344-0.703 3.797 0.375 0.984 1.266 0.609zM4.688 14.297q1.453 0.516 3.797-0.703l-3.188-1.172q-0.891-0.328-1.219 0.609-0.375 0.891 0.609 1.266zM12 9.563q1.781 0.609 2.391 2.438h1.594v1.031h-1.359q0.141 1.875-1.125 3.141l-0.563 0.422 0.563 1.406q0.141 0.422 0.141 0.984 0 0.891-0.563 1.734t-1.406 1.125q-0.516 0.141-1.031 0.141-1.594 0-2.438-1.266-0.422 0.141-1.125 0.141-1.594 0-2.766-1.172-1.641-1.641-1.031-3.891-0.703-0.469-1.102-1.477t-0.023-1.992q0.281-0.797 1.125-1.383t1.734-0.586q0.563 0 0.984 0.141l1.406 0.563 0.422-0.563q1.172-1.172 2.813-1.172 0.047 0 0.188 0.023t0.188 0.023v-1.359h0.984v1.547zM18 6.984q0.422 0 0.703-0.281t0.281-0.703-0.281-0.703-0.703-0.281-0.703 0.281-0.281 0.703 0.281 0.703 0.703 0.281zM21.938 4.875q0.328 0.938-0.563 1.5l-0.844 0.516 0.375 1.219q0.281 0.609-0.117 1.242t-1.102 0.633q-0.563 0-0.891-0.281l-0.797-0.703-0.797 0.703q-0.328 0.281-0.891 0.281-0.703 0-1.102-0.633t-0.117-1.242l0.422-1.219-0.891-0.516q-0.891-0.563-0.563-1.5 0.328-0.891 1.266-0.891h1.078l0.281-0.938q0.234-1.031 1.313-1.031t1.313 1.031l0.281 0.938h1.125q0.844 0 1.219 0.891z"></path>
</svg>
