<!-- Generated by IcoMoon.io -->
<svg version="1.1" xmlns="http://www.w3.org/2000/svg" width="24" height="24" viewBox="0 0 24 24">
<title>emoji_food_beverage</title>
<path d="M3.984 18.984h16.031v2.016h-16.031v-2.016zM20.016 8.016v-3h-2.016v3h2.016zM20.016 3q0.844 0 1.406 0.586t0.563 1.43v3q0 0.844-0.563 1.406t-1.406 0.563h-2.016v3q0 1.641-1.172 2.836t-2.813 1.195h-6q-1.641 0-2.836-1.195t-1.195-2.836v-9.984h4.031v2.391l-1.828 1.453q-0.188 0.141-0.188 0.375v4.266q0 0.516 0.516 0.516h3.984q0.516 0 0.516-0.516v-4.266q0-0.234-0.188-0.375l-1.828-1.453v-2.391h11.016z"></path>
</svg>
