<!-- Generated by IcoMoon.io -->
<svg version="1.1" xmlns="http://www.w3.org/2000/svg" width="24" height="24" viewBox="0 0 24 24">
<title>emoji_emotions</title>
<path d="M15.516 11.016q0.609 0 1.055-0.445t0.445-1.055-0.445-1.055-1.055-0.445-1.055 0.445-0.445 1.055 0.445 1.055 1.055 0.445zM12 18q1.688 0 3.047-1.102t1.969-2.883h-10.031q0.609 1.781 1.969 2.883t3.047 1.102zM8.484 8.016q-0.609 0-1.055 0.445t-0.445 1.055 0.445 1.055 1.055 0.445 1.055-0.445 0.445-1.055-0.445-1.055-1.055-0.445zM12 2.016q4.125 0 7.055 2.93t2.93 7.055-2.93 7.055-7.055 2.93-7.055-2.93-2.93-7.055 2.93-7.055 7.055-2.93z"></path>
</svg>
