<!-- Generated by IcoMoon.io -->
<svg version="1.1" xmlns="http://www.w3.org/2000/svg" width="24" height="24" viewBox="0 0 24 24">
<title>euro</title>
<path d="M15 18.516q2.391 0 4.219-1.594l1.781 1.781q-2.531 2.297-6 2.297-2.906 0-5.227-1.688t-3.258-4.313h-4.5l0.984-2.016h3.047q-0.047-0.281-0.047-0.984t0.047-0.984h-4.031l0.984-2.016h3.516q0.938-2.625 3.258-4.313t5.227-1.688q1.406 0 3.188 0.68t2.813 1.617l-1.781 1.781q-1.828-1.594-4.219-1.594-1.641 0-3.328 1.031t-2.438 2.484h6.75l-0.984 2.016h-6.422q-0.094 0.656-0.094 0.984t0.094 0.984h7.406l-0.984 2.016h-5.766q0.75 1.453 2.438 2.484t3.328 1.031z"></path>
</svg>
