<!-- Generated by IcoMoon.io -->
<svg version="1.1" xmlns="http://www.w3.org/2000/svg" width="24" height="24" viewBox="0 0 24 24">
<title>fiber_pin</title>
<path d="M20.016 15v-6h-1.266v3.516l-2.484-3.516h-1.266v6h1.266v-3.516l2.531 3.516h1.219zM12.516 15v-6h-1.5v6h1.5zM9 11.484v-0.984q0-0.656-0.422-1.078t-1.078-0.422h-3.516v6h1.5v-2.016h2.016q0.656 0 1.078-0.445t0.422-1.055zM20.016 3.984q0.844 0 1.406 0.586t0.563 1.43v12q0 0.844-0.563 1.43t-1.406 0.586h-16.031q-0.844 0-1.406-0.586t-0.563-1.43v-12q0-0.844 0.563-1.43t1.406-0.586h16.031zM5.484 10.5h2.016v0.984h-2.016v-0.984z"></path>
</svg>
