<!-- Generated by IcoMoon.io -->
<svg version="1.1" xmlns="http://www.w3.org/2000/svg" width="24" height="24" viewBox="0 0 24 24">
<title>file_present</title>
<path d="M15.984 9.984v5.016q0 1.641-1.172 2.813t-2.813 1.172-2.813-1.172-1.172-2.813v-6.516q0-1.031 0.727-1.758t1.758-0.727h0.281q0.984 0.094 1.594 0.867t0.609 1.758v6.375h-1.969v-6.516q0-0.469-0.516-0.469t-0.516 0.469v6.516q0 0.797 0.609 1.406t1.406 0.609 1.406-0.609 0.609-1.406v-5.016h1.969zM6 20.016h12v-12h-3.984v-4.031h-8.016v16.031zM15 2.016l5.016 4.969v13.031q0 0.797-0.609 1.383t-1.406 0.586h-12q-0.797 0-1.406-0.586t-0.609-1.383v-16.031q0-0.797 0.609-1.383t1.406-0.586h9z"></path>
</svg>
