<!-- Generated by IcoMoon.io -->
<svg version="1.1" xmlns="http://www.w3.org/2000/svg" width="24" height="24" viewBox="0 0 24 24">
<title>find_replace</title>
<path d="M16.641 15.141l4.828 4.875-1.453 1.453-4.875-4.828q-1.875 1.359-4.125 1.359h-0.047q-1.172 0-2.625-0.609t-2.297-1.453l-2.063 2.063v-6h6l-2.531 2.531q1.453 1.453 3.563 1.453 1.688 0 3.094-1.172t1.781-2.813h2.016q-0.234 1.734-1.266 3.141zM11.016 6q-1.688 0-3.141 1.172t-1.781 2.813h-2.016q0.375-2.531 2.344-4.266t4.594-1.734q1.172 0 2.625 0.609t2.297 1.453l2.063-2.063v6h-6l2.531-2.531q-1.453-1.453-3.516-1.453z"></path>
</svg>
