<!-- Generated by IcoMoon.io -->
<svg version="1.1" xmlns="http://www.w3.org/2000/svg" width="24" height="24" viewBox="0 0 24 24">
<title>fingerprint</title>
<path d="M14.906 21.984h-0.141q-2.156-0.563-3.703-2.109-0.891-0.891-1.523-2.414t-0.633-2.789q0-1.219 0.891-2.086t2.156-0.867 2.18 0.867 0.914 2.086q0 0.797 0.586 1.359t1.477 0.563 1.5-0.563 0.609-1.359q0-2.813-2.133-4.828t-5.133-2.016q-2.156 0-3.938 1.102t-2.672 2.93q-0.563 1.172-0.563 2.813 0 1.875 0.656 3.609 0.141 0.469-0.328 0.609t-0.609-0.281q-0.75-1.922-0.75-3.938 0-1.828 0.703-3.234 0.984-2.109 3.023-3.375t4.477-1.266q3.422 0 5.836 2.32t2.414 5.555q0 1.219-0.914 2.063t-2.18 0.844-2.156-0.844-0.891-2.063q0-0.797-0.609-1.383t-1.5-0.586-1.477 0.586-0.586 1.383q0 2.625 1.875 4.5 1.313 1.313 3.281 1.828 0.422 0.047 0.328 0.609-0.094 0.375-0.469 0.375zM12.422 14.672q0 1.734 1.289 3t3.211 1.266q0.094 0 0.422-0.047t0.539-0.047 0.422 0.070 0.258 0.305q0.094 0.516-0.422 0.609-0.563 0.094-1.219 0.094-1.875 0-3.094-0.891-2.391-1.641-2.391-4.359 0-0.516 0.516-0.516 0.469 0 0.469 0.516zM9.75 21.797q-0.188 0-0.328-0.141-1.266-1.266-2.016-2.672-1.078-1.875-1.078-4.313 0-2.203 1.664-3.797t4.008-1.594 4.008 1.594 1.664 3.797q0 0.469-0.516 0.469t-0.516-0.469q0-1.828-1.359-3.117t-3.281-1.289-3.281 1.289-1.359 3.117q0 2.25 0.891 3.844 0.609 1.078 1.875 2.438 0.375 0.328 0 0.703-0.141 0.141-0.375 0.141zM3.516 9.703q-0.516 0-0.516-0.469 0-0.094 0.094-0.281 1.5-2.156 3.75-3.281 2.344-1.219 5.156-1.219t5.156 1.219q2.297 1.125 3.75 3.234 0.094 0.188 0.094 0.281 0 0.328-0.375 0.469t-0.563-0.188q-1.406-1.922-3.375-2.906-2.156-1.078-4.688-1.102t-4.688 1.102q-2.109 1.078-3.422 2.953-0.141 0.188-0.375 0.188zM17.813 4.453q-0.188 0-0.234-0.047-2.766-1.406-5.578-1.406-3.047 0-5.578 1.406-0.234 0.141-0.469 0t-0.234-0.422q0-0.328 0.234-0.469 2.719-1.5 6.047-1.5 3.047 0 6.047 1.5 0.422 0.234 0.188 0.656-0.188 0.281-0.422 0.281z"></path>
</svg>
