<!-- Generated by IcoMoon.io -->
<svg version="1.1" xmlns="http://www.w3.org/2000/svg" width="24" height="24" viewBox="0 0 24 24">
<title>fireplace</title>
<path d="M20.016 20.016v-16.031h-16.031v16.031h2.016v-2.016h2.25q-1.172-1.5-1.266-3l-0.047-0.281v-0.422t0.070-0.586 0.164-0.75 0.281-0.844 0.492-0.938 0.773-0.984 1.055-1.055 1.406-1.078 1.805-1.078q-0.094 0.281-0.141 0.773t0.469 1.734 1.828 2.133q1.875 1.313 1.875 3.375 0 1.641-1.031 3h2.016v2.016h2.016zM11.859 16.969q0.938 0.797 2.086 0.352t1.289-1.711q0.094-0.891-0.844-1.828t-1.125-1.313q-0.234 0.656-0.094 1.266 0.047 0.188 0.141 0.539t0.117 0.516-0.023 0.539q-0.094 0.469-0.539 0.961t-1.008 0.68zM2.016 2.016h19.969v19.969h-19.969v-19.969z"></path>
</svg>
