<!-- Generated by IcoMoon.io -->
<svg version="1.1" xmlns="http://www.w3.org/2000/svg" width="24" height="24" viewBox="0 0 24 24">
<title>flip_to_back</title>
<path d="M15 17.016v-2.016h2.016v2.016h-2.016zM15 5.016v-2.016h2.016v2.016h-2.016zM5.016 6.984v12h12v2.016h-12q-0.844 0-1.43-0.586t-0.586-1.43v-12h2.016zM18.984 17.016v-2.016h2.016q0 0.797-0.609 1.406t-1.406 0.609zM18.984 9v-2.016h2.016v2.016h-2.016zM18.984 12.984v-1.969h2.016v1.969h-2.016zM9 17.016q-0.844 0-1.43-0.586t-0.586-1.43h2.016v2.016zM12.984 3v2.016h-1.969v-2.016h1.969zM18.984 3q0.797 0 1.406 0.609t0.609 1.406h-2.016v-2.016zM12.984 15v2.016h-1.969v-2.016h1.969zM9 3v2.016h-2.016q0-0.844 0.586-1.43t1.43-0.586zM9 11.016v1.969h-2.016v-1.969h2.016zM9 6.984v2.016h-2.016v-2.016h2.016z"></path>
</svg>
