<!-- Generated by IcoMoon.io -->
<svg version="1.1" xmlns="http://www.w3.org/2000/svg" width="24" height="24" viewBox="0 0 24 24">
<title>flip_camera_android</title>
<path d="M15.984 14.016h6v6h-1.969v-2.016q-3 3.984-8.016 3.984-3.609 0-6.352-2.273t-3.445-5.695h2.063q0.656 2.578 2.813 4.289t4.922 1.711q2.156 0 4.008-1.102t2.883-2.93h-2.906v-1.969zM8.016 9.984h-6v-6h1.969v2.016q3-3.984 8.016-3.984 3.609 0 6.352 2.273t3.445 5.695h-2.063q-0.656-2.578-2.813-4.289t-4.922-1.711q-2.156 0-4.008 1.102t-2.883 2.93h2.906v1.969zM9 12q0-1.219 0.891-2.109t2.109-0.891 2.109 0.891 0.891 2.109-0.891 2.109-2.109 0.891-2.109-0.891-0.891-2.109z"></path>
</svg>
