<!-- Generated by IcoMoon.io -->
<svg version="1.1" xmlns="http://www.w3.org/2000/svg" width="24" height="24" viewBox="0 0 24 24">
<title>forward_5</title>
<path d="M11.719 13.594q-0.328 0.141-0.328 0.188l-0.094 0.141h-0.609l0.234-2.203h2.391v0.703h-1.734l-0.094 0.891q0.094 0 0.094-0.094 0-0.047 0.070-0.070t0.070-0.070h0.375q0.375 0 0.516 0.141 0.047 0.047 0.188 0.141t0.188 0.141q0.422 0.422 0.422 1.078 0 0.422-0.094 0.516-0.047 0.047-0.141 0.234t-0.188 0.281q-0.375 0.375-1.078 0.375-0.422 0-0.516-0.094-0.047-0.047-0.211-0.094t-0.258-0.094q-0.422-0.234-0.422-0.891h0.797q0 0.469 0.609 0.469 0.188 0 0.281-0.094l0.234-0.188q0.094-0.188 0.094-0.281v-0.609l-0.094-0.188-0.234-0.234q-0.188-0.094-0.281-0.094h-0.188zM3.984 12.984q0-3.281 2.344-5.625t5.672-2.344v-4.031l5.016 5.016-5.016 5.016v-4.031q-2.438 0-4.219 1.758t-1.781 4.242 1.781 4.242 4.219 1.758 4.219-1.758 1.781-4.242h2.016q0 3.328-2.367 5.672t-5.648 2.344-5.648-2.344-2.367-5.672z"></path>
</svg>
