<!-- Generated by IcoMoon.io -->
<svg version="1.1" xmlns="http://www.w3.org/2000/svg" width="24" height="24" viewBox="0 0 24 24">
<title>forward_10</title>
<path d="M13.219 15.188q0 0.328 0.469 0.328 0.234 0 0.328-0.094l0.188-0.234q0.094-0.188 0.094-0.281v-2.016q-0.094-0.188-0.094-0.281t-0.211-0.211-0.305-0.117q-0.141 0-0.281 0.141l-0.188 0.188q-0.141 0.188-0.141 0.281v2.016q0.141 0.188 0.141 0.281zM15.094 14.203q0 0.609-0.094 0.797l-0.281 0.609q-0.328 0.281-0.516 0.281-0.094 0-0.305 0.047t-0.305 0.047q-0.422 0-0.609-0.094-0.094-0.047-0.234-0.141t-0.234-0.141q-0.422-0.234-0.422-1.406v-0.703q0-0.609 0.094-0.797l0.328-0.609q0.281-0.281 0.469-0.281 0.094 0 0.305-0.047t0.305-0.047q0.422 0 0.609 0.094 0.094 0.047 0.258 0.141t0.258 0.141 0.281 0.609q0.094 0.281 0.094 0.797v0.703zM10.922 15.984h-0.938v-3.281l-0.984 0.281v-0.703l1.781-0.563h0.141v4.266zM3.984 12.984q0-3.281 2.344-5.625t5.672-2.344v-4.031l5.016 5.016-5.016 5.016v-4.031q-2.438 0-4.219 1.758t-1.781 4.242 1.781 4.242 4.219 1.758 4.219-1.758 1.781-4.242h2.016q0 3.328-2.367 5.672t-5.648 2.344-5.648-2.344-2.367-5.672z"></path>
</svg>
