<!-- Generated by IcoMoon.io -->
<svg version="1.1" xmlns="http://www.w3.org/2000/svg" width="24" height="24" viewBox="0 0 24 24">
<title>g_translate</title>
<path d="M21.516 20.484v-13.969q0-0.422-0.305-0.727t-0.727-0.305h-9.047l1.313 3.797h1.453v-1.266h1.266v1.266h4.547v1.313h-1.922q-0.703 2.344-2.391 4.219l3.281 3.281-0.938 0.891-3.094-3.094 1.031 3.094-1.969 2.531h6.469q0.422 0 0.727-0.305t0.305-0.727zM13.172 10.594l0.797 2.344 0.844 1.125q1.453-1.594 2.063-3.469h-3.703zM6.984 15.984q2.156 0 3.492-1.359t1.336-3.516q0-0.047-0.141-1.031h-4.688v1.734h2.953q-0.094 0.891-0.844 1.641t-2.109 0.75q-1.313 0-2.227-0.938t-0.914-2.25q0-1.359 0.914-2.297t2.227-0.938q1.266 0 2.063 0.797l1.313-1.266q-1.453-1.313-3.375-1.313-2.063 0-3.516 1.477t-1.453 3.539 1.453 3.516 3.516 1.453zM21 3.984q0.797 0 1.406 0.609t0.609 1.406v15q0 0.797-0.609 1.406t-1.406 0.609h-9l-0.984-3h-8.016q-0.797 0-1.406-0.609t-0.609-1.406v-15q0-0.797 0.609-1.406t1.406-0.609h6.984l1.031 3h9.984z"></path>
</svg>
