<!-- Generated by IcoMoon.io -->
<svg version="1.1" xmlns="http://www.w3.org/2000/svg" width="24" height="24" viewBox="0 0 24 24">
<title>goat</title>
<path d="M23.953 9.094q0.047 0.047 0.047 0.117t-0.047 0.117l-1.172 1.5q-0.094 0.094-0.188 0.094l-0.703-0.141-0.328 1.031q-0.094 0.188-0.305 0.188t-0.305-0.188l-0.656-1.406-1.078-0.234-2.203 5.25 0.797 6.375q0 0.188-0.188 0.188h-0.938q-0.094 0-0.188-0.141l-0.938-3.797-0.469-0.797-1.172 4.594q0 0.141-0.188 0.141h-0.984q-0.188 0-0.188-0.188l1.078-6.328h-6.328l-1.641 3.094 0.375 3.188q0.094 0.234-0.188 0.234h-0.938q-0.141 0-0.188-0.094l-1.313-4.781-1.594 1.828 0.281 2.813q0.094 0.234-0.188 0.234h-1.031q-0.188 0-0.188-0.094l-0.609-2.625 0.984-3.844v-6.75q-1.078-0.422-1.078-1.406h12.844q2.25 0.047 4.453-1.547-0.375-1.031 0.281-1.688 1.313 0.938 1.688 1.172 0.328 0.188 0.539-0.070t0.117-0.586q-0.422-1.313-2.109-1.969-0.047 0-0.141-0.047-0.563-0.141-0.469-0.375 0-0.141 0.188-0.141 1.359 0.188 2.32 1.055t1.289 1.664l0.188 0.141q0.141 0.188 0.305 0.375t0.281 0.539 0.070 0.727q0 0.234 0.094 0.328z"></path>
</svg>
