<!-- Generated by IcoMoon.io -->
<svg version="1.1" xmlns="http://www.w3.org/2000/svg" width="24" height="24" viewBox="0 0 24 24">
<title>grid_off</title>
<path d="M15.984 20.016h1.453l-1.453-1.453v1.453zM14.016 20.016v-3.469l-0.563-0.563h-3.469v4.031h4.031zM8.016 14.016v-3.469l-0.563-0.563h-3.469v4.031h4.031zM8.016 20.016v-4.031h-4.031v4.031h4.031zM3.984 6.563v1.453h1.453zM9.984 12.563v1.453h1.453zM1.266 1.266l21.469 21.469-1.266 1.266-2.016-2.016h-15.469q-0.797 0-1.383-0.586t-0.586-1.383v-15.469l-2.016-2.016zM15.984 3.984v4.031h4.031v-4.031h-4.031zM8.016 3.984h-1.453l-2.016-1.969h15.469q0.797 0 1.383 0.586t0.586 1.383v15.469l-1.969-2.016v-1.453h-1.453l-2.016-1.969h3.469v-4.031h-4.031v3.469l-1.969-2.016v-1.453h-1.453l-2.016-1.969h3.469v-4.031h-4.031v3.469l-1.969-2.016v-1.453z"></path>
</svg>
