<!-- Generated by IcoMoon.io -->
<svg version="1.1" xmlns="http://www.w3.org/2000/svg" width="24" height="24" viewBox="0 0 24 24">
<title>group_work</title>
<path d="M15.984 17.484q1.031 0 1.781-0.727t0.75-1.758-0.75-1.758-1.781-0.727-1.758 0.727-0.727 1.758 0.727 1.758 1.758 0.727zM9.516 8.016q0 1.031 0.727 1.758t1.758 0.727 1.758-0.727 0.727-1.758-0.727-1.781-1.758-0.75-1.758 0.75-0.727 1.781zM8.016 17.484q1.031 0 1.758-0.727t0.727-1.758-0.727-1.758-1.758-0.727-1.781 0.727-0.75 1.758 0.75 1.758 1.781 0.727zM12 2.016q4.125 0 7.055 2.93t2.93 7.055-2.93 7.055-7.055 2.93-7.055-2.93-2.93-7.055 2.93-7.055 7.055-2.93z"></path>
</svg>
