<!-- Generated by IcoMoon.io -->
<svg version="1.1" xmlns="http://www.w3.org/2000/svg" width="24" height="24" viewBox="0 0 24 24">
<title>hail</title>
<path d="M3.984 15.984h3v6h-3v-6zM18.984 2.391q-0.094 2.203-1.125 3.82t-2.859 2.18v13.594h-2.016v-6h-1.969v6h-2.016v-11.906q-0.422 0.141-0.609 0.328-1.406 1.125-1.406 3.094v0.516h-1.969v-0.516q0-2.953 2.109-4.781 2.109-1.734 4.875-1.734 2.109 0 3.469-1.031 1.547-1.266 1.547-3.469v-0.469h1.969v0.375zM12 6q-0.797 0-1.406-0.609t-0.609-1.406 0.609-1.383 1.406-0.586 1.406 0.586 0.609 1.383-0.609 1.406-1.406 0.609z"></path>
</svg>
