<!-- Generated by IcoMoon.io -->
<svg version="1.1" xmlns="http://www.w3.org/2000/svg" width="24" height="24" viewBox="0 0 24 24">
<title>hdr_strong</title>
<path d="M5.016 14.016q0.797 0 1.383-0.609t0.586-1.406-0.586-1.406-1.383-0.609-1.406 0.609-0.609 1.406 0.609 1.406 1.406 0.609zM5.016 8.016q1.641 0 2.813 1.172t1.172 2.813-1.172 2.813-2.813 1.172-2.836-1.172-1.195-2.813 1.195-2.813 2.836-1.172zM17.016 6q2.484 0 4.242 1.758t1.758 4.242-1.758 4.242-4.242 1.758-4.242-1.758-1.758-4.242 1.758-4.242 4.242-1.758z"></path>
</svg>
