<!-- Generated by IcoMoon.io -->
<svg version="1.1" xmlns="http://www.w3.org/2000/svg" width="24" height="24" viewBox="0 0 24 24">
<title>headset_off</title>
<path d="M2.25 1.734l20.016 20.016-1.266 1.266-2.156-2.156q-0.422 0.141-0.844 0.141h-3v-3.984l-9.188-9.234q-0.797 1.453-0.797 3.234v1.969h3.984v8.016h-3q-1.219 0-2.109-0.891t-0.891-2.109v-6.984q0-2.625 1.313-4.688l-3.328-3.328zM12 3.984q-2.063 0-3.797 1.125l-1.453-1.406q2.297-1.688 5.25-1.688 3.75 0 6.375 2.648t2.625 6.352v6.891l-4.922-4.922h2.906v-1.969q0-2.906-2.039-4.969t-4.945-2.063z"></path>
</svg>
