<!-- Generated by IcoMoon.io -->
<svg version="1.1" xmlns="http://www.w3.org/2000/svg" width="24" height="24" viewBox="0 0 24 24">
<title>hearing</title>
<path d="M11.484 9q0-1.031 0.75-1.758t1.781-0.727 1.758 0.727 0.727 1.758-0.727 1.758-1.758 0.727-1.781-0.727-0.75-1.758zM7.641 2.625q-2.625 2.625-2.625 6.375t2.625 6.375l-1.406 1.406q-3.234-3.234-3.234-7.781t3.234-7.781zM17.016 20.016q0.797 0 1.383-0.609t0.586-1.406h2.016q0 1.641-1.172 2.813t-2.813 1.172q-0.891 0-1.641-0.328-1.922-0.984-2.766-3.563-0.328-1.031-1.688-2.063-1.922-1.406-2.859-3.141-1.078-1.922-1.078-3.891 0-2.953 2.039-4.969t4.992-2.016 4.969 2.016 2.016 4.969h-2.016q0-2.109-1.43-3.563t-3.539-1.453-3.563 1.453-1.453 3.563q0 1.5 0.797 2.953 0.656 1.266 2.344 2.531 1.875 1.406 2.391 3 0.609 1.781 1.688 2.344 0.375 0.188 0.797 0.188z"></path>
</svg>
