<!-- Generated by IcoMoon.io -->
<svg version="1.1" xmlns="http://www.w3.org/2000/svg" width="24" height="24" viewBox="0 0 24 24">
<title>high_quality</title>
<path d="M14.484 13.5v-3h2.016v3h-2.016zM18 14.016v-4.031q0-0.422-0.281-0.703t-0.703-0.281h-3q-0.422 0-0.727 0.281t-0.305 0.703v4.031q0 0.422 0.305 0.703t0.727 0.281h0.75v1.5h1.5v-1.5h0.75q0.422 0 0.703-0.281t0.281-0.703zM11.016 15v-6h-1.5v2.484h-2.016v-2.484h-1.5v6h1.5v-2.016h2.016v2.016h1.5zM18.984 3.984q0.797 0 1.406 0.609t0.609 1.406v12q0 0.797-0.609 1.406t-1.406 0.609h-13.969q-0.844 0-1.43-0.586t-0.586-1.43v-12q0-0.844 0.586-1.43t1.43-0.586h13.969z"></path>
</svg>
