<!-- Generated by IcoMoon.io -->
<svg version="1.1" xmlns="http://www.w3.org/2000/svg" width="24" height="24" viewBox="0 0 24 24">
<title>k_plus7</title>
<path d="M20.016 12.516v-1.031h-1.5v-1.5h-1.031v1.5h-1.5v1.031h1.5v1.5h1.031v-1.5h1.5zM15.984 15l-2.25-3 2.25-3h-1.734l-1.734 2.25v-2.25h-1.5v6h1.5v-2.25l1.734 2.25h1.734zM9.516 14.016v-4.031q0-0.422-0.305-0.703t-0.727-0.281h-2.484q-0.422 0-0.703 0.281t-0.281 0.703v4.031q0 0.422 0.281 0.703t0.703 0.281h2.484q0.422 0 0.727-0.281t0.305-0.703zM18.984 3q0.797 0 1.406 0.609t0.609 1.406v13.969q0 0.797-0.609 1.406t-1.406 0.609h-13.969q-0.797 0-1.406-0.609t-0.609-1.406v-13.969q0-0.797 0.609-1.406t1.406-0.609h13.969zM6.516 9.984h1.5v1.5h-1.5v-1.5zM6.516 12.516h1.5v1.5h-1.5v-1.5z"></path>
</svg>
