<!-- Generated by IcoMoon.io -->
<svg version="1.1" xmlns="http://www.w3.org/2000/svg" width="24" height="24" viewBox="0 0 24 24">
<title>leak_remove</title>
<path d="M15.375 11.578q2.672-1.594 5.625-1.594v2.016q-2.203 0-4.172 1.031zM19.922 16.125l-1.594-1.594q1.266-0.516 2.672-0.516v1.969q-0.563 0-1.078 0.141zM14.016 3q0 2.953-1.594 5.625l-1.453-1.453q1.031-1.969 1.031-4.172h2.016zM3 4.266l1.266-1.266 16.734 16.734-1.266 1.266-2.859-2.859q-0.891 1.266-0.891 2.859h-1.969q0-0.984 0.422-2.227t1.031-2.039l-1.453-1.406q-2.016 2.484-2.016 5.672h-2.016q0-1.688 0.773-3.773t1.852-3.352l-2.484-2.484q-3.094 2.625-7.125 2.625v-2.016q1.359 0 3.023-0.586t2.695-1.43l-1.453-1.453q-1.922 1.453-4.266 1.453v-1.969q1.594 0 2.859-0.891zM9.984 3q0 1.406-0.516 2.672l-1.594-1.594q0.141-0.516 0.141-1.078h1.969z"></path>
</svg>
