<!-- Generated by IcoMoon.io -->
<svg version="1.1" xmlns="http://www.w3.org/2000/svg" width="24" height="24" viewBox="0 0 24 24">
<title>line_style</title>
<path d="M3 3.984h18v4.031h-18v-4.031zM12.984 12v-2.016h8.016v2.016h-8.016zM3 12v-2.016h8.016v2.016h-8.016zM18.984 20.016v-2.016h2.016v2.016h-2.016zM15 20.016v-2.016h2.016v2.016h-2.016zM11.016 20.016v-2.016h1.969v2.016h-1.969zM6.984 20.016v-2.016h2.016v2.016h-2.016zM3 20.016v-2.016h2.016v2.016h-2.016zM15.984 15.984v-1.969h5.016v1.969h-5.016zM9.516 15.984v-1.969h4.969v1.969h-4.969zM3 15.984v-1.969h5.016v1.969h-5.016z"></path>
</svg>
