<!-- Generated by IcoMoon.io -->
<svg version="1.1" xmlns="http://www.w3.org/2000/svg" width="24" height="24" viewBox="0 0 24 24">
<title>linked_camera</title>
<path d="M15.984 6q0.844 0 1.43 0.586t0.586 1.43h1.313q0-1.359-0.984-2.344t-2.344-0.984v1.313zM12 18.984q2.063 0 3.539-1.453t1.477-3.516-1.477-3.539-3.539-1.477-3.539 1.477-1.477 3.539 1.477 3.516 3.539 1.453zM17.016 9h4.969v11.016q0 0.797-0.586 1.383t-1.383 0.586h-16.031q-0.797 0-1.383-0.586t-0.586-1.383v-12q0-0.797 0.586-1.406t1.383-0.609h3.188l1.828-2.016h6v3q0.844 0 1.43 0.586t0.586 1.43zM15.984 3.328v-1.313q2.484 0 4.242 1.758t1.758 4.242h-1.313q0-1.922-1.383-3.305t-3.305-1.383zM8.813 14.016q0-1.359 0.938-2.297t2.25-0.938 2.25 0.938 0.938 2.297-0.938 2.273-2.25 0.914-2.25-0.914-0.938-2.273z"></path>
</svg>
