<!-- Generated by IcoMoon.io -->
<svg version="1.1" xmlns="http://www.w3.org/2000/svg" width="24" height="24" viewBox="0 0 24 24">
<title>local_laundry_service</title>
<path d="M12 20.016q2.484 0 4.242-1.758t1.758-4.242-1.758-4.242-4.242-1.758-4.242 1.758-1.758 4.242 1.758 4.242 4.242 1.758zM6.984 3.984q-0.422 0-0.703 0.305t-0.281 0.727 0.281 0.703 0.703 0.281 0.727-0.281 0.305-0.703-0.305-0.727-0.727-0.305zM9.984 3.984q-0.422 0-0.703 0.305t-0.281 0.727 0.281 0.703 0.703 0.281 0.727-0.281 0.305-0.703-0.305-0.727-0.727-0.305zM18 2.016q0.844 0 1.43 0.563t0.586 1.406v16.031q0 0.844-0.586 1.406t-1.43 0.563h-12q-0.844 0-1.43-0.563t-0.586-1.406v-16.031q0-0.844 0.586-1.406t1.43-0.563h12zM9.188 16.828l5.625-5.672q1.172 1.172 1.172 2.859 0 1.641-1.172 2.813t-2.813 1.172-2.813-1.172z"></path>
</svg>
