<!-- Generated by IcoMoon.io -->
<svg version="1.1" xmlns="http://www.w3.org/2000/svg" width="24" height="24" viewBox="0 0 24 24">
<title>local_moviestheaters</title>
<path d="M18 9v-2.016h-2.016v2.016h2.016zM18 12.984v-1.969h-2.016v1.969h2.016zM18 17.016v-2.016h-2.016v2.016h2.016zM8.016 9v-2.016h-2.016v2.016h2.016zM8.016 12.984v-1.969h-2.016v1.969h2.016zM8.016 17.016v-2.016h-2.016v2.016h2.016zM18 3h2.016v18h-2.016v-2.016h-2.016v2.016h-7.969v-2.016h-2.016v2.016h-2.016v-18h2.016v2.016h2.016v-2.016h7.969v2.016h2.016v-2.016z"></path>
</svg>
