<!-- Generated by IcoMoon.io -->
<svg version="1.1" xmlns="http://www.w3.org/2000/svg" width="24" height="24" viewBox="0 0 24 24">
<title>local_attractionlocal_play</title>
<path d="M15.563 16.781l-1.078-4.078 3.281-2.719-4.219-0.234-1.547-3.938-1.547 3.938-4.266 0.234 3.328 2.719-1.078 4.078 3.563-2.297zM20.016 12q0 0.797 0.586 1.406t1.383 0.609v3.984q0 0.797-0.586 1.406t-1.383 0.609h-16.031q-0.797 0-1.383-0.609t-0.586-1.406v-3.984q0.844 0 1.406-0.586t0.563-1.43q0-0.797-0.586-1.406t-1.383-0.609v-3.984q0-0.797 0.586-1.406t1.383-0.609h16.031q0.797 0 1.383 0.609t0.586 1.406v3.984q-0.797 0-1.383 0.609t-0.586 1.406z"></path>
</svg>
