<!-- Generated by IcoMoon.io -->
<svg version="1.1" xmlns="http://www.w3.org/2000/svg" width="24" height="24" viewBox="0 0 24 24">
<title>looks_3</title>
<path d="M15 10.5v-1.5q0-0.844-0.563-1.43t-1.406-0.586h-4.031v2.016h4.031v2.016h-2.016v1.969h2.016v2.016h-4.031v2.016h4.031q0.844 0 1.406-0.586t0.563-1.43v-1.5q0-0.656-0.422-1.078t-1.078-0.422q0.656 0 1.078-0.422t0.422-1.078zM19.031 3q0.797 0 1.383 0.609t0.586 1.406v13.969q0 0.797-0.586 1.406t-1.383 0.609h-14.016q-0.797 0-1.406-0.609t-0.609-1.406v-13.969q0-0.797 0.609-1.406t1.406-0.609h14.016z"></path>
</svg>
