<!-- Generated by IcoMoon.io -->
<svg version="1.1" xmlns="http://www.w3.org/2000/svg" width="24" height="24" viewBox="0 0 24 24">
<title>monetization_on</title>
<path d="M13.406 18.094q3.141-0.609 3.141-3.141 0-2.859-4.219-3.938-2.625-0.656-2.625-1.922 0-0.703 0.633-1.172t1.758-0.469q2.109 0 2.203 1.875h1.969q-0.094-2.672-2.859-3.375v-1.969h-2.672v1.969q-1.359 0.281-2.227 1.102t-0.867 2.086q0 2.625 4.172 3.656 2.672 0.609 2.672 2.156 0 0.609-0.539 1.102t-1.852 0.492q-2.484 0-2.672-1.875h-1.969q0.141 2.672 3.281 3.375v1.969h2.672v-1.922zM12 2.016q4.125 0 7.055 2.93t2.93 7.055-2.93 7.055-7.055 2.93-7.055-2.93-2.93-7.055 2.93-7.055 7.055-2.93z"></path>
</svg>
