<!-- Generated by IcoMoon.io -->
<svg version="1.1" xmlns="http://www.w3.org/2000/svg" width="24" height="24" viewBox="0 0 24 24">
<title>monochrome_photos</title>
<path d="M20.016 18.984v-12h-8.016v1.031q2.109 0 3.563 1.43t1.453 3.539-1.453 3.563-3.563 1.453v-1.781q-1.313 0-2.25-0.938t-0.938-2.297 0.938-2.273 2.25-0.914v6.422q1.313 0 2.25-0.938t0.938-2.297-0.938-2.273-2.25-0.914v-1.781q-2.109 0-3.563 1.43t-1.453 3.539 1.453 3.563 3.563 1.453v0.984h8.016zM20.016 5.016q0.797 0 1.383 0.586t0.586 1.383v12q0 0.797-0.586 1.406t-1.383 0.609h-16.031q-0.797 0-1.383-0.609t-0.586-1.406v-12q0-0.797 0.586-1.383t1.383-0.586h3.234l1.781-2.016h6l1.781 2.016h3.234z"></path>
</svg>
