<!-- Generated by IcoMoon.io -->
<svg version="1.1" xmlns="http://www.w3.org/2000/svg" width="24" height="24" viewBox="0 0 24 24">
<title>motorcycle</title>
<path d="M17.484 17.016q1.031 0 1.758-0.75t0.727-1.781-0.727-1.758-1.758-0.727-1.781 0.727-0.75 1.758 0.75 1.781 1.781 0.75zM8.859 15.281l-2.859-0.047v-1.5h2.859q-0.563-1.734-2.391-1.734-1.031 0-1.758 0.727t-0.727 1.758 0.727 1.781 1.758 0.75q0.75 0 1.477-0.516t0.914-1.219zM17.484 9.984q1.875 0 3.188 1.313t1.313 3.188-1.313 3.188-3.188 1.313-3.188-1.313-1.313-3.188q0-0.094 0.023-0.234t0.023-0.234l-2.109 1.266q-0.281 1.547-1.57 2.625t-2.836 1.078q-1.875 0-3.188-1.313t-1.313-3.188 1.289-3.188 3.164-1.313h8.109l-1.969-1.969h-3.609v-2.016h4.406l4.031 4.031q0-0.047 0.047-0.047z"></path>
</svg>
