<!-- Generated by IcoMoon.io -->
<svg version="1.1" xmlns="http://www.w3.org/2000/svg" width="24" height="24" viewBox="0 0 24 24">
<title>music_video</title>
<path d="M8.016 15q0-1.219 0.891-2.109t2.109-0.891q0.328 0 0.984 0.188v-6.188h5.016v2.016h-3v7.031q0 1.219-0.891 2.086t-2.109 0.867-2.109-0.891-0.891-2.109zM21 18.984v-13.969h-18v13.969h18zM21 3q0.797 0 1.406 0.609t0.609 1.406v13.969q0 0.797-0.609 1.406t-1.406 0.609h-18q-0.797 0-1.406-0.609t-0.609-1.406v-13.969q0-0.797 0.609-1.406t1.406-0.609h18z"></path>
</svg>
