<!-- Generated by IcoMoon.io -->
<svg version="1.1" xmlns="http://www.w3.org/2000/svg" width="24" height="24" viewBox="0 0 24 24">
<title>network_check</title>
<path d="M5.016 12.984q3-3 7.313-2.859l-1.313 2.859q-0.984 0.141-2.156 0.727t-1.875 1.289zM17.016 15q-0.516-0.516-1.219-0.984l0.563-2.906q1.5 0.75 2.625 1.875zM21 11.016q-1.828-1.828-4.125-2.766l0.516-2.813q1.359 0.516 3 1.547t2.625 2.016zM0.984 9q2.766-2.766 6.398-3.867t7.336-0.445l-1.172 2.672q-2.859-0.375-5.648 0.586t-4.898 3.070zM15.891 5.016q0.516 0 0.516 0.469l-2.438 12.891v0.047q-0.141 0.656-0.703 1.125t-1.266 0.469q-0.844 0-1.43-0.586t-0.586-1.43q0-0.516 0.234-0.984l5.203-11.625q0.141-0.375 0.469-0.375z"></path>
</svg>
