<!-- Generated by IcoMoon.io -->
<svg version="1.1" xmlns="http://www.w3.org/2000/svg" width="24" height="24" viewBox="0 0 24 24">
<title>network_locked</title>
<path d="M21 15.984v-1.5q0-0.609-0.422-1.055t-1.078-0.445-1.078 0.445-0.422 1.055v1.5h3zM21.984 15.984q0.422 0 0.727 0.305t0.305 0.727v3.984q0 0.422-0.305 0.703t-0.727 0.281h-4.969q-0.422 0-0.727-0.281t-0.305-0.703v-3.984q0-0.422 0.305-0.727t0.727-0.305v-1.5q0-1.031 0.727-1.758t1.758-0.727 1.758 0.727 0.727 1.758v1.5zM19.5 9.984q-1.875 0-3.188 1.313t-1.313 3.188v0.281q-0.984 0.891-0.984 2.25v3h-13.031l19.031-19.031v9.047q-0.094 0-0.258-0.023t-0.258-0.023z"></path>
</svg>
