<!-- Generated by IcoMoon.io -->
<svg version="1.1" xmlns="http://www.w3.org/2000/svg" width="24" height="24" viewBox="0 0 24 24">
<title>next_week</title>
<path d="M11.016 18.516l3.984-4.031-3.984-3.984-1.031 0.984 3 3-3 3zM9.984 5.016v1.969h4.031v-1.969h-4.031zM14.016 3q0.797 0 1.383 0.586t0.586 1.43v1.969h4.031q0.797 0 1.383 0.609t0.586 1.406v11.016q0 0.797-0.586 1.383t-1.383 0.586h-16.031q-0.797 0-1.383-0.586t-0.586-1.383v-11.016q0-0.797 0.586-1.406t1.383-0.609h4.031v-1.969q0-0.797 0.586-1.406t1.383-0.609h4.031z"></path>
</svg>
