<!-- Generated by IcoMoon.io -->
<svg version="1.1" xmlns="http://www.w3.org/2000/svg" width="24" height="24" viewBox="0 0 24 24">
<title>not_listed_location</title>
<path d="M12.891 12.891q0-0.938 1.313-2.109t1.313-2.297q0-1.453-1.031-2.461t-2.484-1.008-2.484 1.008-1.031 2.461h1.781q0-0.703 0.516-1.219t1.219-0.516 1.219 0.516 0.516 1.219q0 0.563-0.398 1.031t-0.914 0.773-0.914 0.961-0.398 1.641h1.781zM12.891 15.75v-1.734h-1.781v1.734h1.781zM12 2.016q2.906 0 4.945 2.039t2.039 4.945q0 1.453-0.727 3.328t-1.758 3.516-2.039 3.070-1.711 2.273l-0.75 0.797q-0.281-0.328-0.75-0.867t-1.688-2.156-2.133-3.141-1.664-3.445-0.75-3.375q0-2.906 2.039-4.945t4.945-2.039z"></path>
</svg>
