<!-- Generated by IcoMoon.io -->
<svg version="1.1" xmlns="http://www.w3.org/2000/svg" width="24" height="24" viewBox="0 0 24 24">
<title>not_interesteddo_not_disturb</title>
<path d="M18.328 16.922q1.688-2.109 1.688-4.922 0-3.281-2.367-5.648t-5.648-2.367q-1.125 0-2.578 0.492t-2.344 1.195zM12 20.016q1.125 0 2.578-0.492t2.344-1.195l-11.25-11.25q-1.688 2.109-1.688 4.922 0 3.281 2.367 5.648t5.648 2.367zM12 2.016q4.125 0 7.055 2.93t2.93 7.055-2.93 7.055-7.055 2.93-7.055-2.93-2.93-7.055 2.93-7.055 7.055-2.93z"></path>
</svg>
