<!-- Generated by IcoMoon.io -->
<svg version="1.1" xmlns="http://www.w3.org/2000/svg" width="24" height="24" viewBox="0 0 24 24">
<title>pageview</title>
<path d="M16.781 18.188l1.406-1.406-2.906-2.906q0.703-1.172 0.703-2.391 0-1.875-1.313-3.188t-3.188-1.313-3.188 1.313-1.313 3.188 1.313 3.188 3.188 1.313q1.219 0 2.391-0.703zM20.016 3.984q0.797 0 1.383 0.609t0.586 1.406v12q0 0.797-0.586 1.406t-1.383 0.609h-16.031q-0.797 0-1.383-0.609t-0.586-1.406v-12q0-0.797 0.586-1.406t1.383-0.609h16.031zM11.484 9q1.031 0 1.781 0.727t0.75 1.758-0.75 1.781-1.781 0.75-1.758-0.75-0.727-1.781 0.727-1.758 1.758-0.727z"></path>
</svg>
