<!-- Generated by IcoMoon.io -->
<svg version="1.1" xmlns="http://www.w3.org/2000/svg" width="24" height="24" viewBox="0 0 24 24">
<title>pan_tool</title>
<path d="M23.016 5.484v14.531q0 1.641-1.195 2.813t-2.836 1.172h-7.266q-1.688 0-2.859-1.172l-7.875-8.016q1.266-1.219 1.313-1.219 0.328-0.281 0.797-0.281 0.328 0 0.609 0.141l4.313 2.438v-11.906q0-0.609 0.445-1.055t1.055-0.445 1.055 0.445 0.445 1.055v7.031h0.984v-9.516q0-0.656 0.422-1.078t1.078-0.422 1.078 0.422 0.422 1.078v9.516h0.984v-8.531q0-0.609 0.445-1.055t1.055-0.445 1.055 0.445 0.445 1.055v8.531h1.031v-5.531q0-0.609 0.445-1.055t1.055-0.445 1.055 0.445 0.445 1.055z"></path>
</svg>
