<!-- Generated by IcoMoon.io -->
<svg version="1.1" xmlns="http://www.w3.org/2000/svg" width="24" height="24" viewBox="0 0 24 24">
<title>phone_bluetooth_speaker</title>
<path d="M20.016 15.516q0.422 0 0.703 0.281t0.281 0.703v3.516q0 0.422-0.281 0.703t-0.703 0.281q-7.031 0-12.023-4.992t-4.992-12.023q0-0.422 0.281-0.703t0.703-0.281h3.516q0.422 0 0.703 0.281t0.281 0.703v0.047q0 1.922 0.563 3.516 0.094 0.188 0.094 0.328 0 0.469-0.328 0.703l-2.203 2.203q0.938 1.781 2.883 3.727t3.727 2.883l2.203-2.203q0.328-0.328 0.703-0.328 0.141 0 0.328 0.094 1.688 0.563 3.563 0.563zM18 7.219v1.875l0.938-0.938zM18 2.906v1.875l0.938-0.938zM14.719 9.516l-0.703-0.703 2.766-2.813-2.766-2.813 0.703-0.703 2.297 2.297v-3.797h0.469l2.859 2.859-2.156 2.156 2.156 2.156-2.859 2.859h-0.469v-3.797z"></path>
</svg>
