<!-- Generated by IcoMoon.io -->
<svg version="1.1" xmlns="http://www.w3.org/2000/svg" width="24" height="24" viewBox="0 0 24 24">
<title>phonelink_off</title>
<path d="M23.016 8.016q0.422 0 0.703 0.281t0.281 0.703v9.984q0 0.422-0.281 0.727t-0.703 0.305h-0.188l-3-3h2.156v-7.031h-3.984v5.203l-2.016-2.016v-4.172q0-0.422 0.305-0.703t0.727-0.281h6zM3.984 6.281v10.734h10.734zM1.922 1.641q3.797 3.797 10.805 10.828t8.602 8.625l-1.266 1.266-2.344-2.344h-17.719v-3h2.016v-11.016q0-0.703 0.469-1.266l-1.828-1.828zM21.984 6h-13.172l-2.016-2.016h15.188v2.016z"></path>
</svg>
