<!-- Generated by IcoMoon.io -->
<svg version="1.1" xmlns="http://www.w3.org/2000/svg" width="24" height="24" viewBox="0 0 24 24">
<title>phone_disabled</title>
<path d="M14.531 17.344q-1.875 1.5-4.969 2.578t-5.531 1.078h-0.047q-0.422 0-0.703-0.281t-0.281-0.703v-3.516q0-0.422 0.281-0.703t0.703-0.281q1.875 0 3.563-0.563 0.563-0.234 1.031 0.234l2.203 2.203q1.406-0.75 2.297-1.453l-11.672-11.719 1.406-1.406 18.375 18.375-1.406 1.406zM17.344 14.531l-1.453-1.406q0.891-1.172 1.5-2.344l-2.203-2.203q-0.422-0.422-0.234-1.031 0.563-1.688 0.563-3.563 0-0.422 0.281-0.703t0.703-0.281h3.516q0.422 0 0.703 0.281t0.281 0.703q0 5.906-3.656 10.547z"></path>
</svg>
