<!-- Generated by IcoMoon.io -->
<svg version="1.1" xmlns="http://www.w3.org/2000/svg" width="24" height="24" viewBox="0 0 24 24">
<title>phonelink_setup</title>
<path d="M18 1.031q0.797 0 1.406 0.586t0.609 1.383v18q0 0.797-0.609 1.406t-1.406 0.609h-9.984q-0.797 0-1.406-0.609t-0.609-1.406v-3h2.016v0.984h9.984v-13.969h-9.984v0.984h-2.016v-3q0-0.797 0.609-1.406t1.406-0.609zM6.984 13.734q0.75 0 1.289-0.492t0.539-1.242-0.539-1.242-1.289-0.492-1.266 0.492-0.516 1.242 0.516 1.242 1.266 0.492zM10.828 12.469l1.078 0.844q0.188 0.188 0.094 0.328l-1.031 1.734q-0.094 0.188-0.328 0.094l-1.266-0.469q-0.375 0.234-0.891 0.469l-0.188 1.313q0 0.234-0.234 0.234h-2.063q-0.281 0-0.281-0.234l-0.188-1.313q-0.516-0.234-0.891-0.469l-1.266 0.469q-0.234 0.094-0.328-0.094l-0.984-1.734q-0.047-0.047-0.023-0.164t0.070-0.164l1.078-0.844q0-0.047-0.023-0.211t-0.023-0.258 0.023-0.234 0.023-0.234l-1.078-0.844q-0.141-0.141-0.094-0.328l1.031-1.734q0.094-0.188 0.328-0.094l1.266 0.469q0.375-0.234 0.891-0.469l0.188-1.313q0-0.234 0.234-0.234h2.063q0.234 0 0.234 0.234l0.234 1.313q0.188 0.094 0.844 0.516l1.313-0.516q0.188-0.094 0.281 0.094l1.031 1.734q0.047 0.047 0.023 0.164t-0.070 0.164l-1.078 0.844q0 0.047 0.023 0.211t0.023 0.258-0.023 0.258-0.023 0.211z"></path>
</svg>
