<!-- Generated by IcoMoon.io -->
<svg version="1.1" xmlns="http://www.w3.org/2000/svg" width="24" height="24" viewBox="0 0 24 24">
<title>photo_size_select_large</title>
<path d="M3 18.984h9.984l-3.188-4.266-2.484 3.234-1.828-2.156zM0.984 11.016h14.016v9.984h-12q-0.797 0-1.406-0.609t-0.609-1.406v-7.969zM5.016 3h1.969v2.016h-1.969v-2.016zM9 3h2.016v2.016h-2.016v-2.016zM3 3v2.016h-2.016q0-0.75 0.633-1.383t1.383-0.633zM17.016 18.984h1.969v2.016h-1.969v-2.016zM17.016 3h1.969v2.016h-1.969v-2.016zM0.984 6.984h2.016v2.016h-2.016v-2.016zM21 3q0.75 0 1.383 0.633t0.633 1.383h-2.016v-2.016zM21 6.984h2.016v2.016h-2.016v-2.016zM12.984 3h2.016v2.016h-2.016v-2.016zM23.016 18.984q0 0.75-0.633 1.383t-1.383 0.633v-2.016h2.016zM21 11.016h2.016v1.969h-2.016v-1.969zM21 15h2.016v2.016h-2.016v-2.016z"></path>
</svg>
