<!-- Generated by IcoMoon.io -->
<svg version="1.1" xmlns="http://www.w3.org/2000/svg" width="24" height="24" viewBox="0 0 24 24">
<title>picture_as_pdf</title>
<path d="M14.016 11.484v-3h0.984v3h-0.984zM3.984 6v14.016h14.016v1.969h-14.016q-0.797 0-1.383-0.586t-0.586-1.383v-14.016h1.969zM9 9.516v-1.031h0.984v1.031h-0.984zM20.484 8.484v-1.5h-3v6h1.5v-1.969h1.5v-1.5h-1.5v-1.031h1.5zM16.5 11.484v-3q0-0.609-0.422-1.055t-1.078-0.445h-2.484v6h2.484q0.656 0 1.078-0.445t0.422-1.055zM11.484 9.516v-1.031q0-0.609-0.445-1.055t-1.055-0.445h-2.484v6h1.5v-1.969h0.984q0.609 0 1.055-0.445t0.445-1.055zM20.016 2.016q0.797 0 1.383 0.586t0.586 1.383v12q0 0.797-0.586 1.406t-1.383 0.609h-12q-0.797 0-1.406-0.609t-0.609-1.406v-12q0-0.797 0.609-1.383t1.406-0.586h12z"></path>
</svg>
