<!-- Generated by IcoMoon.io -->
<svg version="1.1" xmlns="http://www.w3.org/2000/svg" width="24" height="24" viewBox="0 0 24 24">
<title>pool</title>
<path d="M14.016 5.484q0-1.031 0.727-1.758t1.758-0.727 1.758 0.727 0.727 1.758-0.727 1.781-1.758 0.75-1.758-0.75-0.727-1.781zM8.672 12q-0.563 0-1.172-0.375-0.188-0.141-0.75-0.375l3.234-3.234-0.984-1.031q-1.5-1.5-3.984-1.5v-2.484q1.922 0 3.141 0.445t2.344 1.57l6.422 6.375q-0.281 0.188-0.422 0.234-0.609 0.375-1.172 0.375-0.516 0-1.125-0.375-1.031-0.609-2.203-0.609t-2.203 0.609q-0.609 0.375-1.125 0.375zM21.984 16.5q-1.078 0-2.156-0.656-0.516-0.328-1.172-0.328-0.609 0-1.125 0.328-1.078 0.656-2.203 0.656-1.078 0-2.156-0.656-0.516-0.328-1.172-0.328-0.609 0-1.125 0.328-1.078 0.656-2.203 0.656-1.078 0-2.156-0.656-0.516-0.328-1.172-0.328-0.609 0-1.125 0.328-1.078 0.656-2.203 0.656v-2.016q0.609 0 1.125-0.328 1.078-0.656 2.203-0.656 1.078 0 2.156 0.656 0.516 0.328 1.172 0.328 0.609 0 1.125-0.328 1.078-0.656 2.203-0.656 1.078 0 2.156 0.656 0.516 0.328 1.172 0.328 0.609 0 1.125-0.328 1.078-0.656 2.203-0.656 1.078 0 2.156 0.656 0.516 0.328 1.172 0.328v2.016zM21.984 21q-1.078 0-2.156-0.656-0.516-0.328-1.172-0.328-0.609 0-1.125 0.328-1.078 0.656-2.203 0.656-1.078 0-2.156-0.656-0.516-0.328-1.172-0.328-0.609 0-1.125 0.328-1.078 0.656-2.203 0.656t-2.203-0.656q-0.516-0.328-1.125-0.328-0.656 0-1.172 0.328-1.078 0.656-2.156 0.656v-2.016q0.609 0 1.125-0.328 1.078-0.656 2.203-0.656 1.078 0 2.156 0.656 0.516 0.328 1.172 0.328 0.609 0 1.125-0.328 1.078-0.656 2.203-0.656t2.203 0.656q0.516 0.328 1.125 0.328 0.656 0 1.172-0.328 1.078-0.656 2.156-0.656 1.125 0 2.203 0.656 0.516 0.328 1.125 0.328v2.016z"></path>
</svg>
