<!-- Generated by IcoMoon.io -->
<svg version="1.1" xmlns="http://www.w3.org/2000/svg" width="24" height="24" viewBox="0 0 24 24">
<title>print_disabled</title>
<path d="M8.016 18.984h7.875l-4.969-4.969h-2.906v4.969zM1.219 1.781l21 20.906-1.313 1.313-3-3h-11.906v-3.984h-3.984v-6q0-1.172 0.844-2.039t2.063-0.961l-4.922-5.016zM18 6.984h-9l-3-2.906v-1.078h12v3.984zM18.984 9.984q-0.422 0-0.703 0.305t-0.281 0.727 0.281 0.703 0.703 0.281 0.727-0.281 0.305-0.703-0.305-0.727-0.727-0.305zM19.078 17.016l-9.094-9h9q1.266 0 2.133 0.867t0.867 2.133v6h-2.906z"></path>
</svg>
