<!-- Generated by IcoMoon.io -->
<svg version="1.1" xmlns="http://www.w3.org/2000/svg" width="24" height="24" viewBox="0 0 24 24">
<title>radio</title>
<path d="M20.016 12v-3.984h-16.031v3.984h12v-2.016h2.016v2.016h2.016zM6.984 20.016q1.219 0 2.109-0.891t0.891-2.109-0.891-2.109-2.109-0.891-2.109 0.891-0.891 2.109 0.891 2.109 2.109 0.891zM3.234 6.141l12.656-5.156 0.656 1.688-8.25 3.328h11.719q0.844 0 1.406 0.586t0.563 1.43v12q0 0.844-0.563 1.406t-1.406 0.563h-16.031q-0.844 0-1.406-0.563t-0.563-1.406v-12q0-1.406 1.219-1.875z"></path>
</svg>
