<!-- Generated by IcoMoon.io -->
<svg version="1.1" xmlns="http://www.w3.org/2000/svg" width="24" height="24" viewBox="0 0 24 24">
<title>railway_alert</title>
<path d="M15 9.984h2.016v2.016h-2.016v-2.016zM15 3.984h2.016v5.016h-2.016v-5.016zM14.672 12.797q0.188 0.094 0.422 0.141h0.281l0.141 0.047h0.984l0.188-0.047q1.781-0.281 3.023-1.734t1.242-3.188q0-2.016-1.453-3.492t-3.516-1.523q-1.313 0-2.531 0.703l-0.047 0.047-0.469 0.281v0.047q-0.609 0.469-0.844 0.797l-0.375 0.563-0.188 0.375-0.094 0.141-0.141 0.375q-0.281 0.844-0.281 1.688 0 1.5 1.008 2.883t2.414 1.852q0.047 0.047 0.234 0.047zM9 18.984q0.797 0 1.406-0.586t0.609-1.383-0.609-1.406-1.406-0.609-1.406 0.609-0.609 1.406 0.609 1.383 1.406 0.586zM3 12h7.266q-1.266-1.781-1.266-3.984 0-0.469 0.094-1.031h-6.094v5.016zM23.016 8.016q0 2.484-1.758 4.523t-4.242 2.367v2.578q0 1.453-1.031 2.484t-2.484 1.031l1.5 1.5v0.516h-12v-0.516l1.5-1.5q-1.453 0-2.484-1.031t-1.031-2.484v-10.5q0-2.391 2.063-3.188t5.953-0.797h0.188q1.359 0 1.875 0.047 0.844-0.844 2.297-1.453t2.625-0.609q2.859 0 4.945 2.086t2.086 4.945z"></path>
</svg>
