<!-- Generated by IcoMoon.io -->
<svg version="1.1" xmlns="http://www.w3.org/2000/svg" width="24" height="24" viewBox="0 0 24 24">
<title>redeemcard_giftcard</title>
<path d="M20.016 14.016v-6h-5.109l2.109 2.813-1.641 1.172q-3-4.078-3.375-4.594-0.375 0.516-3.375 4.594l-1.641-1.172 2.109-2.813h-5.109v6h16.031zM20.016 18.984v-1.969h-16.031v1.969h16.031zM9 3.984q-0.422 0-0.703 0.305t-0.281 0.727 0.281 0.703 0.703 0.281 0.703-0.281 0.281-0.703-0.281-0.727-0.703-0.305zM15 3.984q-0.422 0-0.703 0.305t-0.281 0.727 0.281 0.703 0.703 0.281 0.703-0.281 0.281-0.703-0.281-0.727-0.703-0.305zM20.016 6q0.844 0 1.406 0.586t0.563 1.43v10.969q0 0.844-0.563 1.43t-1.406 0.586h-16.031q-0.844 0-1.406-0.586t-0.563-1.43v-10.969q0-0.844 0.563-1.43t1.406-0.586h2.203q-0.188-0.656-0.188-0.984 0-1.219 0.891-2.109t2.109-0.891q1.547 0 2.484 1.313l0.516 0.703 0.516-0.703q0.328-0.563 1.078-0.938t1.406-0.375q1.219 0 2.109 0.891t0.891 2.109q0 0.328-0.188 0.984h2.203z"></path>
</svg>
