<!-- Generated by IcoMoon.io -->
<svg version="1.1" xmlns="http://www.w3.org/2000/svg" width="24" height="24" viewBox="0 0 24 24">
<title>remove_shopping_cart</title>
<path d="M6.984 18q0.797 0 1.406 0.609t0.609 1.406-0.609 1.383-1.406 0.586-1.383-0.586-0.586-1.383 0.586-1.406 1.383-0.609zM15.563 12.984l-9-9h13.453q0.422 0 0.703 0.305t0.281 0.727q0 0.047-0.141 0.469l-3.563 6.469q-0.563 1.031-1.734 1.031zM7.406 15h5.063l-2.016-2.016h-2.344l-0.891 1.641-0.047 0.141q0 0.234 0.234 0.234zM22.734 22.734l-1.266 1.266-2.859-2.859q-0.609 0.844-1.594 0.844-0.797 0-1.406-0.586t-0.609-1.383q0-1.031 0.844-1.641l-1.406-1.359h-7.453q-0.797 0-1.383-0.609t-0.586-1.406q0-0.469 0.234-0.938l1.359-2.484-2.203-4.641-4.406-4.406 1.266-1.266z"></path>
</svg>
