<!-- Generated by IcoMoon.io -->
<svg version="1.1" xmlns="http://www.w3.org/2000/svg" width="24" height="24" viewBox="0 0 24 24">
<title>rowing</title>
<path d="M21 21l-3 3-3-3v-1.5l-7.078-7.078q-0.328 0.047-0.938 0.047v-2.156q1.219 0.047 2.531-0.539t2.156-1.477l1.406-1.547q0.75-0.75 1.641-0.75h0.047q0.891 0 1.57 0.656t0.68 1.594v5.766q0 1.219-0.938 2.156l-3.563-3.563v-2.297q-0.938 0.797-2.297 1.406l6.281 6.281h1.5zM15 0.984q0.797 0 1.406 0.609t0.609 1.406-0.609 1.406-1.406 0.609-1.406-0.609-0.609-1.406 0.609-1.406 1.406-0.609zM8.484 14.484l2.531 2.531h-2.016l-3.516 3.469-1.5-1.5z"></path>
</svg>
