<!-- Generated by IcoMoon.io -->
<svg version="1.1" xmlns="http://www.w3.org/2000/svg" width="24" height="24" viewBox="0 0 24 24">
<title>rv_hookup</title>
<path d="M17.016 2.016l3 3-3 3v-2.016h-8.016v-2.016h8.016v-1.969zM18 14.016v-3h-3.984v3h3.984zM11.016 20.016q0.422 0 0.703-0.305t0.281-0.727-0.281-0.703-0.703-0.281-0.727 0.281-0.305 0.703 0.305 0.727 0.727 0.305zM20.016 17.016h1.969v1.969h-7.969q0 1.219-0.891 2.109t-2.109 0.891-2.109-0.891-0.891-2.109h-2.016q-0.797 0-1.406-0.586t-0.609-1.383v-3h7.031v-3h-4.031v1.969l-3-3 3-3v2.016h11.016q0.797 0 1.406 0.609t0.609 1.406v6z"></path>
</svg>
