<!-- Generated by IcoMoon.io -->
<svg version="1.1" xmlns="http://www.w3.org/2000/svg" width="24" height="24" viewBox="0 0 24 24">
<title>satellite</title>
<path d="M5.016 18h13.969l-4.5-6-3.469 4.5-2.531-3zM5.016 12q2.906 0 4.945-2.063t2.039-4.969h-2.016q0 2.063-1.453 3.539t-3.516 1.477v2.016zM5.016 4.969v3.047q1.219 0 2.109-0.914t0.891-2.133h-3zM18.984 3q0.797 0 1.406 0.609t0.609 1.406v13.969q0 0.797-0.609 1.406t-1.406 0.609h-13.969q-0.797 0-1.406-0.609t-0.609-1.406v-13.969q0-0.797 0.609-1.406t1.406-0.609h13.969z"></path>
</svg>
