<!-- Generated by IcoMoon.io -->
<svg version="1.1" xmlns="http://www.w3.org/2000/svg" width="24" height="24" viewBox="0 0 24 24">
<title>schedule_send</title>
<path d="M15.984 21q2.063 0 3.539-1.477t1.477-3.539-1.477-3.539-3.539-1.477q-2.016 0-3.492 1.453t-1.477 3.516v0.094q0 2.063 1.453 3.516t3.516 1.453zM15.984 9q2.906 0 4.969 2.063t2.063 4.922-2.086 4.945-4.945 2.086q-2.391 0-4.242-1.43t-2.461-3.68l-7.266 3.094v-6.984l9-2.016-9-2.016v-6.984zM16.5 12.516v3.234l2.25 1.5-0.75 1.266-3-2.016v-3.984h1.5z"></path>
</svg>
