<!-- Generated by IcoMoon.io -->
<svg version="1.1" xmlns="http://www.w3.org/2000/svg" width="24" height="24" viewBox="0 0 24 24">
<title>score</title>
<path d="M18.984 12.984v-2.484l-6 6-3.984-3.984-3.984 3.984v2.484l3.984-3.984 3.984 3.984zM6.984 7.266v3.75h4.031v-1.5h-2.531v-0.75h2.531v-3.75h-4.031v1.5h2.531v0.75h-2.531zM12 5.016v6h1.5v-3l2.016 3h1.688l-2.016-3 2.016-3h-1.688l-2.016 3v-3h-1.5zM18.984 3q0.797 0 1.406 0.609t0.609 1.406v13.969q0 0.797-0.609 1.406t-1.406 0.609h-13.969q-0.797 0-1.406-0.609t-0.609-1.406v-13.969q0-0.797 0.609-1.406t1.406-0.609h13.969z"></path>
</svg>
