<!-- Generated by IcoMoon.io -->
<svg version="1.1" xmlns="http://www.w3.org/2000/svg" width="24" height="24" viewBox="0 0 24 24">
<title>screen_lock_rotation</title>
<path d="M16.781 2.484v0.516h3.422v-0.516q0-0.703-0.492-1.195t-1.195-0.492-1.219 0.492-0.516 1.195zM15.984 9q-0.422 0-0.703-0.281t-0.281-0.703v-4.031q0-0.422 0.281-0.703t0.703-0.281v-0.516q0-1.031 0.75-1.758t1.781-0.727 1.758 0.727 0.727 1.758v0.516q0.422 0 0.703 0.281t0.281 0.703v4.031q0 0.422-0.281 0.703t-0.703 0.281h-5.016zM8.484 20.484l1.313-1.313 3.797 3.797-0.656 0.047q-4.688 0-8.133-3.188t-3.82-7.828h1.5q0.234 2.484 1.992 4.969t4.008 3.516zM23.25 12.75q0.469 0.422 0.469 1.055t-0.469 1.102l-6.375 6.328q-0.422 0.469-1.031 0.469t-1.078-0.469l-12-12q-0.469-0.469-0.469-1.078 0-0.563 0.469-1.031l6.328-6.375q0.422-0.422 1.078-0.422t1.078 0.422l2.438 2.438-1.406 1.406-2.109-2.063-5.672 5.625 11.344 11.344 5.625-5.672-2.203-2.203 1.406-1.406z"></path>
</svg>
