<!-- Generated by IcoMoon.io -->
<svg version="1.1" xmlns="http://www.w3.org/2000/svg" width="24" height="24" viewBox="0 0 24 24">
<title>select_all</title>
<path d="M9 9v6h6v-6h-6zM6.984 17.016v-10.031h10.031v10.031h-10.031zM15 5.016v-2.016h2.016v2.016h-2.016zM15 21v-2.016h2.016v2.016h-2.016zM18.984 17.016v-2.016h2.016v2.016h-2.016zM18.984 9v-2.016h2.016v2.016h-2.016zM18.984 21v-2.016h2.016q0 0.797-0.609 1.406t-1.406 0.609zM18.984 12.984v-1.969h2.016v1.969h-2.016zM11.016 21v-2.016h1.969v2.016h-1.969zM9 3v2.016h-2.016v-2.016h2.016zM3 17.016v-2.016h2.016v2.016h-2.016zM5.016 21q-0.797 0-1.406-0.609t-0.609-1.406h2.016v2.016zM18.984 3q0.797 0 1.406 0.609t0.609 1.406h-2.016v-2.016zM12.984 3v2.016h-1.969v-2.016h1.969zM3 9v-2.016h2.016v2.016h-2.016zM6.984 21v-2.016h2.016v2.016h-2.016zM3 12.984v-1.969h2.016v1.969h-2.016zM3 5.016q0-0.797 0.609-1.406t1.406-0.609v2.016h-2.016z"></path>
</svg>
