<!-- Generated by IcoMoon.io -->
<svg version="1.1" xmlns="http://www.w3.org/2000/svg" width="24" height="24" viewBox="0 0 24 24">
<title>settings_input_svideo</title>
<path d="M15.516 15q0.609 0 1.055 0.422t0.445 1.078-0.445 1.078-1.055 0.422-1.055-0.422-0.445-1.078 0.445-1.078 1.055-0.422zM17.484 9.984q0.609 0 1.055 0.445t0.445 1.055-0.445 1.055-1.055 0.445-1.055-0.445-0.445-1.055 0.445-1.055 1.055-0.445zM12 21q3.75 0 6.375-2.625t2.625-6.375-2.625-6.375-6.375-2.625-6.375 2.625-2.625 6.375 2.625 6.375 6.375 2.625zM12 0.984q4.547 0 7.781 3.234t3.234 7.781-3.234 7.781-7.781 3.234-7.781-3.234-3.234-7.781 3.234-7.781 7.781-3.234zM8.484 15q0.609 0 1.055 0.422t0.445 1.078-0.445 1.078-1.055 0.422-1.055-0.422-0.445-1.078 0.445-1.078 1.055-0.422zM15 6.516q0 0.609-0.422 1.055t-1.078 0.445h-3q-0.656 0-1.078-0.445t-0.422-1.055 0.422-1.055 1.078-0.445h3q0.656 0 1.078 0.445t0.422 1.055zM8.016 11.484q0 0.609-0.445 1.055t-1.055 0.445-1.055-0.445-0.445-1.055 0.445-1.055 1.055-0.445 1.055 0.445 0.445 1.055z"></path>
</svg>
