<!-- Generated by IcoMoon.io -->
<svg version="1.1" xmlns="http://www.w3.org/2000/svg" width="24" height="24" viewBox="0 0 24 24">
<title>settings_brightness</title>
<path d="M12 9v6q1.219 0 2.109-0.891t0.891-2.109-0.891-2.109-2.109-0.891zM8.016 15.984v-2.484l-1.5-1.5 1.5-1.5v-2.484h2.484l1.5-1.5 1.5 1.5h2.484v2.484l1.5 1.5-1.5 1.5v2.484h-2.484l-1.5 1.5-1.5-1.5h-2.484zM21 19.031v-14.063h-18v14.063h18zM21 3q0.797 0 1.406 0.609t0.609 1.406v13.969q0 0.797-0.609 1.406t-1.406 0.609h-18q-0.797 0-1.406-0.609t-0.609-1.406v-13.969q0-0.797 0.609-1.406t1.406-0.609h18z"></path>
</svg>
