<!-- Generated by IcoMoon.io -->
<svg version="1.1" xmlns="http://www.w3.org/2000/svg" width="24" height="24" viewBox="0 0 24 24">
<title>settings_input_componentsettings_input_composite</title>
<path d="M17.016 15.984v-1.969h6v1.969q0 0.984-0.563 1.734t-1.453 1.078v4.219h-2.016v-4.219q-1.969-0.703-1.969-2.813zM12.984 2.016v3.984h2.016v6h-6v-6h2.016v-3.984q0-0.422 0.281-0.727t0.703-0.305 0.703 0.305 0.281 0.727zM21 6h2.016v6h-6v-6h1.969v-3.984q0-0.422 0.305-0.727t0.727-0.305 0.703 0.305 0.281 0.727v3.984zM0.984 15.984v-1.969h6v1.969q0 2.109-1.969 2.813v4.219h-2.016v-4.219q-0.891-0.328-1.453-1.078t-0.563-1.734zM9 15.984v-1.969h6v1.969q0 0.984-0.563 1.734t-1.453 1.078v4.219h-1.969v-4.219q-0.891-0.328-1.453-1.078t-0.563-1.734zM5.016 2.016v3.984h1.969v6h-6v-6h2.016v-3.984q0-0.422 0.281-0.727t0.703-0.305 0.727 0.305 0.305 0.727z"></path>
</svg>
