<!-- Generated by IcoMoon.io -->
<svg version="1.1" xmlns="http://www.w3.org/2000/svg" width="24" height="24" viewBox="0 0 24 24">
<title>shutter_speed</title>
<path d="M13.313 7.172l-2.719 4.688-2.297-3.563q1.688-1.313 3.703-1.313 0.469 0 1.313 0.188zM16.359 17.109l-2.813-5.109h4.359q0.094 0.656 0.094 0.984v0.047q0 0.984-0.469 2.18t-1.172 1.898zM7.547 9l3.281 5.016h-4.734q-0.094-0.656-0.094-1.031 0-0.938 0.445-2.109t1.102-1.875zM10.594 18.844l2.859-4.922 2.109 3.891q-1.547 1.172-3.563 1.172-0.703 0-1.406-0.141zM17.672 11.016h-5.391l2.016-3.563q1.031 0.422 2.039 1.477t1.336 2.086zM11.672 15l-2.016 3.516q-1.031-0.422-1.992-1.453t-1.336-2.063h5.344zM12 20.016q2.906 0 4.945-2.063t2.039-4.969-2.039-4.945-4.945-2.039-4.945 2.039-2.039 4.945 2.039 4.969 4.945 2.063zM19.031 7.406q0.797 1.031 1.383 2.648t0.586 2.93q0 3.703-2.625 6.352t-6.375 2.648-6.375-2.648-2.625-6.352 2.625-6.352 6.375-2.648q1.266 0 2.93 0.609t2.695 1.406l1.406-1.453q0.75 0.609 1.406 1.406zM15 0.984v2.016h-6v-2.016h6z"></path>
</svg>
