<!-- Generated by IcoMoon.io -->
<svg version="1.1" xmlns="http://www.w3.org/2000/svg" width="24" height="24" viewBox="0 0 24 24">
<title>signal_wifi_4_bar_lock</title>
<path d="M15.516 14.484v2.625l-3.516 4.406-11.578-14.531 0.281-0.234q0.281-0.188 0.586-0.398t0.82-0.539 1.102-0.609 1.336-0.633 1.594-0.609 1.758-0.492 1.969-0.352 2.133-0.117 2.133 0.117 1.969 0.352 1.758 0.492 1.594 0.609 1.336 0.633 1.102 0.609 0.82 0.539 0.586 0.398l0.281 0.234-2.063 2.625q-0.281-0.094-1.031-0.094-2.109 0-3.539 1.43t-1.43 3.539zM21.984 15.984v-1.5q0-0.609-0.445-1.055t-1.055-0.445-1.055 0.445-0.445 1.055v1.5h3zM23.016 15.984q0.375 0 0.68 0.328t0.305 0.703v3.984q0 0.375-0.305 0.68t-0.68 0.305h-5.016q-0.375 0-0.68-0.305t-0.305-0.68v-3.984q0-0.375 0.305-0.703t0.68-0.328v-1.5q0-1.078 0.703-1.781t1.781-0.703 1.805 0.727 0.727 1.758v1.5z"></path>
</svg>
