<!-- Generated by IcoMoon.io -->
<svg version="1.1" xmlns="http://www.w3.org/2000/svg" width="24" height="24" viewBox="0 0 24 24">
<title>smoke_free</title>
<path d="M17.016 15.938l-2.953-2.953h2.953v2.953zM14.484 8.719q-1.359 0-2.344-1.008t-0.984-2.367 0.984-2.344 2.344-0.984v1.5q-0.797 0-1.313 0.492t-0.516 1.242q0 0.797 0.539 1.406t1.289 0.609h1.547q1.406 0 2.438 0.914t1.031 2.227v1.594h-1.5v-1.266q0-0.938-0.586-1.477t-1.383-0.539h-1.547zM18.844 4.875q1.406 0.656 2.273 2.016t0.867 3.047v2.063h-1.5v-2.063q0-1.688-1.148-2.883t-2.836-1.195v-1.5q0.75 0 1.289-0.539t0.539-1.336h1.5q0 1.406-0.984 2.391zM18 12.984h1.5v3h-1.5v-3zM20.484 12.984h1.5v3h-1.5v-3zM2.016 6l1.219-1.266 17.016 17.016-1.266 1.266-6.984-7.031h-9.984v-3h6.984z"></path>
</svg>
