<!-- Generated by IcoMoon.io -->
<svg version="1.1" xmlns="http://www.w3.org/2000/svg" width="24" height="24" viewBox="0 0 24 24">
<title>speaker_group</title>
<path d="M6 5.016v15.984h9.984v2.016h-9.984q-0.844 0-1.43-0.586t-0.586-1.43v-15.984h2.016zM11.484 12.516q0-1.031 0.75-1.781t1.781-0.75 1.758 0.75 0.727 1.781-0.727 1.758-1.758 0.727-1.781-0.727-0.75-1.758zM14.016 16.5q1.641 0 2.813-1.172t1.172-2.813-1.172-2.836-2.813-1.195-2.836 1.195-1.195 2.836 1.195 2.813 2.836 1.172zM14.016 3q-0.797 0-1.406 0.586t-0.609 1.43 0.586 1.406 1.43 0.563q0.797 0 1.383-0.563t0.586-1.406-0.586-1.43-1.383-0.586zM18.188 0.984q0.75 0 1.289 0.539t0.539 1.289v14.391q0 0.75-0.539 1.266t-1.289 0.516h-8.391q-0.75 0-1.266-0.516t-0.516-1.266v-14.391q0-0.75 0.516-1.289t1.266-0.539h8.391z"></path>
</svg>
