<!-- Generated by IcoMoon.io -->
<svg version="1.1" xmlns="http://www.w3.org/2000/svg" width="24" height="24" viewBox="0 0 24 24">
<title>sports_cricket</title>
<path d="M15 5.484q0-1.453 1.031-2.461t2.484-1.008 2.461 1.008 1.008 2.461-1.008 2.484-2.461 1.031-2.484-1.031-1.031-2.484zM14.344 17.766l1.406-1.406 4.266 4.219-1.453 1.406zM15.047 12.797q0.281 0.281 0.281 0.703t-0.281 0.703l-2.813 2.859q-0.281 0.281-0.703 0.281t-0.703-0.281l-8.531-8.484q-0.281-0.281-0.281-0.703t0.281-0.703l2.859-2.859q0.281-0.281 0.703-0.281t0.703 0.281z"></path>
</svg>
