<!-- Generated by IcoMoon.io -->
<svg version="1.1" xmlns="http://www.w3.org/2000/svg" width="24" height="24" viewBox="0 0 24 24">
<title>sports_tennis</title>
<path d="M18 15q1.641 0 2.813 1.172t1.172 2.813-1.172 2.836-2.813 1.195-2.813-1.172-1.172-2.859q0-1.641 1.172-2.813t2.813-1.172zM18 17.016q-0.844 0-1.406 0.563-0.609 0.609-0.609 1.406t0.609 1.406 1.406 0.609q0.844 0 1.406-0.563 0.609-0.609 0.609-1.43t-0.609-1.43q-0.563-0.563-1.406-0.563zM10.313 11.672q1.172 1.172 3.164 0.867t3.586-1.898 1.898-3.586-0.867-3.164-3.141-0.844-3.563 1.922-1.922 3.563 0.844 3.141zM19.5 2.484q1.734 1.781 1.453 4.57t-2.484 4.992q-1.172 1.172-2.695 1.852t-2.789 0.68h-1.523t-0.797 0.023-0.867 0.117-0.773 0.234-0.82 0.398-0.703 0.586l-4.219 4.219-1.453-1.406 4.266-4.219q0.328-0.328 0.586-0.703t0.398-0.82 0.234-0.797 0.117-0.891 0.023-0.797v-1.523q0-1.219 0.68-2.742t1.852-2.695q2.203-2.203 4.992-2.531t4.523 1.453z"></path>
</svg>
