<!-- Generated by IcoMoon.io -->
<svg version="1.1" xmlns="http://www.w3.org/2000/svg" width="24" height="24" viewBox="0 0 24 24">
<title>sports_volleyball</title>
<path d="M21.938 10.828l-8.953-5.156v-3.609q3.469 0.375 6 2.836t2.953 5.93zM8.063 21.188l8.953-5.156 3.094 1.828q-3 4.125-8.109 4.125-2.063 0-3.938-0.797zM12.984 7.969l8.953 5.156q-0.188 1.547-0.844 2.953l-8.109-4.641v-3.469zM12 13.172l3 1.734-8.953 5.109q-1.172-0.844-2.156-2.203zM11.016 11.438l-3 1.734v-10.313q1.453-0.656 3-0.797v9.375zM6 4.031v10.266l-3.094 1.828q-0.891-2.016-0.891-4.125 0-4.969 3.984-7.969z"></path>
</svg>
