<!-- Generated by IcoMoon.io -->
<svg version="1.1" xmlns="http://www.w3.org/2000/svg" width="24" height="24" viewBox="0 0 24 24">
<title>sports_esports</title>
<path d="M17.016 12.984q0.422 0 0.703-0.281t0.281-0.703-0.281-0.703-0.703-0.281-0.727 0.281-0.305 0.703 0.305 0.703 0.727 0.281zM15 9.984q0.422 0 0.703-0.281t0.281-0.703-0.281-0.703-0.703-0.281-0.703 0.281-0.281 0.703 0.281 0.703 0.703 0.281zM11.016 11.016v-1.031h-2.016v-1.969h-0.984v1.969h-2.016v1.031h2.016v1.969h0.984v-1.969h2.016zM21.563 16.078q0.188 1.172-0.586 2.039t-1.945 0.867q-1.031 0-1.781-0.75l-2.25-2.25h-6l-2.25 2.25q-0.75 0.75-1.828 0.75t-1.805-0.727-0.727-1.805q0-0.047 0.023-0.188t0.023-0.188l1.078-7.641q0.188-1.453 1.313-2.438t2.625-0.984h9.094q1.453 0 2.578 1.008t1.359 2.414z"></path>
</svg>
