<!-- Generated by IcoMoon.io -->
<svg version="1.1" xmlns="http://www.w3.org/2000/svg" width="24" height="24" viewBox="0 0 24 24">
<title>sports</title>
<path d="M9 12q0-0.844 0.586-1.43t1.43-0.586 1.406 0.586 0.563 1.43-0.563 1.43-1.406 0.586-1.43-0.586-0.586-1.43zM11.016 15q1.219 0 2.109-0.891t0.891-2.109-0.891-2.109-2.109-0.891-2.109 0.891-0.891 2.109 0.891 2.109 2.109 0.891zM4.5 9q0.516 0 0.516-0.516 0-0.469-0.516-0.469t-0.516 0.469q0 0.516 0.516 0.516zM11.25 6h10.734v4.031h-4.031q-0.469 0-0.773 0.328t-0.258 0.797q0.141 1.078-0.047 2.063-0.375 1.875-1.828 3.188t-3.375 1.547q-0.094 0-0.328 0.023t-0.328 0.023q-2.484 0-4.242-1.758t-1.758-4.242v-0.281q0-0.328 0.094-0.797-0.375 0.094-0.609 0.094-1.031 0-1.758-0.75t-0.727-1.781 0.727-1.758 1.758-0.727q0.844 0 1.5 0.492t0.891 1.242q1.828-1.734 4.359-1.734z"></path>
</svg>
