<!-- Generated by IcoMoon.io -->
<svg version="1.1" xmlns="http://www.w3.org/2000/svg" width="24" height="24" viewBox="0 0 24 24">
<title>sports_golf</title>
<path d="M6.984 18.984v-1.969h10.031v1.969h-2.016q-0.797 0-1.406 0.609t-0.609 1.406v0.984h-1.969v-0.984q0-0.797-0.609-1.406t-1.406-0.609h-2.016zM11.016 6q0-0.422 0.281-0.703t0.703-0.281 0.703 0.281 0.281 0.703-0.281 0.703-0.703 0.281-0.703-0.281-0.281-0.703zM12.984 8.016q0-0.422 0.305-0.727t0.727-0.305 0.703 0.305 0.281 0.727-0.281 0.703-0.703 0.281-0.727-0.281-0.305-0.703zM9 8.016q0-0.422 0.281-0.727t0.703-0.305 0.727 0.305 0.305 0.727-0.305 0.703-0.727 0.281-0.703-0.281-0.281-0.703zM12 3.984q-2.063 0-3.539 1.477t-1.477 3.539 1.477 3.539 3.539 1.477 3.539-1.477 1.477-3.539-1.477-3.539-3.539-1.477zM12 15.984q-2.906 0-4.945-2.039t-2.039-4.945 2.039-4.945 4.945-2.039 4.945 2.039 2.039 4.945-2.039 4.945-4.945 2.039z"></path>
</svg>
