<!-- Generated by IcoMoon.io -->
<svg version="1.1" xmlns="http://www.w3.org/2000/svg" width="24" height="24" viewBox="0 0 24 24">
<title>stop_screen_share</title>
<path d="M6.984 15q1.359-1.875 3.656-2.438l-1.594-1.594q-1.5 1.453-2.063 4.031zM2.391 1.734l19.734 19.734-1.266 1.266-2.719-2.719h-18.141v-2.016h3.984q-0.844 0-1.406-0.563t-0.563-1.406v-10.031q0-0.891 0.656-1.453l-1.547-1.547zM21.984 16.031q0 1.172-1.031 1.734l-5.531-5.531 1.594-1.5-4.031-3.703v2.109q-0.094 0.047-0.258 0.047t-0.258 0.047l-5.25-5.203h12.797q0.844 0 1.406 0.563t0.563 1.406v10.031zM21.234 18h2.766v2.016h-0.797z"></path>
</svg>
