<!-- Generated by IcoMoon.io -->
<svg version="1.1" xmlns="http://www.w3.org/2000/svg" width="24" height="24" viewBox="0 0 24 24">
<title>storefront</title>
<path d="M5.016 18.984h14.016v-6h-0.234q-1.406 0-2.25-0.938-0.938 0.938-2.25 0.938-1.266 0-2.297-0.938-0.938 0.938-2.203 0.938-1.406 0-2.344-0.938-0.844 0.938-2.203 0.938h-0.234v6zM4.031 9.375q-0.141 0.656 0.281 1.172 0.328 0.469 0.938 0.469 0.984 0 1.172-1.172l0.609-4.828h-1.969zM8.484 9.656q0 0.516 0.352 0.938t0.867 0.422q0.563 0 0.938-0.398t0.375-0.914v-4.688h-1.969l-0.563 4.5v0.141zM12.984 5.016v4.688q0 0.516 0.375 0.914t0.844 0.398q0.609 0 1.008-0.445t0.305-1.055l-0.563-4.5h-1.969zM18.891 4.969l-1.922 0.047 0.609 4.828q0.047 0.469 0.375 0.82t0.797 0.352q0.563 0 0.938-0.469 0.422-0.516 0.281-1.172zM21.891 8.906q0.375 1.641-0.609 2.859l-0.281 0.281v6.938q0 0.797-0.609 1.406t-1.406 0.609h-13.969q-0.797 0-1.406-0.609t-0.609-1.406v-6.938l-0.281-0.281q-0.984-1.219-0.609-2.859l1.031-4.406q0.141-0.656 0.703-1.078t1.219-0.422h13.875q0.656 0 1.195 0.422t0.727 1.078z"></path>
</svg>
