<!-- Generated by IcoMoon.io -->
<svg version="1.1" xmlns="http://www.w3.org/2000/svg" width="24" height="24" viewBox="0 0 24 24">
<title>stream</title>
<path d="M9.984 3.984q0-0.844 0.586-1.406t1.43-0.563 1.43 0.563 0.586 1.406-0.586 1.43-1.43 0.586-1.43-0.586-0.586-1.43zM19.781 18.281l-1.453 1.406q-0.844-0.844-2.391-2.414t-1.922-1.945l1.406-1.406 0.328 0.375zM10.031 15.375q-0.844 0.844-2.414 2.391t-1.945 1.922l-1.453-1.406q0.844-0.844 2.414-2.391t1.945-1.922zM13.922 8.625l4.406-4.406 1.453 1.406-4.406 4.406zM10.031 8.578l-1.406 1.406-0.328-0.281-3.984-4.078 1.406-1.406 0.281 0.328h0.047zM9.984 20.016q0-0.844 0.586-1.43t1.43-0.586 1.43 0.586 0.586 1.43-0.586 1.406-1.43 0.563-1.43-0.563-0.586-1.406zM2.016 12q0-0.844 0.563-1.43t1.406-0.586 1.43 0.586 0.586 1.43-0.586 1.43-1.43 0.586-1.406-0.586-0.563-1.43zM18 12q0-0.844 0.586-1.43t1.43-0.586 1.406 0.586 0.563 1.43-0.563 1.43-1.406 0.586-1.43-0.586-0.586-1.43z"></path>
</svg>
