<!-- Generated by IcoMoon.io -->
<svg version="1.1" xmlns="http://www.w3.org/2000/svg" width="24" height="24" viewBox="0 0 24 24">
<title>strikethrough_s</title>
<path d="M9.375 13.125q0 2.531 2.906 2.531 2.297 0 2.297-1.688 0-0.75-0.305-1.078t-1.102-0.703q-0.047 0-0.164-0.047t-0.211-0.094-0.188-0.047h-9.609v-2.016h18v2.016h-3.891q0 0.047 0.070 0.164t0.117 0.164q0.328 0.797 0.328 1.641 0 2.859-3.141 3.75-0.984 0.281-2.156 0.281-0.75 0-1.453-0.141-1.688-0.328-2.625-1.031-1.828-1.359-1.828-3.703h2.953zM14.578 7.5q0-2.109-2.391-2.109-1.688 0-2.203 1.031-0.141 0.281-0.141 0.656 0 0.703 0.75 1.219 0.75 0.469 1.406 0.703h-4.594q0-0.047-0.094-0.117t-0.094-0.117q-0.375-0.609-0.375-1.688 0-1.734 1.5-2.953 1.453-1.125 3.891-1.125 2.484 0 3.891 1.266 1.453 1.313 1.453 3.234h-3z"></path>
</svg>
