<!-- Generated by IcoMoon.io -->
<svg version="1.1" xmlns="http://www.w3.org/2000/svg" width="24" height="24" viewBox="0 0 24 24">
<title>style</title>
<path d="M5.859 19.734v-6.328l3.469 8.344h-1.453q-0.797 0-1.406-0.609t-0.609-1.406zM7.875 8.766q0.422 0 0.703-0.305t0.281-0.727-0.281-0.703-0.703-0.281-0.703 0.281-0.281 0.703 0.281 0.727 0.703 0.305zM22.031 15.938q0.141 0.281 0.141 0.75 0 0.563-0.352 1.125t-0.867 0.75l-7.359 3.047q-0.281 0.141-0.75 0.141-0.563 0-1.102-0.352t-0.773-0.867l-4.969-12q-0.141-0.281-0.141-0.75 0-0.563 0.352-1.078t0.867-0.75l7.406-3.047q0.422-0.141 0.797-0.141 0.516 0 1.031 0.352t0.75 0.867zM2.531 19.641q-0.75-0.328-1.078-1.078t0-1.5l2.438-5.859v9z"></path>
</svg>
