<!-- Generated by IcoMoon.io -->
<svg version="1.1" xmlns="http://www.w3.org/2000/svg" width="24" height="24" viewBox="0 0 24 24">
<title>subway</title>
<path d="M18 15.891v-6.891q0-1.781-1.547-2.391t-4.453-0.609q-2.766 0-4.383 0.609t-1.617 2.391v6.891q0 1.078 0.773 1.852t1.852 0.773l-1.125 1.125v0.375h1.688l1.5-1.5h2.813l1.5 1.5h1.5v-0.375l-1.125-1.125q1.078 0 1.852-0.773t0.773-1.852zM17.813 2.813q2.016 0.75 3.094 2.344t1.078 3.703v13.125h-19.969v-13.125q0-2.109 1.078-3.703t3.094-2.344q2.016-0.797 5.813-0.797t5.813 0.797zM7.031 9h9.984v5.016h-9.984v-5.016zM7.5 15.984q0-0.422 0.281-0.703t0.703-0.281 0.727 0.281 0.305 0.703-0.305 0.727-0.727 0.305-0.703-0.305-0.281-0.727zM14.484 15.984q0-0.422 0.305-0.703t0.727-0.281 0.703 0.281 0.281 0.703-0.281 0.727-0.703 0.305-0.727-0.305-0.305-0.727z"></path>
</svg>
