<!-- Generated by IcoMoon.io -->
<svg version="1.1" xmlns="http://www.w3.org/2000/svg" width="24" height="24" viewBox="0 0 24 24">
<title>supervised_user_circle</title>
<path d="M12 20.016q2.484 0 4.523-1.43t2.93-3.68q-1.406-1.125-3.844-1.125-1.359 0-2.883 0.586t-1.523 1.523v4.078q0.281 0.047 0.797 0.047zM9.609 15.891q0-1.641 1.875-2.672-1.172-0.234-1.875-0.234-1.266 0-2.859 0.445t-2.297 1.242q0.656 1.781 2.016 3.094t3.141 1.875v-3.75zM9.609 6.75q-0.984 0-1.688 0.703t-0.703 1.688 0.703 1.664 1.688 0.68 1.664-0.68 0.68-1.664-0.68-1.688-1.664-0.703zM15.609 8.344q-0.797 0-1.359 0.563t-0.563 1.359 0.563 1.359 1.359 0.563 1.359-0.563 0.563-1.359-0.563-1.359-1.359-0.563zM12 2.016q4.125 0 7.055 2.93t2.93 7.055-2.93 7.055-7.055 2.93q-4.172 0-7.102-2.93t-2.93-7.055 2.93-7.055 7.102-2.93z"></path>
</svg>
