<!-- Generated by IcoMoon.io -->
<svg version="1.1" xmlns="http://www.w3.org/2000/svg" width="24" height="24" viewBox="0 0 24 24">
<title>surround_sound</title>
<path d="M12 9.984q0.797 0 1.406 0.609t0.609 1.406-0.609 1.406-1.406 0.609-1.406-0.609-0.609-1.406 0.609-1.406 1.406-0.609zM17.672 17.672q2.344-2.344 2.344-5.672v-0.047q0-1.359-0.68-3.023t-1.664-2.602l-1.453 1.453q1.781 1.781 1.781 4.219 0 2.531-1.734 4.266zM12 15.984q1.641 0 2.813-1.172t1.172-2.813-1.172-2.813-2.813-1.172-2.813 1.172-1.172 2.813 1.172 2.813 2.813 1.172zM7.781 16.219q-1.781-1.781-1.781-4.219 0-2.531 1.734-4.266l-1.406-1.406q-2.344 2.344-2.344 5.672v0.047q0 1.359 0.68 3.023t1.664 2.602zM20.016 3.984q0.797 0 1.383 0.609t0.586 1.406v12q0 0.797-0.586 1.406t-1.383 0.609h-16.031q-0.797 0-1.383-0.609t-0.586-1.406v-12q0-0.797 0.586-1.406t1.383-0.609h16.031z"></path>
</svg>
