<!-- Generated by IcoMoon.io -->
<svg version="1.1" xmlns="http://www.w3.org/2000/svg" width="24" height="24" viewBox="0 0 24 24">
<title>swap_calls</title>
<path d="M18 3.984l3.984 4.031h-3v6.984q0 1.641-1.172 2.813t-2.813 1.172-2.813-1.172-1.172-2.813v-6.984q0-0.797-0.609-1.406t-1.406-0.609-1.406 0.609-0.609 1.406v6.984h3l-3.984 3.984-3.984-3.984h3v-6.984q0-1.641 1.172-2.836t2.813-1.195 2.813 1.195 1.172 2.836v6.984q0 0.797 0.609 1.406t1.406 0.609 1.406-0.609 0.609-1.406v-6.984h-3z"></path>
</svg>
