<!-- Generated by IcoMoon.io -->
<svg version="1.1" xmlns="http://www.w3.org/2000/svg" width="24" height="24" viewBox="0 0 24 24">
<title>swipe</title>
<path d="M20.109 3.891l1.875-1.875v4.969h-4.969l2.063-2.063q-0.797-1.031-2.719-1.734t-4.359-0.703-4.359 0.703-2.719 1.734l2.063 2.063h-4.969v-4.969l1.875 1.875q1.125-1.313 3.305-2.109t4.805-0.797 4.805 0.797 3.305 2.109zM19.734 16.266v0.188l-0.75 5.25q-0.094 0.563-0.492 0.938t-0.961 0.375h-6.797q-0.563 0-1.031-0.469l-4.969-4.922 0.797-0.797q0.328-0.328 0.797-0.328h0.234l3.422 0.75v-10.734q0-0.609 0.445-1.055t1.055-0.445 1.055 0.445 0.445 1.055v6h0.797q0.141 0 0.516 0.094l4.547 2.25q0.891 0.422 0.891 1.406z"></path>
</svg>
