<!-- Generated by IcoMoon.io -->
<svg version="1.1" xmlns="http://www.w3.org/2000/svg" width="24" height="24" viewBox="0 0 24 24">
<title>sync_disabled</title>
<path d="M20.016 3.984l-2.391 2.391q0.984 0.938 1.688 2.602t0.703 3.023q0 2.203-1.219 4.219l-1.5-1.453q0.703-1.406 0.703-2.766 0-1.031-0.516-2.25t-1.266-1.969l-2.203 2.203v-6h6zM2.859 5.391l1.266-1.266 15.703 15.75-1.266 1.266-2.344-2.344q-1.125 0.656-2.25 0.938v-2.063q0.375-0.141 0.797-0.375l-8.063-8.063q-0.703 1.406-0.703 2.766 0 1.031 0.516 2.25t1.266 1.969l2.203-2.203v6h-6l2.391-2.391q-0.984-0.938-1.688-2.602t-0.703-3.023q0-2.203 1.219-4.219zM9.984 6.328q-0.281 0.094-0.75 0.375l-1.453-1.5q1.172-0.703 2.203-0.938v2.063z"></path>
</svg>
