<!-- Generated by IcoMoon.io -->
<svg version="1.1" xmlns="http://www.w3.org/2000/svg" width="24" height="24" viewBox="0 0 24 24">
<title>tab_unselected</title>
<path d="M17.016 21v-2.016h1.969v2.016h-1.969zM12.984 21v-2.016h2.016v2.016h-2.016zM21 12.984v-1.969h2.016v1.969h-2.016zM21 21v-2.016h2.016q0 0.797-0.609 1.406t-1.406 0.609zM5.016 5.016v-2.016h1.969v2.016h-1.969zM5.016 21v-2.016h1.969v2.016h-1.969zM9 5.016v-2.016h2.016v2.016h-2.016zM21 17.016v-2.016h2.016v2.016h-2.016zM21 3q0.797 0 1.406 0.609t0.609 1.406v3.984h-10.031v-6h8.016zM3 21q-0.797 0-1.406-0.609t-0.609-1.406h2.016v2.016zM0.984 17.016v-2.016h2.016v2.016h-2.016zM9 21v-2.016h2.016v2.016h-2.016zM0.984 5.016q0-0.797 0.609-1.406t1.406-0.609v2.016h-2.016zM0.984 12.984v-1.969h2.016v1.969h-2.016zM0.984 9v-2.016h2.016v2.016h-2.016z"></path>
</svg>
