<!-- Generated by IcoMoon.io -->
<svg version="1.1" xmlns="http://www.w3.org/2000/svg" width="24" height="24" viewBox="0 0 24 24">
<title>timer_off</title>
<path d="M12 20.016q1.828 0 3.516-0.984l-9.563-9.563q-0.938 1.594-0.938 3.516 0 2.906 2.039 4.969t4.945 2.063zM3 3.984l17.766 17.766-1.266 1.266-2.531-2.531q-2.344 1.5-4.969 1.5-3.75 0-6.375-2.648t-2.625-6.352q0-1.125 0.445-2.602t1.055-2.367l-2.766-2.766zM11.016 9.422v-1.406h1.969v3.422zM15 0.984v2.016h-6v-2.016h6zM19.031 4.547l1.406 1.406-1.406 1.453q1.969 2.484 1.969 5.578v0.047q0 1.125-0.445 2.578t-1.055 2.344l-1.453-1.453q0.938-1.594 0.938-3.516 0-2.906-2.039-4.945t-4.945-2.039q-1.875 0-3.469 0.938l-1.5-1.453q2.391-1.5 4.969-1.5 1.313 0 2.953 0.586t2.672 1.383z"></path>
</svg>
