<!-- Generated by IcoMoon.io -->
<svg version="1.1" xmlns="http://www.w3.org/2000/svg" width="24" height="24" viewBox="0 0 24 24">
<title>tram</title>
<path d="M17.016 14.016v-5.016h-10.031v5.016h10.031zM12 18.516q0.656 0 1.078-0.445t0.422-1.055-0.422-1.055-1.078-0.445-1.078 0.445-0.422 1.055 0.422 1.055 1.078 0.445zM18.984 16.922q0 1.313-0.68 2.203t-1.898 0.891h0.094l1.5 1.5v0.469h-2.016l-1.969-1.969h-3.797l-1.969 1.969h-2.25v-0.469l1.594-1.594q-1.078-0.234-1.828-1.078t-0.75-1.922v-8.438q0-1.922 1.594-2.648t4.359-0.82l0.797-1.5h-4.781v-1.5h10.031v1.5h-3.281l-0.75 1.5q2.953 0.094 4.477 0.797t1.523 2.672v8.438z"></path>
</svg>
