<!-- Generated by IcoMoon.io -->
<svg version="1.1" xmlns="http://www.w3.org/2000/svg" width="24" height="24" viewBox="0 0 24 24">
<title>tv_off</title>
<path d="M21 5.016q0.844 0 1.43 0.563t0.586 1.406v12q0 0.609-0.375 1.125l-1.641-1.641v-11.484h-11.484l-2.016-1.969h3.094l-3.281-3.328 0.703-0.703 3.984 4.031 3.984-4.031 0.703 0.703-3.281 3.328h7.594zM3 18.984h13.453l-12-12h-1.453v12zM0.984 3.563l1.266-1.313 19.453 19.5-1.266 1.266-1.969-2.016h-15.469q-0.797 0-1.406-0.609t-0.609-1.406v-12q0-0.703 0.445-1.242t1.102-0.68z"></path>
</svg>
