<!-- Generated by IcoMoon.io -->
<svg version="1.1" xmlns="http://www.w3.org/2000/svg" width="24" height="24" viewBox="0 0 24 24">
<title>usb</title>
<path d="M15 6.984h3.984v4.031h-0.984v1.969q0 0.844-0.586 1.43t-1.43 0.586h-3v3.047q1.219 0.656 1.219 1.969 0 0.891-0.633 1.547t-1.57 0.656-1.57-0.656-0.633-1.547q0-1.313 1.219-1.969v-3.047h-3q-0.844 0-1.43-0.586t-0.586-1.43v-2.063q-1.219-0.656-1.219-1.922 0-0.938 0.656-1.57t1.547-0.633 1.547 0.633 0.656 1.57q0 1.313-1.172 1.922v2.063h3v-7.969h-2.016l3-4.031 3 4.031h-2.016v7.969h3v-1.969h-0.984v-4.031z"></path>
</svg>
