<!-- Generated by IcoMoon.io -->
<svg version="1.1" xmlns="http://www.w3.org/2000/svg" width="24" height="24" viewBox="0 0 24 24">
<title>videogame_asset</title>
<path d="M19.5 12q0.656 0 1.078-0.422t0.422-1.078-0.422-1.078-1.078-0.422-1.078 0.422-0.422 1.078 0.422 1.078 1.078 0.422zM15.516 15q0.609 0 1.055-0.422t0.445-1.078-0.445-1.078-1.055-0.422-1.055 0.422-0.445 1.078 0.445 1.078 1.055 0.422zM11.016 12.984v-1.969h-3v-3h-2.016v3h-3v1.969h3v3h2.016v-3h3zM21 6q0.797 0 1.406 0.609t0.609 1.406v7.969q0 0.797-0.609 1.406t-1.406 0.609h-18q-0.797 0-1.406-0.609t-0.609-1.406v-7.969q0-0.797 0.609-1.406t1.406-0.609h18z"></path>
</svg>
