<!-- Generated by IcoMoon.io -->
<svg version="1.1" xmlns="http://www.w3.org/2000/svg" width="24" height="24" viewBox="0 0 24 24">
<title>vpn_lock</title>
<path d="M9.984 20.953v-1.969q-0.797 0-1.383-0.586t-0.586-1.383v-1.031l-4.828-4.781q-0.188 0.75-0.188 1.781 0 3.047 2.016 5.32t4.969 2.648zM18.938 12h2.016q0.047 0.328 0.047 0.984 0 4.172-2.93 7.102t-7.055 2.93q-4.172 0-7.102-2.93t-2.93-7.102q0-4.125 2.93-7.055t7.102-2.93q1.453 0 3 0.469v2.531q0 0.797-0.609 1.406t-1.406 0.609h-2.016v1.969q0 0.422-0.281 0.727t-0.703 0.305h-2.016v1.969h6q0.422 0 0.727 0.305t0.305 0.727v3h0.984q1.453 0 1.922 1.359 2.063-2.203 2.063-5.391 0-0.656-0.047-0.984zM21.188 3.984v-0.469q0-0.703-0.492-1.219t-1.195-0.516-1.195 0.516-0.492 1.219v0.469h3.375zM21.984 3.984q0.422 0 0.727 0.305t0.305 0.727v3.984q0 0.422-0.305 0.703t-0.727 0.281h-4.969q-0.422 0-0.727-0.281t-0.305-0.703v-3.984q0-0.422 0.305-0.727t0.727-0.305v-0.469q0-1.031 0.727-1.781t1.758-0.75 1.758 0.75 0.727 1.781v0.469z"></path>
</svg>
