<!-- Generated by IcoMoon.io -->
<svg version="1.1" xmlns="http://www.w3.org/2000/svg" width="24" height="24" viewBox="0 0 24 24">
<title>wb_auto</title>
<path d="M10.313 15.984h1.875l-3.188-9h-2.016l-3.188 9h1.922l0.703-1.969h3.188zM21.984 6.984h1.828l-2.063 9h-1.734l-1.5-6.094-1.5 6.094h-1.781l-0.094-0.422q-0.984 2.016-2.906 3.234t-4.219 1.219q-3.328 0-5.672-2.367t-2.344-5.648 2.344-5.648 5.672-2.367q3.844 0 6.234 3h0.75l1.219 6.328 1.5-6.328h1.594l1.5 6.328zM6.844 12.656l1.172-3.656 1.125 3.656h-2.297z"></path>
</svg>
