<!-- Generated by IcoMoon.io -->
<svg version="1.1" xmlns="http://www.w3.org/2000/svg" width="24" height="24" viewBox="0 0 24 24">
<title>wc</title>
<path d="M16.5 6q-0.844 0-1.43-0.586t-0.586-1.43 0.586-1.406 1.43-0.563 1.43 0.563 0.586 1.406-0.586 1.43-1.43 0.586zM7.5 6q-0.844 0-1.43-0.586t-0.586-1.43 0.586-1.406 1.43-0.563 1.43 0.563 0.586 1.406-0.586 1.43-1.43 0.586zM18 21.984h-3v-6h-3l2.531-7.594q0.188-0.563 0.75-0.984t1.172-0.422h0.094q0.609 0 1.172 0.422t0.75 0.984l2.531 7.594h-3v6zM5.484 21.984v-7.5h-1.5v-5.484q0-0.797 0.609-1.406t1.406-0.609h3q0.797 0 1.406 0.609t0.609 1.406v5.484h-1.5v7.5h-4.031z"></path>
</svg>
