<!-- Generated by IcoMoon.io -->
<svg version="1.1" xmlns="http://www.w3.org/2000/svg" width="24" height="24" viewBox="0 0 24 24">
<title>weekend</title>
<path d="M18 5.016q0.797 0 1.406 0.586t0.609 1.383v2.156q-0.891 0.328-1.453 1.078t-0.563 1.734v2.063h-12v-2.063q0-0.984-0.563-1.734t-1.453-1.078v-2.156q0-0.797 0.609-1.383t1.406-0.586h12zM21 9.984q0.797 0 1.406 0.609t0.609 1.406v5.016q0 0.797-0.609 1.383t-1.406 0.586h-18q-0.797 0-1.406-0.586t-0.609-1.383v-5.016q0-0.797 0.609-1.406t1.406-0.609 1.406 0.609 0.609 1.406v3h13.969v-3q0-0.797 0.609-1.406t1.406-0.609z"></path>
</svg>
