<!-- Generated by IcoMoon.io -->
<svg version="1.1" xmlns="http://www.w3.org/2000/svg" width="24" height="24" viewBox="0 0 24 24">
<title>wifi_lock</title>
<path d="M21.984 15.984v-1.5q0-0.609-0.445-1.055t-1.055-0.445-1.055 0.445-0.445 1.055v1.5h3zM23.016 15.984q0.422 0 0.703 0.305t0.281 0.727v3.984q0 0.422-0.281 0.703t-0.703 0.281h-5.016q-0.422 0-0.703-0.281t-0.281-0.703v-3.984q0-0.422 0.281-0.727t0.703-0.305v-1.5q0-1.031 0.727-1.758t1.758-0.727 1.781 0.727 0.75 1.758v1.5zM20.484 9.516q-2.063 0-3.516 1.453t-1.453 3.516v2.859l-3.516 4.641-12-15.984q5.25-3.984 12-3.984t12 3.984l-2.672 3.563q-0.281-0.047-0.844-0.047z"></path>
</svg>
