<!-- Generated by IcoMoon.io -->
<svg version="1.1" xmlns="http://www.w3.org/2000/svg" width="24" height="24" viewBox="0 0 24 24">
<title>workspaces_outline</title>
<path d="M18 12.984q1.641 0 2.813 1.195t1.172 2.836-1.172 2.813-2.813 1.172-2.813-1.172-1.172-2.813 1.172-2.836 2.813-1.195zM18 15q-0.797 0-1.406 0.609t-0.609 1.406 0.609 1.383 1.406 0.586 1.406-0.586 0.609-1.383-0.609-1.406-1.406-0.609zM12 3q1.641 0 2.813 1.172t1.172 2.813-1.172 2.836-2.813 1.195-2.813-1.195-1.172-2.836 1.172-2.813 2.813-1.172zM12 5.016q-0.797 0-1.406 0.586t-0.609 1.383 0.609 1.406 1.406 0.609 1.406-0.609 0.609-1.406-0.609-1.383-1.406-0.586zM6 12.984q1.641 0 2.813 1.195t1.172 2.836-1.172 2.813-2.813 1.172-2.813-1.172-1.172-2.813 1.172-2.836 2.813-1.195zM6 15q-0.797 0-1.406 0.609t-0.609 1.406 0.609 1.383 1.406 0.586 1.406-0.586 0.609-1.383-0.609-1.406-1.406-0.609z"></path>
</svg>
