<!-- Generated by IcoMoon.io -->
<svg version="1.1" xmlns="http://www.w3.org/2000/svg" width="24" height="24" viewBox="0 0 24 24">
<title>workspaces_filled</title>
<path d="M18 12.984q1.641 0 2.813 1.195t1.172 2.836-1.172 2.813-2.813 1.172-2.813-1.172-1.172-2.813 1.172-2.836 2.813-1.195zM12 3q1.641 0 2.813 1.172t1.172 2.813-1.172 2.836-2.813 1.195-2.813-1.195-1.172-2.836 1.172-2.813 2.813-1.172zM6 12.984q1.641 0 2.813 1.195t1.172 2.836-1.172 2.813-2.813 1.172-2.813-1.172-1.172-2.813 1.172-2.836 2.813-1.195z"></path>
</svg>
