<!-- Generated by IcoMoon.io -->
<svg version="1.1" xmlns="http://www.w3.org/2000/svg" width="24" height="24" viewBox="0 0 24 24">
<title>work_off</title>
<path d="M14.063 6v-2.063h-4.078v2.063h4.078zM21.984 7.969v10.313l-13.922-14.016v-0.328q0-0.844 0.563-1.406t1.406-0.516h4.031q0.844-0.047 1.406 0.516t0.563 1.406v2.063h4.031q0.844-0.047 1.406 0.539t0.516 1.43zM23.016 21.75l-1.266 1.266-2.063-2.063h-15.656q-0.844 0-1.406-0.586t-0.563-1.43v-10.969q0-0.844 0.563-1.43t1.406-0.586h0.656l-2.719-2.719 1.266-1.266z"></path>
</svg>
