<?xml version="1.0" encoding="UTF-8" standalone="no"?>
<!-- Created with Inkscape (http://www.inkscape.org/) -->

<svg
   xmlns:dc="http://purl.org/dc/elements/1.1/"
   xmlns:cc="http://creativecommons.org/ns#"
   xmlns:rdf="http://www.w3.org/1999/02/22-rdf-syntax-ns#"
   xmlns:svg="http://www.w3.org/2000/svg"
   xmlns="http://www.w3.org/2000/svg"
   xmlns:sodipodi="http://sodipodi.sourceforge.net/DTD/sodipodi-0.dtd"
   xmlns:inkscape="http://www.inkscape.org/namespaces/inkscape"
   viewBox="0 0 140.41118 18.222853"
   version="1.1">
  <g
     inkscape:label="Layer 1"
     inkscape:groupmode="layer"
     id="layer1"
     transform="translate(1028.7577,449.00298)">
    <path
       d="m -1012.313,-435.26809 q -0.3323,0.77062 -0.8,1.39111 -0.4534,0.61049 -0.9765,1.08087 -0.523,0.47037 -1.0958,0.80064 -0.5727,0.33026 -1.1237,0.54043 -0.551,0.21017 -1.0746,0.31025 -0.5135,0.10008 -0.9338,0.10008 h -10.0381 l 1.122,-2.60208 h 10.0381 q 0.7506,0 1.3508,-0.44036 0.6102,-0.44035 0.9296,-1.18094 0.1553,-0.36029 0.1747,-0.66053 0.019,-0.30024 -0.096,-0.52041 -0.1052,-0.22018 -0.3537,-0.34028 -0.2384,-0.12009 -0.5987,-0.12009 h -5.9848 q -0.6305,0 -1.2662,-0.22018 -0.6313,-0.23018 -1.046,-0.73058 -0.4047,-0.5004 -0.4755,-1.31105 -0.061,-0.81065 0.4441,-1.98159 0.5049,-1.17093 1.2605,-1.97157 0.7699,-0.81065 1.6061,-1.31105 0.8506,-0.51041 1.6762,-0.73058 0.8298,-0.23019 1.4603,-0.23019 h 8.8571 l -1.122,2.60208 h -8.8571 q -0.7406,0 -1.3551,0.45036 -0.6046,0.45036 -0.9239,1.19095 -0.3237,0.75061 -0.1032,1.19096 0.2348,0.43034 0.9753,0.43034 h 5.9848 0.02 q 0.4161,0.01 0.839,0.1201 0.4272,0.10008 0.7926,0.32025 0.3754,0.22018 0.6491,0.56045 0.2779,0.33026 0.3953,0.80064 0.1275,0.47038 0.054,1.08087 -0.073,0.61048 -0.4054,1.3811 z"
       style="font-style:normal;font-variant:normal;font-weight:normal;font-stretch:normal;font-size:20.49638748px;line-height:1.25;font-family:Audiowide;-inkscape-font-specification:'Audiowide, Normal';font-variant-ligatures:normal;font-variant-caps:normal;font-variant-numeric:normal;font-feature-settings:normal;text-align:start;letter-spacing:0px;word-spacing:0px;writing-mode:lr-tb;text-anchor:start;fill:#689f38;fill-opacity:1;stroke:#689f38;stroke-width:0.5291667;stroke-miterlimit:4;stroke-dasharray:none;stroke-opacity:1"
       id="path899"
       inkscape:connector-curvature="0" />
    <path
       d="m -993.78738,-439.39139 q -0.38407,0.89072 -0.90634,1.59128 -0.52225,0.70056 -1.1356,1.24099 -0.59901,0.53042 -1.25339,0.91073 -0.65443,0.3803 -1.2984,0.62049 -0.63387,0.24019 -1.23182,0.35028 -0.58787,0.11009 -1.06817,0.11009 h -5.8847 l 1.122,-2.60208 h 5.88466 q 0.51757,-0.04 0.98694,-0.20016 0.48368,-0.17014 0.89472,-0.45036 0.41107,-0.28023 0.7395,-0.67054 0.33275,-0.40032 0.54852,-0.90072 l 0.50923,-1.18094 q 0.16146,-0.49039 0.17822,-0.90072 0.0168,-0.41033 -0.13826,-0.70056 -0.14507,-0.29023 -0.46634,-0.45036 -0.31694,-0.17014 -0.82735,-0.17014 h -5.86454 q -0.5204,0 -0.9072,0.27022 -0.3867,0.27021 -0.6068,0.78062 l -4.6132,10.69856 h -2.6021 l 4.6132,-10.69856 q 0.4316,-1.0008 1.094,-1.70136 0.6723,-0.70056 1.3983,-1.1309 0.736,-0.43035 1.4585,-0.6205 0.7269,-0.20016 1.2673,-0.20016 h 5.88456 q 0.88071,0 1.48201,0.23019 0.60562,0.22017 0.97206,0.60048 0.38075,0.37029 0.5396,0.86068 0.16884,0.4904 0.17599,1.03083 0.0215,0.53042 -0.10578,1.08086 -0.12295,0.54043 -0.33009,1.02082 z"
       style="font-style:normal;font-variant:normal;font-weight:normal;font-stretch:normal;font-size:20.49638748px;line-height:1.25;font-family:Audiowide;-inkscape-font-specification:'Audiowide, Normal';font-variant-ligatures:normal;font-variant-caps:normal;font-variant-numeric:normal;font-feature-settings:normal;text-align:start;letter-spacing:0px;word-spacing:0px;writing-mode:lr-tb;text-anchor:start;fill:#689f38;fill-opacity:1;stroke:#689f38;stroke-width:0.5291667;stroke-miterlimit:4;stroke-dasharray:none;stroke-opacity:1"
       id="path901"
       inkscape:connector-curvature="0" />
    <path
       d="m -955.50939,-440.57233 q -0.38407,0.89071 -0.90633,1.59127 -0.52226,0.70056 -1.1356,1.24099 -0.59902,0.53043 -1.2534,0.91073 -0.65438,0.38031 -1.3027,0.63051 -0.63399,0.24019 -1.2319,0.35028 -0.58791,0.11008 -1.06829,0.11008 l 3.41039,4.69376 h -4.02322 l -3.40038,-4.69376 h -1.8715 l 1.12203,-2.60208 h 5.8847 q 0.50766,-0.04 0.97703,-0.20016 0.48368,-0.17013 0.89475,-0.45036 0.42108,-0.28022 0.7495,-0.67053 0.33275,-0.40032 0.55284,-0.91073 l 0.70774,-1.64131 q 0.0949,-0.22018 0.0824,-0.33027 0.002,-0.12009 -0.0667,-0.17013 -0.0542,-0.06 -0.14993,-0.0701 -0.0858,-0.01 -0.16582,-0.01 h -8.58688 l -5.06636,11.74939 h -2.60208 l 5.62307,-13.04042 q 0.11652,-0.27022 0.32017,-0.51041 0.20365,-0.24019 0.45146,-0.42033 0.25783,-0.18015 0.54117,-0.28023 0.28335,-0.10008 0.56357,-0.10008 h 9.87789 q 0.87071,0 1.33308,0.32026 0.46671,0.31025 0.62986,0.79063 0.17748,0.47038 0.10026,1.02082 -0.0672,0.55044 -0.27436,1.03082 z"
       style="font-style:normal;font-variant:normal;font-weight:normal;font-stretch:normal;font-size:20.49638748px;line-height:1.25;font-family:Audiowide;-inkscape-font-specification:'Audiowide, Normal';font-variant-ligatures:normal;font-variant-caps:normal;font-variant-numeric:normal;font-feature-settings:normal;text-align:start;letter-spacing:0px;word-spacing:0px;writing-mode:lr-tb;text-anchor:start;fill:#689f38;fill-opacity:1;stroke:#689f38;stroke-width:0.5291667;stroke-miterlimit:4;stroke-dasharray:none;stroke-opacity:1"
       id="path903"
       inkscape:connector-curvature="0" />
    <path
       d="m -939.06897,-442.79411 h -5.73459 l -5.06636,11.7494 h -2.60208 l 5.06636,-11.7494 h -5.74459 l 1.12203,-2.60208 h 14.08125 z"
       style="font-style:normal;font-variant:normal;font-weight:normal;font-stretch:normal;font-size:20.49638748px;line-height:1.25;font-family:Audiowide;-inkscape-font-specification:'Audiowide, Normal';font-variant-ligatures:normal;font-variant-caps:normal;font-variant-numeric:normal;font-feature-settings:normal;text-align:start;letter-spacing:0px;word-spacing:0px;writing-mode:lr-tb;text-anchor:start;fill:#689f38;fill-opacity:1;stroke:#689f38;stroke-width:0.5291667;stroke-miterlimit:4;stroke-dasharray:none;stroke-opacity:1"
       id="path905"
       inkscape:connector-curvature="0" />
    <g
       aria-label="AREA"
       style="font-style:normal;font-variant:normal;font-weight:normal;font-stretch:normal;font-size:20.67168045px;line-height:1.25;font-family:Audiowide;-inkscape-font-specification:'Audiowide, Normal';font-variant-ligatures:normal;font-variant-caps:normal;font-variant-numeric:normal;font-feature-settings:normal;text-align:start;letter-spacing:0px;word-spacing:0px;writing-mode:lr-tb;text-anchor:start;fill:#ff962a;fill-opacity:1;stroke:none;stroke-width:0.33892938"
       id="text1032"
       transform="matrix(0.7806444,0,0,0.7806444,-884.39143,-480.97361)">
      <path
         d="m -55.049937,64.206642 h -2.624335 v -3.552945 h -9.225545 v 3.552945 h -2.624334 v -7.237107 q 0,-1.584694 0.545054,-2.917048 0.545054,-1.332355 1.514039,-2.291246 0.968985,-0.958892 2.291246,-1.493852 1.322261,-0.534961 2.886768,-0.534961 h 5.914846 q 0.272527,0 0.514773,0.100936 0.242246,0.100936 0.423931,0.282621 0.181685,0.181685 0.282621,0.423931 0.100936,0.242246 0.100936,0.514773 z m -11.84988,-6.177279 h 9.225545 v -5.6726 h -4.612772 q -0.121123,0 -0.514774,0.04037 -0.383556,0.03028 -0.898329,0.171591 -0.50468,0.141311 -1.069921,0.434025 -0.565242,0.292714 -1.039641,0.807487 -0.474399,0.514774 -0.7873,1.29198 -0.302808,0.767114 -0.302808,1.867315 z"
         style="font-style:normal;font-variant:normal;font-weight:normal;font-stretch:normal;font-size:20.67168045px;font-family:Audiowide;-inkscape-font-specification:'Audiowide, Normal';font-variant-ligatures:normal;font-variant-caps:normal;font-variant-numeric:normal;font-feature-settings:normal;text-align:start;writing-mode:lr-tb;text-anchor:start;fill:#ff962a;fill-opacity:1;stroke-width:0.33892938"
         id="path1632"
         inkscape:connector-curvature="0" />
      <path
         d="m -37.547645,54.597541 q 0,0.89833 -0.222059,1.604881 -0.222059,0.706552 -0.605616,1.251606 -0.373463,0.53496 -0.868049,0.918517 -0.494586,0.383556 -1.03964,0.635896 -0.534961,0.242247 -1.090108,0.353276 -0.545055,0.11103 -1.029547,0.11103 l 5.480821,4.733895 h -4.057624 l -5.470728,-4.733895 h -1.887502 v -2.624335 h 5.935033 q 0.494586,-0.04037 0.89833,-0.201872 0.413837,-0.171591 0.706551,-0.454211 0.302808,-0.282621 0.464306,-0.676271 0.161497,-0.403744 0.161497,-0.918517 v -1.65535 q 0,-0.222059 -0.06056,-0.333088 -0.05047,-0.121123 -0.141311,-0.171591 -0.08075,-0.06056 -0.181684,-0.07066 -0.09084,-0.01009 -0.171591,-0.01009 h -8.660304 v 11.849879 h -2.624335 V 51.054689 q 0,-0.272527 0.100936,-0.514773 0.100936,-0.242246 0.272527,-0.423931 0.181685,-0.181685 0.423931,-0.282621 0.242247,-0.100936 0.524867,-0.100936 h 9.962378 q 0.878142,0 1.483758,0.322995 0.605615,0.312902 0.979078,0.797394 0.383557,0.474399 0.545055,1.029547 0.171591,0.555148 0.171591,1.03964 z"
         style="font-style:normal;font-variant:normal;font-weight:normal;font-stretch:normal;font-size:20.67168045px;font-family:Audiowide;-inkscape-font-specification:'Audiowide, Normal';font-variant-ligatures:normal;font-variant-caps:normal;font-variant-numeric:normal;font-feature-settings:normal;text-align:start;writing-mode:lr-tb;text-anchor:start;fill:#ff962a;fill-opacity:1;stroke-width:0.33892938"
         id="path1634"
         inkscape:connector-curvature="0" />
      <path
         d="m -22.99268,58.291796 h -8.286841 v -2.644522 h 8.286841 z m 1.18095,5.914846 h -9.467791 q -0.545054,0 -1.191044,-0.191778 -0.64599,-0.191778 -1.201137,-0.625803 -0.545055,-0.444118 -0.918518,-1.140576 -0.363369,-0.706552 -0.363369,-1.726005 v -9.467791 q 0,-0.272527 0.100936,-0.514773 0.100936,-0.242246 0.272527,-0.423931 0.181685,-0.181685 0.423931,-0.282621 0.242246,-0.100936 0.524867,-0.100936 h 11.819598 v 2.624335 h -10.517524 v 8.165717 q 0,0.514774 0.272527,0.787301 0.272527,0.272527 0.797393,0.272527 h 9.447604 z"
         style="font-style:normal;font-variant:normal;font-weight:normal;font-stretch:normal;font-size:20.67168045px;font-family:Audiowide;-inkscape-font-specification:'Audiowide, Normal';font-variant-ligatures:normal;font-variant-caps:normal;font-variant-numeric:normal;font-feature-settings:normal;text-align:start;writing-mode:lr-tb;text-anchor:start;fill:#ff962a;fill-opacity:1;stroke-width:0.33892938"
         id="path1636"
         inkscape:connector-curvature="0" />
      <path
         d="m -5.0664589,64.206642 h -2.6243344 v -3.552945 h -9.2255447 v 3.552945 h -2.624335 v -7.237107 q 0,-1.584694 0.545054,-2.917048 0.545055,-1.332355 1.51404,-2.291246 0.968985,-0.958892 2.291245,-1.493852 1.322261,-0.534961 2.886768,-0.534961 h 5.9148463 q 0.272527,0 0.5147733,0.100936 0.2422463,0.100936 0.4239309,0.282621 0.1816847,0.181685 0.2826207,0.423931 0.1009359,0.242246 0.1009359,0.514773 z M -16.916338,58.029363 h 9.2255447 v -5.6726 h -4.6127727 q -0.121123,0 -0.514773,0.04037 -0.383557,0.03028 -0.89833,0.171591 -0.50468,0.141311 -1.069921,0.434025 -0.565241,0.292714 -1.03964,0.807487 -0.474399,0.514774 -0.7873,1.29198 -0.302808,0.767114 -0.302808,1.867315 z"
         style="font-style:normal;font-variant:normal;font-weight:normal;font-stretch:normal;font-size:20.67168045px;font-family:Audiowide;-inkscape-font-specification:'Audiowide, Normal';font-variant-ligatures:normal;font-variant-caps:normal;font-variant-numeric:normal;font-feature-settings:normal;text-align:start;writing-mode:lr-tb;text-anchor:start;fill:#ff962a;fill-opacity:1;stroke-width:0.33892938"
         id="path1638"
         inkscape:connector-curvature="0" />
    </g>
    <path
       style="opacity:1;fill:#ff962a;fill-opacity:1;fill-rule:evenodd;stroke:none;stroke-width:0.52916664;stroke-linecap:round;stroke-linejoin:round;stroke-miterlimit:4;stroke-dasharray:none;stroke-dashoffset:0;stroke-opacity:1"
       d="m -982.82639,-442.96994 a 4.4901275,4.4901275 0 0 0 -2.29515,-0.59593 c -0.0597,1.3374 -0.48043,2.79268 -1.27935,4.17645 -0.66229,1.14712 -1.49846,2.09175 -2.40718,2.79374 a 4.4901275,4.4901275 0 0 0 1.49152,1.40293 4.4901275,4.4901275 0 0 0 2.13589,0.59588 c 0.16234,-1.11145 0.55847,-2.27571 1.20361,-3.39314 0.77948,-1.3501 1.79824,-2.42132 2.89528,-3.14205 a 4.4901275,4.4901275 0 0 0 -1.74462,-1.83788 z m -2.96157,-0.54032 a 4.4901275,4.4901275 0 0 0 -3.17165,2.1841 4.4901275,4.4901275 0 0 0 -0.17421,4.1444 c 0.80469,-0.63997 1.5586,-1.49759 2.15965,-2.53864 0.73141,-1.26684 1.11644,-2.5937 1.18621,-3.78986 z m 4.96771,2.99701 c -0.96266,0.65889 -1.87746,1.63128 -2.58352,2.85422 -0.57931,1.00339 -0.94223,2.04485 -1.10442,3.02913 a 4.4901275,4.4901275 0 0 0 3.32531,-2.20636 4.4901275,4.4901275 0 0 0 0.36263,-3.67699 z"
       id="path1689"
       inkscape:connector-curvature="0" />
    <path
       inkscape:connector-curvature="0"
       id="path1641-2"
       d="m -982.46661,-430.81036 a 9.1014095,9.1014095 0 0 0 7.04538,-3.47977 9.1014095,9.1014095 0 0 0 -1.54285,-12.77854 9.1014095,9.1014095 0 0 0 -7.68101,-1.69547 9.0836327,9.0836327 0 0 1 5.89805,1.92337 9.0836327,9.0836327 0 0 1 1.5399,12.75364 9.0836327,9.0836327 0 0 1 -5.25947,3.27677 z m -7.99984,-12.87663 a 7.3593423,7.3593423 0 0 1 9.61271,-0.46849 7.3593423,7.3593423 0 0 1 1.8384,9.44256 7.3060137,7.3060137 0 0 0 0.40941,-0.47162 7.3060137,7.3060137 0 0 0 -1.2385,-10.25777 7.3060137,7.3060137 0 0 0 -10.25776,1.23853 7.3060137,7.3060137 0 0 0 -0.36457,0.51654 z"
       style="opacity:1;fill:#689f38;fill-opacity:1;fill-rule:evenodd;stroke:none;stroke-width:4.4979167;stroke-linecap:round;stroke-linejoin:round;stroke-miterlimit:4;stroke-dasharray:none;stroke-dashoffset:0;stroke-opacity:1" />
  </g>
</svg>
