<!-- Generated by IcoMoon.io -->
<svg version="1.1" xmlns="http://www.w3.org/2000/svg" width="768" height="768" viewBox="0 0 768 768">
<title></title>
<g id="icomoon-ignore">
</g>
<path d="M704.002 384c0-88.349-35.84-168.407-93.731-226.268s-137.92-93.731-226.268-93.731-168.407 35.84-226.268 93.731-93.731 137.92-93.731 226.268 35.84 168.407 93.731 226.268 137.92 93.731 226.268 93.731 168.407-35.84 226.268-93.731 93.731-137.92 93.731-226.268zM645.817 384c0 72.32-29.266 137.716-76.684 185.135s-112.814 76.684-185.135 76.684-137.716-29.266-185.135-76.684-76.684-112.814-76.684-185.135 29.266-137.716 76.684-185.135 112.814-76.684 185.135-76.684 137.717 29.266 185.135 76.684 76.684 112.814 76.684 185.135z"></path>
</svg>
