<!-- Generated by IcoMoon.io -->
<svg version="1.1" xmlns="http://www.w3.org/2000/svg" width="768" height="768" viewBox="0 0 768 768">
<title></title>
<g id="icomoon-ignore">
</g>
<path d="M182.397 95.997c-23.848 0-45.502 9.706-61.082 25.319s-25.319 37.24-25.319 61.082v403.199c0 23.848 9.706 45.502 25.319 61.082s37.24 25.319 61.082 25.319h403.199c23.848 0 45.502-9.706 61.082-25.319s25.319-37.24 25.319-61.082v-403.199c0-23.848-9.706-45.502-25.319-61.082s-37.24-25.319-61.082-25.319zM182.397 153.601h403.199c7.945 0 15.12 3.193 20.365 8.438s8.438 12.413 8.438 20.365v403.199c0 7.945-3.193 15.12-8.438 20.365s-12.413 8.438-20.365 8.438h-403.199c-7.945 0-15.12-3.193-20.365-8.438s-8.438-12.413-8.438-20.365v-403.199c0-7.945 3.193-15.12 8.438-20.365s12.413-8.438 20.365-8.438z"></path>
</svg>
